STARTFONT 2.1
FONT -JDECW-Mincho-Medium-R-Normal--18-180-75-75-M-180-JISX0208.1983-1
SIZE 18 75 75
FONTBOUNDINGBOX 20 20 0 -4

STARTPROPERTIES 26
FONTNAME_REGISTRY ""
FAMILY_NAME "Mincho"
FOUNDRY "JDECW"
WEIGHT_NAME "Medium"
SLANT "R"
SETWIDTH_NAME "Normal"
ADD_STYLE_NAME ""
PIXEL_SIZE 18
POINT_SIZE 180
RESOLUTION_X 75
RESOLUTION_Y 75
SPACING "M"
AVERAGE_WIDTH 180
CHARSET_REGISTRY "JISX0208.1983"
CHARSET_ENCODING "1"
DEVICE_FONT_NAME "Mincho-JISX0208.1983-1"
CHARSET_COLLECTIONS "JISX0208.1983 1"
FULL_NAME "Mincho-JISX0208.1983-1"
COPYRIGHT "Copyright (c) 1990 1991 TYPEBANK, Digital Equipment Corporation Japan"
CAP_HEIGHT 14
X_HEIGHT 9
WEIGHT 10
QUAD_WIDTH 20
DEFAULT_CHAR 41634
FONT_DESCENT 4
FONT_ASCENT 16
ENDPROPERTIES

CHARS 6968

STARTCHAR Ca1a1
ENCODING 41377
SWIDTH 1000 0
DWIDTH 20 0
BBX 20 20 0 -4
BITMAP
000000
000000
000000
000000
000000
000000
000000
000000
000000
000000
000000
000000
000000
000000
000000
000000
000000
000000
000000
000000
ENDCHAR

STARTCHAR Ca1a2
ENCODING 41378
SWIDTH 1000 0
DWIDTH 20 0
BBX 20 20 0 -4
BITMAP
000000
000000
000000
000000
000000
000000
000000
000000
000000
000000
000000
000000
000000
000000
000000
400000
200000
100000
080000
000000
ENDCHAR

STARTCHAR Ca1a3
ENCODING 41379
SWIDTH 1000 0
DWIDTH 20 0
BBX 20 20 0 -4
BITMAP
000000
000000
000000
000000
000000
000000
000000
000000
000000
000000
000000
000000
000000
000000
380000
440000
440000
440000
380000
000000
ENDCHAR

STARTCHAR Ca1a4
ENCODING 41380
SWIDTH 1000 0
DWIDTH 20 0
BBX 20 20 0 -4
BITMAP
000000
000000
000000
000000
000000
000000
000000
000000
000000
000000
000000
000000
000000
300000
780000
780000
180000
100000
600000
000000
ENDCHAR

STARTCHAR Ca1a5
ENCODING 41381
SWIDTH 1000 0
DWIDTH 20 0
BBX 20 20 0 -4
BITMAP
000000
000000
000000
000000
000000
000000
000000
000000
000000
000000
000000
000000
000000
000000
300000
780000
780000
300000
000000
000000
ENDCHAR

STARTCHAR Ca1a6
ENCODING 41382
SWIDTH 1000 0
DWIDTH 20 0
BBX 20 20 0 -4
BITMAP
000000
000000
000000
000000
000000
000000
000000
000000
006000
00F000
00F000
006000
000000
000000
000000
000000
000000
000000
000000
000000
ENDCHAR

STARTCHAR Ca1a7
ENCODING 41383
SWIDTH 1000 0
DWIDTH 20 0
BBX 20 20 0 -4
BITMAP
000000
000000
000000
000000
000000
000000
000000
006000
00F000
006000
000000
000000
000000
006000
00F000
006000
000000
000000
000000
000000
ENDCHAR

STARTCHAR Ca1a8
ENCODING 41384
SWIDTH 1000 0
DWIDTH 20 0
BBX 20 20 0 -4
BITMAP
000000
000000
000000
000000
000000
000000
000000
006000
00F000
006000
000000
000000
000000
006000
00F000
007000
002000
00C000
000000
000000
ENDCHAR

STARTCHAR Ca1a9
ENCODING 41385
SWIDTH 1000 0
DWIDTH 20 0
BBX 20 20 0 -4
BITMAP
000000
01F000
020800
040400
040400
060400
060400
000800
001000
002000
002000
004000
004000
004000
000000
004000
00E000
004000
000000
000000
ENDCHAR

STARTCHAR Ca1aa
ENCODING 41386
SWIDTH 1000 0
DWIDTH 20 0
BBX 20 20 0 -4
BITMAP
000000
004000
00E000
00E000
00E000
00E000
00E000
00E000
00E000
004000
004000
004000
004000
004000
000000
004000
00E000
004000
000000
000000
ENDCHAR

STARTCHAR Ca1ab
ENCODING 41387
SWIDTH 1000 0
DWIDTH 20 0
BBX 20 20 0 -4
BITMAP
000000
100000
480000
280000
200000
000000
000000
000000
000000
000000
000000
000000
000000
000000
000000
000000
000000
000000
000000
000000
ENDCHAR

STARTCHAR Ca1ac
ENCODING 41388
SWIDTH 1000 0
DWIDTH 20 0
BBX 20 20 0 -4
BITMAP
000000
300000
480000
480000
300000
000000
000000
000000
000000
000000
000000
000000
000000
000000
000000
000000
000000
000000
000000
000000
ENDCHAR

STARTCHAR Ca1ad
ENCODING 41389
SWIDTH 1000 0
DWIDTH 20 0
BBX 20 20 0 -4
BITMAP
000000
003000
00C000
000000
000000
000000
000000
000000
000000
000000
000000
000000
000000
000000
000000
000000
000000
000000
000000
000000
ENDCHAR

STARTCHAR Ca1ae
ENCODING 41390
SWIDTH 1000 0
DWIDTH 20 0
BBX 20 20 0 -4
BITMAP
000000
00C000
003000
000000
000000
000000
000000
000000
000000
000000
000000
000000
000000
000000
000000
000000
000000
000000
000000
000000
ENDCHAR

STARTCHAR Ca1af
ENCODING 41391
SWIDTH 1000 0
DWIDTH 20 0
BBX 20 20 0 -4
BITMAP
000000
031800
031800
000000
000000
000000
000000
000000
000000
000000
000000
000000
000000
000000
000000
000000
000000
000000
000000
000000
ENDCHAR

STARTCHAR Ca1b0
ENCODING 41392
SWIDTH 1000 0
DWIDTH 20 0
BBX 20 20 0 -4
BITMAP
000000
006000
019800
000000
000000
000000
000000
000000
000000
000000
000000
000000
000000
000000
000000
000000
000000
000000
000000
000000
ENDCHAR

STARTCHAR Ca1b1
ENCODING 41393
SWIDTH 1000 0
DWIDTH 20 0
BBX 20 20 0 -4
BITMAP
000000
7FFFE0
000000
000000
000000
000000
000000
000000
000000
000000
000000
000000
000000
000000
000000
000000
000000
000000
000000
000000
ENDCHAR

STARTCHAR Ca1b2
ENCODING 41394
SWIDTH 1000 0
DWIDTH 20 0
BBX 20 20 0 -4
BITMAP
000000
000000
000000
000000
000000
000000
000000
000000
000000
000000
000000
000000
000000
000000
000000
000000
000000
000000
7FFFE0
000000
ENDCHAR

STARTCHAR Ca1b3
ENCODING 41395
SWIDTH 1000 0
DWIDTH 20 0
BBX 20 20 0 -4
BITMAP
000000
000000
000000
000000
000000
000000
020000
018000
004000
002000
001000
000800
000800
000000
000000
000000
000000
000000
000000
000000
ENDCHAR

STARTCHAR Ca1b4
ENCODING 41396
SWIDTH 1000 0
DWIDTH 20 0
BBX 20 20 0 -4
BITMAP
000000
000000
000000
000200
000900
000500
020400
018000
004000
002000
001000
000800
000800
000000
000000
000000
000000
000000
000000
000000
ENDCHAR

STARTCHAR Ca1b5
ENCODING 41397
SWIDTH 1000 0
DWIDTH 20 0
BBX 20 20 0 -4
BITMAP
000000
000000
000000
000000
020000
010000
010000
008000
004000
002000
001000
003800
00C800
010000
000000
000000
000000
000000
000000
000000
ENDCHAR

STARTCHAR Ca1b6
ENCODING 41398
SWIDTH 1000 0
DWIDTH 20 0
BBX 20 20 0 -4
BITMAP
000000
000000
000000
000200
020900
010500
010400
008000
004000
002000
001000
003800
00C800
010000
000000
000000
000000
000000
000000
000000
ENDCHAR

STARTCHAR Ca1b7
ENCODING 41399
SWIDTH 1000 0
DWIDTH 20 0
BBX 20 20 0 -4
BITMAP
000000
000000
000000
000000
000000
00CC00
00CC00
008800
011000
011000
011000
022000
022000
000000
000000
000000
000000
000000
000000
000000
ENDCHAR

STARTCHAR Ca1b8
ENCODING 41400
SWIDTH 1000 0
DWIDTH 20 0
BBX 20 20 0 -4
BITMAP
000000
004000
00C000
00A000
011000
020800
040400
080200
100580
6FFE60
004000
004000
004000
004000
004000
004100
3FFF80
000000
000000
000000
ENDCHAR

STARTCHAR Ca1b9
ENCODING 41401
SWIDTH 1000 0
DWIDTH 20 0
BBX 20 20 0 -4
BITMAP
000000
000000
000000
00C000
008000
008400
01FE00
010400
020400
020800
040800
081000
11A000
004000
002000
001000
000000
000000
000000
000000
ENDCHAR

STARTCHAR Ca1ba
ENCODING 41402
SWIDTH 1000 0
DWIDTH 20 0
BBX 20 20 0 -4
BITMAP
000000
000000
000400
000200
000400
000800
038800
045000
042000
085000
084800
088800
110000
110000
120000
140000
080000
000000
000000
000000
ENDCHAR

STARTCHAR Ca1bb
ENCODING 41403
SWIDTH 1000 0
DWIDTH 20 0
BBX 20 20 0 -4
BITMAP
000000
000000
01F000
060C00
080200
100100
100100
200080
200080
200080
200080
200080
100100
100100
080200
060C00
01F000
000000
000000
000000
ENDCHAR

STARTCHAR Ca1bc
ENCODING 41404
SWIDTH 1000 0
DWIDTH 20 0
BBX 20 20 0 -4
BITMAP
000000
000000
000000
000000
000000
000000
000000
000000
200080
1FFFC0
000000
000000
000000
000000
000000
000000
000000
000000
000000
000000
ENDCHAR

STARTCHAR Ca1bd
ENCODING 41405
SWIDTH 1000 0
DWIDTH 20 0
BBX 20 20 0 -4
BITMAP
000000
000000
000000
000000
000000
000000
000000
000000
000000
7FFFE0
000000
000000
000000
000000
000000
000000
000000
000000
000000
000000
ENDCHAR

STARTCHAR Ca1be
ENCODING 41406
SWIDTH 1000 0
DWIDTH 20 0
BBX 20 20 0 -4
BITMAP
000000
000000
000000
000000
000000
000000
000000
000000
000000
03F800
000000
000000
000000
000000
000000
000000
000000
000000
000000
000000
ENDCHAR

STARTCHAR Ca1bf
ENCODING 41407
SWIDTH 1000 0
DWIDTH 20 0
BBX 20 20 0 -4
BITMAP
000000
000020
000040
000080
000100
000200
000400
000800
001000
002000
004000
008000
010000
020000
040000
080000
100000
200000
400000
000000
ENDCHAR

STARTCHAR Ca1c0
ENCODING 41408
SWIDTH 1000 0
DWIDTH 20 0
BBX 20 20 0 -4
BITMAP
000000
400000
200000
100000
080000
040000
020000
010000
008000
004000
002000
001000
000800
000400
000200
000100
000080
000040
000020
000000
ENDCHAR

STARTCHAR Ca1c1
ENCODING 41409
SWIDTH 1000 0
DWIDTH 20 0
BBX 20 20 0 -4
BITMAP
000000
000000
000000
000000
000000
000000
000000
000000
078000
084080
102100
001E00
000000
000000
000000
000000
000000
000000
000000
000000
ENDCHAR

STARTCHAR Ca1c2
ENCODING 41410
SWIDTH 1000 0
DWIDTH 20 0
BBX 20 20 0 -4
BITMAP
000000
009000
009000
009000
009000
009000
009000
009000
009000
009000
009000
009000
009000
009000
009000
009000
009000
009000
009000
000000
ENDCHAR

STARTCHAR Ca1c3
ENCODING 41411
SWIDTH 1000 0
DWIDTH 20 0
BBX 20 20 0 -4
BITMAP
000000
004000
004000
004000
004000
004000
004000
004000
004000
004000
004000
004000
004000
004000
004000
004000
004000
004000
004000
000000
ENDCHAR

STARTCHAR Ca1c4
ENCODING 41412
SWIDTH 1000 0
DWIDTH 20 0
BBX 20 20 0 -4
BITMAP
000000
000000
000000
000000
000000
000000
000000
000000
000000
186180
186180
000000
000000
000000
000000
000000
000000
000000
000000
000000
ENDCHAR

STARTCHAR Ca1c5
ENCODING 41413
SWIDTH 1000 0
DWIDTH 20 0
BBX 20 20 0 -4
BITMAP
000000
000000
000000
000000
000000
000000
000000
000000
000000
060600
060600
000000
000000
000000
000000
000000
000000
000000
000000
000000
ENDCHAR

STARTCHAR Ca1c6
ENCODING 41414
SWIDTH 1000 0
DWIDTH 20 0
BBX 20 20 0 -4
BITMAP
000000
000060
000080
0000C0
0001E0
0000C0
000000
000000
000000
000000
000000
000000
000000
000000
000000
000000
000000
000000
000000
000000
ENDCHAR

STARTCHAR Ca1c7
ENCODING 41415
SWIDTH 1000 0
DWIDTH 20 0
BBX 20 20 0 -4
BITMAP
000000
300000
780000
300000
100000
600000
000000
000000
000000
000000
000000
000000
000000
000000
000000
000000
000000
000000
000000
000000
ENDCHAR

STARTCHAR Ca1c8
ENCODING 41416
SWIDTH 1000 0
DWIDTH 20 0
BBX 20 20 0 -4
BITMAP
000000
000C60
001080
0018C0
003DE0
0018C0
000000
000000
000000
000000
000000
000000
000000
000000
000000
000000
000000
000000
000000
000000
ENDCHAR

STARTCHAR Ca1c9
ENCODING 41417
SWIDTH 1000 0
DWIDTH 20 0
BBX 20 20 0 -4
BITMAP
000000
318000
7BC000
318000
108000
630000
000000
000000
000000
000000
000000
000000
000000
000000
000000
000000
000000
000000
000000
000000
ENDCHAR

STARTCHAR Ca1ca
ENCODING 41418
SWIDTH 1000 0
DWIDTH 20 0
BBX 20 20 0 -4
BITMAP
000000
000020
000040
000080
000080
000100
000100
000200
000200
000200
000200
000200
000200
000100
000100
000080
000080
000040
000020
000000
ENDCHAR

STARTCHAR Ca1cb
ENCODING 41419
SWIDTH 1000 0
DWIDTH 20 0
BBX 20 20 0 -4
BITMAP
000000
400000
200000
100000
100000
080000
080000
040000
040000
040000
040000
040000
040000
080000
080000
100000
100000
200000
400000
000000
ENDCHAR

STARTCHAR Ca1cc
ENCODING 41420
SWIDTH 1000 0
DWIDTH 20 0
BBX 20 20 0 -4
BITMAP
000000
000060
000180
000200
000200
000200
000200
000200
000200
000200
000200
000200
000200
000200
000200
000200
000200
000180
000060
000000
ENDCHAR

STARTCHAR Ca1cd
ENCODING 41421
SWIDTH 1000 0
DWIDTH 20 0
BBX 20 20 0 -4
BITMAP
000000
600000
180000
040000
040000
040000
040000
040000
040000
040000
040000
040000
040000
040000
040000
040000
040000
180000
600000
000000
ENDCHAR

STARTCHAR Ca1ce
ENCODING 41422
SWIDTH 1000 0
DWIDTH 20 0
BBX 20 20 0 -4
BITMAP
000000
0003E0
000200
000200
000200
000200
000200
000200
000200
000200
000200
000200
000200
000200
000200
000200
000200
000200
0003E0
000000
ENDCHAR

STARTCHAR Ca1cf
ENCODING 41423
SWIDTH 1000 0
DWIDTH 20 0
BBX 20 20 0 -4
BITMAP
000000
7C0000
040000
040000
040000
040000
040000
040000
040000
040000
040000
040000
040000
040000
040000
040000
040000
040000
7C0000
000000
ENDCHAR

STARTCHAR Ca1d0
ENCODING 41424
SWIDTH 1000 0
DWIDTH 20 0
BBX 20 20 0 -4
BITMAP
000000
000060
000080
000100
000100
000100
000100
000100
000200
000400
000200
000100
000100
000100
000100
000100
000100
000080
000060
000000
ENDCHAR

STARTCHAR Ca1d1
ENCODING 41425
SWIDTH 1000 0
DWIDTH 20 0
BBX 20 20 0 -4
BITMAP
000000
600000
100000
080000
080000
080000
080000
080000
040000
020000
040000
080000
080000
080000
080000
080000
080000
100000
600000
000000
ENDCHAR

STARTCHAR Ca1d2
ENCODING 41426
SWIDTH 1000 0
DWIDTH 20 0
BBX 20 20 0 -4
BITMAP
000000
000020
000040
000080
000100
000200
000400
000800
001000
002000
002000
001000
000800
000400
000200
000100
000080
000040
000020
000000
ENDCHAR

STARTCHAR Ca1d3
ENCODING 41427
SWIDTH 1000 0
DWIDTH 20 0
BBX 20 20 0 -4
BITMAP
000000
400000
200000
100000
080000
040000
020000
010000
008000
004000
004000
008000
010000
020000
040000
080000
100000
200000
400000
000000
ENDCHAR

STARTCHAR Ca1d4
ENCODING 41428
SWIDTH 1000 0
DWIDTH 20 0
BBX 20 20 0 -4
BITMAP
000000
000120
000240
000480
000900
001200
002400
004800
009000
012000
012000
009000
004800
002400
001200
000900
000480
000240
000120
000000
ENDCHAR

STARTCHAR Ca1d5
ENCODING 41429
SWIDTH 1000 0
DWIDTH 20 0
BBX 20 20 0 -4
BITMAP
000000
480000
240000
120000
090000
048000
024000
012000
009000
004800
004800
009000
012000
024000
048000
090000
120000
240000
480000
000000
ENDCHAR

STARTCHAR Ca1d6
ENCODING 41430
SWIDTH 1000 0
DWIDTH 20 0
BBX 20 20 0 -4
BITMAP
000000
0007E0
000400
000400
000400
000400
000400
000400
000400
000400
000400
000400
000400
000400
000400
000000
000000
000000
000000
000000
ENDCHAR

STARTCHAR Ca1d7
ENCODING 41431
SWIDTH 1000 0
DWIDTH 20 0
BBX 20 20 0 -4
BITMAP
000000
000000
000000
000000
000000
020000
020000
020000
020000
020000
020000
020000
020000
020000
020000
020000
020000
020000
7E0000
000000
ENDCHAR

STARTCHAR Ca1d8
ENCODING 41432
SWIDTH 1000 0
DWIDTH 20 0
BBX 20 20 0 -4
BITMAP
000000
001FE0
001020
001020
0013E0
001200
001200
001200
001200
001200
001200
001200
001200
001200
001E00
000000
000000
000000
000000
000000
ENDCHAR

STARTCHAR Ca1d9
ENCODING 41433
SWIDTH 1000 0
DWIDTH 20 0
BBX 20 20 0 -4
BITMAP
000000
000000
000000
000000
000000
078000
048000
048000
048000
048000
048000
048000
048000
048000
048000
7C8000
408000
408000
7F8000
000000
ENDCHAR

STARTCHAR Ca1da
ENCODING 41434
SWIDTH 1000 0
DWIDTH 20 0
BBX 20 20 0 -4
BITMAP
000000
0003E0
0003C0
0003C0
000380
000380
000380
000300
000300
000300
000300
000300
000300
000380
000380
000380
0003C0
0003C0
0003E0
000000
ENDCHAR

STARTCHAR Ca1db
ENCODING 41435
SWIDTH 1000 0
DWIDTH 20 0
BBX 20 20 0 -4
BITMAP
000000
7C0000
3C0000
3C0000
1C0000
1C0000
1C0000
0C0000
0C0000
0C0000
0C0000
0C0000
0C0000
1C0000
1C0000
1C0000
3C0000
3C0000
7C0000
000000
ENDCHAR

STARTCHAR Ca1dc
ENCODING 41436
SWIDTH 1000 0
DWIDTH 20 0
BBX 20 20 0 -4
BITMAP
000000
000000
000000
004000
004000
004000
004000
004000
004000
1FFF00
004000
004000
004000
004000
004000
004000
000000
000000
000000
000000
ENDCHAR

STARTCHAR Ca1dd
ENCODING 41437
SWIDTH 1000 0
DWIDTH 20 0
BBX 20 20 0 -4
BITMAP
000000
000000
000000
000000
000000
000000
000000
000000
000000
1FFF00
000000
000000
000000
000000
000000
000000
000000
000000
000000
000000
ENDCHAR

STARTCHAR Ca1de
ENCODING 41438
SWIDTH 1000 0
DWIDTH 20 0
BBX 20 20 0 -4
BITMAP
000000
000000
004000
004000
004000
004000
004000
1FFF00
004000
004000
004000
004000
004000
000000
000000
1FFF00
000000
000000
000000
000000
ENDCHAR

STARTCHAR Ca1df
ENCODING 41439
SWIDTH 1000 0
DWIDTH 20 0
BBX 20 20 0 -4
BITMAP
000000
000000
000000
000000
080200
040400
020800
011000
00A000
004000
00A000
011000
020800
040400
080200
000000
000000
000000
000000
000000
ENDCHAR

STARTCHAR Ca1e0
ENCODING 41440
SWIDTH 1000 0
DWIDTH 20 0
BBX 20 20 0 -4
BITMAP
000000
000000
000000
004000
00E000
004000
000000
000000
000000
3FFF80
000000
000000
000000
004000
00E000
004000
000000
000000
000000
000000
ENDCHAR

STARTCHAR Ca1e1
ENCODING 41441
SWIDTH 1000 0
DWIDTH 20 0
BBX 20 20 0 -4
BITMAP
000000
000000
000000
000000
000000
000000
000000
1FFF00
000000
000000
000000
1FFF00
000000
000000
000000
000000
000000
000000
000000
000000
ENDCHAR

STARTCHAR Ca1e2
ENCODING 41442
SWIDTH 1000 0
DWIDTH 20 0
BBX 20 20 0 -4
BITMAP
000000
000000
000000
000800
001000
001000
002000
1FFF00
002000
004000
008000
1FFF00
008000
010000
010000
020000
000000
000000
000000
000000
ENDCHAR

STARTCHAR Ca1e3
ENCODING 41443
SWIDTH 1000 0
DWIDTH 20 0
BBX 20 20 0 -4
BITMAP
000000
000060
000180
000600
001800
006000
018000
060000
180000
600000
180000
060000
018000
006000
001800
000600
000180
000060
000000
000000
ENDCHAR

STARTCHAR Ca1e4
ENCODING 41444
SWIDTH 1000 0
DWIDTH 20 0
BBX 20 20 0 -4
BITMAP
000000
600000
180000
060000
018000
006000
001800
000600
000180
000060
000180
000600
001800
006000
018000
060000
180000
600000
000000
000000
ENDCHAR

STARTCHAR Ca1e5
ENCODING 41445
SWIDTH 1000 0
DWIDTH 20 0
BBX 20 20 0 -4
BITMAP
000000
000180
000E00
003000
01C000
0E0000
300000
0E0000
01C000
003000
000E00
000180
000000
3FFF80
000000
000000
3FFF80
000000
000000
000000
ENDCHAR

STARTCHAR Ca1e6
ENCODING 41446
SWIDTH 1000 0
DWIDTH 20 0
BBX 20 20 0 -4
BITMAP
000000
300000
0E0000
018000
007000
000E00
000180
000E00
007000
018000
0E0000
300000
000000
3FFF80
000000
000000
3FFF80
000000
000000
000000
ENDCHAR

STARTCHAR Ca1e7
ENCODING 41447
SWIDTH 1000 0
DWIDTH 20 0
BBX 20 20 0 -4
BITMAP
000000
000000
000000
000000
000000
000000
0E0E00
111100
20A080
204080
20A080
111100
0E0E00
000000
000000
000000
000000
000000
000000
000000
ENDCHAR

STARTCHAR Ca1e8
ENCODING 41448
SWIDTH 1000 0
DWIDTH 20 0
BBX 20 20 0 -4
BITMAP
000000
000000
000000
004000
00E000
004000
000000
000000
000000
000000
000000
000000
080200
1C0700
080200
000000
000000
000000
000000
000000
ENDCHAR

STARTCHAR Ca1e9
ENCODING 41449
SWIDTH 1000 0
DWIDTH 20 0
BBX 20 20 0 -4
BITMAP
000000
000000
001FC0
0000C0
000140
000240
000440
000840
001040
002000
0F4000
108000
204000
204000
204000
204000
108000
0F0000
000000
000000
ENDCHAR

STARTCHAR Ca1ea
ENCODING 41450
SWIDTH 1000 0
DWIDTH 20 0
BBX 20 20 0 -4
BITMAP
000000
01F000
020800
040400
040400
040400
040400
020800
01F000
004000
004000
1FFF00
004000
004000
004000
004000
004000
004000
000000
000000
ENDCHAR

STARTCHAR Ca1eb
ENCODING 41451
SWIDTH 1000 0
DWIDTH 20 0
BBX 20 20 0 -4
BITMAP
000000
300000
480000
480000
300000
000000
000000
000000
000000
000000
000000
000000
000000
000000
000000
000000
000000
000000
000000
000000
ENDCHAR

STARTCHAR Ca1ec
ENCODING 41452
SWIDTH 1000 0
DWIDTH 20 0
BBX 20 20 0 -4
BITMAP
000000
300000
200000
200000
400000
400000
000000
000000
000000
000000
000000
000000
000000
000000
000000
000000
000000
000000
000000
000000
ENDCHAR

STARTCHAR Ca1ed
ENCODING 41453
SWIDTH 1000 0
DWIDTH 20 0
BBX 20 20 0 -4
BITMAP
000000
360000
240000
240000
480000
480000
000000
000000
000000
000000
000000
000000
000000
000000
000000
000000
000000
000000
000000
000000
ENDCHAR

STARTCHAR Ca1ee
ENCODING 41454
SWIDTH 1000 0
DWIDTH 20 0
BBX 20 20 0 -4
BITMAP
000000
300000
487200
498E00
320200
040200
040000
080000
080000
080000
080000
040100
040100
020200
018C00
007000
000000
000000
000000
000000
ENDCHAR

STARTCHAR Ca1ef
ENCODING 41455
SWIDTH 1000 0
DWIDTH 20 0
BBX 20 20 0 -4
BITMAP
000000
000000
1E0F00
040400
020800
020800
011000
1FFF00
00A000
00A000
1FFF00
004000
004000
004000
004000
01F000
000000
000000
000000
000000
ENDCHAR

STARTCHAR Ca1f0
ENCODING 41456
SWIDTH 1000 0
DWIDTH 20 0
BBX 20 20 0 -4
BITMAP
000000
004000
01F000
024800
044400
044C00
044000
024000
01C000
007800
004400
004200
064200
044200
024400
01F800
004000
004000
000000
000000
ENDCHAR

STARTCHAR Ca1f1
ENCODING 41457
SWIDTH 1000 0
DWIDTH 20 0
BBX 20 20 0 -4
BITMAP
000000
002000
002000
002000
03F000
044800
084400
084C00
084000
088000
088400
088400
048800
03F000
010000
010000
010000
000000
000000
000000
ENDCHAR

STARTCHAR Ca1f2
ENCODING 41458
SWIDTH 1000 0
DWIDTH 20 0
BBX 20 20 0 -4
BITMAP
000000
000000
007000
008800
010400
010C00
010000
010000
07F800
008000
008000
0F4000
10C100
104100
10A200
0F1C00
000000
000000
000000
000000
ENDCHAR

STARTCHAR Ca1f3
ENCODING 41459
SWIDTH 1000 0
DWIDTH 20 0
BBX 20 20 0 -4
BITMAP
000000
000100
0C0200
120400
210400
210800
211000
211000
122000
0C4300
004480
008840
010840
010840
020840
040480
040300
080000
000000
000000
ENDCHAR

STARTCHAR Ca1f4
ENCODING 41460
SWIDTH 1000 0
DWIDTH 20 0
BBX 20 20 0 -4
BITMAP
000000
000000
008800
008800
008800
008800
07FE00
011000
011000
011000
011000
011000
0FFC00
022000
022000
022000
022000
000000
000000
000000
ENDCHAR

STARTCHAR Ca1f5
ENCODING 41461
SWIDTH 1000 0
DWIDTH 20 0
BBX 20 20 0 -4
BITMAP
000000
000000
01E000
021000
040800
040800
040800
021000
016000
008000
034380
042100
081100
080A00
080400
041A40
03E180
000000
000000
000000
ENDCHAR

STARTCHAR Ca1f6
ENCODING 41462
SWIDTH 1000 0
DWIDTH 20 0
BBX 20 20 0 -4
BITMAP
000000
000000
000000
000000
004000
00E000
044400
0E4E00
055400
00E000
00E000
055400
0E4E00
044400
00E000
004000
000000
000000
000000
000000
ENDCHAR

STARTCHAR Ca1f7
ENCODING 41463
SWIDTH 1000 0
DWIDTH 20 0
BBX 20 20 0 -4
BITMAP
000000
000000
01F000
060C00
080200
10EA00
111100
211100
221100
222100
222100
222200
11DC00
100080
080100
060600
01F800
000000
000000
000000
ENDCHAR

STARTCHAR Ca1f8
ENCODING 41464
SWIDTH 1000 0
DWIDTH 20 0
BBX 20 20 0 -4
BITMAP
000000
00E000
011000
020800
021800
010000
00C000
012000
021000
020800
010800
009000
006000
001000
030800
020800
011000
00E000
000000
000000
ENDCHAR

STARTCHAR Ca1f9
ENCODING 41465
SWIDTH 1000 0
DWIDTH 20 0
BBX 20 20 0 -4
BITMAP
000000
000000
004000
004000
00A000
00A000
011000
7F1FC0
200080
180300
040400
020800
040400
044400
08A200
0B1A00
140500
180300
000000
000000
ENDCHAR

STARTCHAR Ca1fa
ENCODING 41466
SWIDTH 1000 0
DWIDTH 20 0
BBX 20 20 0 -4
BITMAP
000000
000000
004000
004000
00E000
00E000
01F000
7FFFC0
3FFF80
0FFE00
07FC00
03F800
07FC00
07FC00
0FBE00
0F1E00
1C0700
180300
000000
000000
ENDCHAR

STARTCHAR Ca1fb
ENCODING 41467
SWIDTH 1000 0
DWIDTH 20 0
BBX 20 20 0 -4
BITMAP
000000
000000
00F000
030C00
040200
080100
100080
100080
200040
200040
200040
200040
100080
100080
080100
040200
030C00
00F000
000000
000000
ENDCHAR

STARTCHAR Ca1fc
ENCODING 41468
SWIDTH 1000 0
DWIDTH 20 0
BBX 20 20 0 -4
BITMAP
000000
000000
00F000
03FC00
07FE00
0FFF00
1FFF80
1FFF80
3FFFC0
3FFFC0
3FFFC0
3FFFC0
1FFF80
1FFF80
0FFF00
07FE00
03FC00
00F000
000000
000000
ENDCHAR

STARTCHAR Ca1fd
ENCODING 41469
SWIDTH 1000 0
DWIDTH 20 0
BBX 20 20 0 -4
BITMAP
000000
000000
00F000
030C00
040200
080100
10F080
110880
220440
220440
220440
220440
110880
10F080
080100
040200
030C00
00F000
000000
000000
ENDCHAR

STARTCHAR Ca1fe
ENCODING 41470
SWIDTH 1000 0
DWIDTH 20 0
BBX 20 20 0 -4
BITMAP
000000
000000
006000
009000
010800
020400
040200
080100
100080
200040
200040
100080
080100
040200
020400
010800
009000
006000
000000
000000
ENDCHAR

STARTCHAR Ca2a1
ENCODING 41633
SWIDTH 1000 0
DWIDTH 20 0
BBX 20 20 0 -4
BITMAP
000000
000000
006000
00F000
01F800
03FC00
07FE00
0FFF00
1FFF80
3FFFC0
3FFFC0
1FFF80
0FFF00
07FE00
03FC00
01F800
00F000
006000
000000
000000
ENDCHAR

STARTCHAR Ca2a2
ENCODING 41634
SWIDTH 1000 0
DWIDTH 20 0
BBX 20 20 0 -4
BITMAP
000000
000000
000000
1FFF80
100080
100080
100080
100080
100080
100080
100080
100080
100080
100080
100080
100080
1FFF80
000000
000000
000000
ENDCHAR

STARTCHAR Ca2a3
ENCODING 41635
SWIDTH 1000 0
DWIDTH 20 0
BBX 20 20 0 -4
BITMAP
000000
000000
000000
1FFF80
1FFF80
1FFF80
1FFF80
1FFF80
1FFF80
1FFF80
1FFF80
1FFF80
1FFF80
1FFF80
1FFF80
1FFF80
1FFF80
000000
000000
000000
ENDCHAR

STARTCHAR Ca2a4
ENCODING 41636
SWIDTH 1000 0
DWIDTH 20 0
BBX 20 20 0 -4
BITMAP
000000
000000
004000
00A000
00A000
011000
011000
020800
020800
040400
040400
080200
080200
100100
100100
200080
3FFF80
000000
000000
000000
ENDCHAR

STARTCHAR Ca2a5
ENCODING 41637
SWIDTH 1000 0
DWIDTH 20 0
BBX 20 20 0 -4
BITMAP
000000
000000
004000
00E000
00E000
01F000
01F000
03F800
03F800
07FC00
07FC00
0FFE00
0FFE00
1FFF00
1FFF00
3FFF80
3FFF80
000000
000000
000000
ENDCHAR

STARTCHAR Ca2a6
ENCODING 41638
SWIDTH 1000 0
DWIDTH 20 0
BBX 20 20 0 -4
BITMAP
000000
000000
3FFF80
200080
100100
100100
080200
080200
040400
040400
020800
020800
011000
011000
00A000
00A000
004000
000000
000000
000000
ENDCHAR

STARTCHAR Ca2a7
ENCODING 41639
SWIDTH 1000 0
DWIDTH 20 0
BBX 20 20 0 -4
BITMAP
000000
000000
3FFF80
3FFF80
1FFF00
1FFF00
0FFE00
0FFE00
07FC00
07FC00
03F800
03F800
01F000
01F000
00E000
00E000
004000
000000
000000
000000
ENDCHAR

STARTCHAR Ca2a8
ENCODING 41640
SWIDTH 1000 0
DWIDTH 20 0
BBX 20 20 0 -4
BITMAP
000000
000000
204080
10E100
084200
040400
020800
011000
10A100
384380
10A100
011000
020800
040400
084200
10E100
204080
000000
000000
000000
ENDCHAR

STARTCHAR Ca2a9
ENCODING 41641
SWIDTH 1000 0
DWIDTH 20 0
BBX 20 20 0 -4
BITMAP
000000
000000
0FFF00
0FFF00
000000
000000
000000
0FFF00
0FFF00
006000
006000
006000
006000
006000
006000
006000
006000
000000
000000
000000
ENDCHAR

STARTCHAR Ca2aa
ENCODING 41642
SWIDTH 1000 0
DWIDTH 20 0
BBX 20 20 0 -4
BITMAP
000000
000000
000000
000000
000000
000000
000200
000100
000080
7FFFC0
000080
000100
000200
000000
000000
000000
000000
000000
000000
000000
ENDCHAR

STARTCHAR Ca2ab
ENCODING 41643
SWIDTH 1000 0
DWIDTH 20 0
BBX 20 20 0 -4
BITMAP
000000
000000
000000
000000
000000
000000
080000
100000
200000
7FFFC0
200000
100000
080000
000000
000000
000000
000000
000000
000000
000000
ENDCHAR

STARTCHAR Ca2ac
ENCODING 41644
SWIDTH 1000 0
DWIDTH 20 0
BBX 20 20 0 -4
BITMAP
000000
004000
00E000
015000
024800
004000
004000
004000
004000
004000
004000
004000
004000
004000
004000
004000
004000
004000
000000
000000
ENDCHAR

STARTCHAR Ca2ad
ENCODING 41645
SWIDTH 1000 0
DWIDTH 20 0
BBX 20 20 0 -4
BITMAP
000000
004000
004000
004000
004000
004000
004000
004000
004000
004000
004000
004000
004000
004000
024800
015000
00E000
004000
000000
000000
ENDCHAR

STARTCHAR Ca2ae
ENCODING 41646
SWIDTH 1000 0
DWIDTH 20 0
BBX 20 20 0 -4
BITMAP
000000
000000
000000
000000
000000
000000
0FFE00
0FFE00
000000
000000
000000
0FFE00
0FFE00
000000
000000
000000
000000
000000
000000
000000
ENDCHAR

STARTCHAR Ca2af
ENCODING 41647
SWIDTH 1000 0
DWIDTH 20 0
BBX 20 20 0 -4
BITMAP
000000
000000
000000
000000
000000
000000
000000
000000
000000
000000
000000
000000
000000
000000
000000
000000
000000
000000
000000
000000
ENDCHAR

STARTCHAR Ca2b0
ENCODING 41648
SWIDTH 1000 0
DWIDTH 20 0
BBX 20 20 0 -4
BITMAP
000000
000000
000000
000000
000000
000000
000000
000000
000000
000000
000000
000000
000000
000000
000000
000000
000000
000000
000000
000000
ENDCHAR

STARTCHAR Ca2b1
ENCODING 41649
SWIDTH 1000 0
DWIDTH 20 0
BBX 20 20 0 -4
BITMAP
000000
000000
000000
000000
000000
000000
000000
000000
000000
000000
000000
000000
000000
000000
000000
000000
000000
000000
000000
000000
ENDCHAR

STARTCHAR Ca2b2
ENCODING 41650
SWIDTH 1000 0
DWIDTH 20 0
BBX 20 20 0 -4
BITMAP
000000
000000
000000
000000
000000
000000
000000
000000
000000
000000
000000
000000
000000
000000
000000
000000
000000
000000
000000
000000
ENDCHAR

STARTCHAR Ca2b3
ENCODING 41651
SWIDTH 1000 0
DWIDTH 20 0
BBX 20 20 0 -4
BITMAP
000000
000000
000000
000000
000000
000000
000000
000000
000000
000000
000000
000000
000000
000000
000000
000000
000000
000000
000000
000000
ENDCHAR

STARTCHAR Ca2b4
ENCODING 41652
SWIDTH 1000 0
DWIDTH 20 0
BBX 20 20 0 -4
BITMAP
000000
000000
000000
000000
000000
000000
000000
000000
000000
000000
000000
000000
000000
000000
000000
000000
000000
000000
000000
000000
ENDCHAR

STARTCHAR Ca2b5
ENCODING 41653
SWIDTH 1000 0
DWIDTH 20 0
BBX 20 20 0 -4
BITMAP
000000
000000
000000
000000
000000
000000
000000
000000
000000
000000
000000
000000
000000
000000
000000
000000
000000
000000
000000
000000
ENDCHAR

STARTCHAR Ca2b6
ENCODING 41654
SWIDTH 1000 0
DWIDTH 20 0
BBX 20 20 0 -4
BITMAP
000000
000000
000000
000000
000000
000000
000000
000000
000000
000000
000000
000000
000000
000000
000000
000000
000000
000000
000000
000000
ENDCHAR

STARTCHAR Ca2b7
ENCODING 41655
SWIDTH 1000 0
DWIDTH 20 0
BBX 20 20 0 -4
BITMAP
000000
000000
000000
000000
000000
000000
000000
000000
000000
000000
000000
000000
000000
000000
000000
000000
000000
000000
000000
000000
ENDCHAR

STARTCHAR Ca2b8
ENCODING 41656
SWIDTH 1000 0
DWIDTH 20 0
BBX 20 20 0 -4
BITMAP
000000
000000
000000
000000
000000
000000
000000
000000
000000
000000
000000
000000
000000
000000
000000
000000
000000
000000
000000
000000
ENDCHAR

STARTCHAR Ca2b9
ENCODING 41657
SWIDTH 1000 0
DWIDTH 20 0
BBX 20 20 0 -4
BITMAP
000000
000000
000000
000000
000000
000000
000000
000000
000000
000000
000000
000000
000000
000000
000000
000000
000000
000000
000000
000000
ENDCHAR

STARTCHAR Ca2ba
ENCODING 41658
SWIDTH 1000 0
DWIDTH 20 0
BBX 20 20 0 -4
BITMAP
000000
000000
03FFC0
0C0000
100000
200000
200000
400000
400000
7FFFC0
400000
400000
200000
200000
100000
0C0000
03FFC0
000000
000000
000000
ENDCHAR

STARTCHAR Ca2bb
ENCODING 41659
SWIDTH 1000 0
DWIDTH 20 0
BBX 20 20 0 -4
BITMAP
000000
000000
7FF800
000600
000100
000080
000080
000040
000040
7FFFC0
000040
000040
000080
000080
000100
000600
7FF800
000000
000000
000000
ENDCHAR

STARTCHAR Ca2bc
ENCODING 41660
SWIDTH 1000 0
DWIDTH 20 0
BBX 20 20 0 -4
BITMAP
000000
000000
07FFC0
180000
200000
200000
400000
400000
400000
200000
200000
180000
07FFC0
000000
000000
000000
7FFFC0
000000
000000
000000
ENDCHAR

STARTCHAR Ca2bd
ENCODING 41661
SWIDTH 1000 0
DWIDTH 20 0
BBX 20 20 0 -4
BITMAP
000000
000000
7FFC00
000300
000080
000080
000040
000040
000040
000080
000080
000300
7FFC00
000000
000000
000000
7FFFC0
000000
000000
000000
ENDCHAR

STARTCHAR Ca2be
ENCODING 41662
SWIDTH 1000 0
DWIDTH 20 0
BBX 20 20 0 -4
BITMAP
000000
000000
000000
03FFC0
0C0000
100000
200000
200000
400000
400000
400000
400000
200000
200000
100000
0C0000
03FFC0
000000
000000
000000
ENDCHAR

STARTCHAR Ca2bf
ENCODING 41663
SWIDTH 1000 0
DWIDTH 20 0
BBX 20 20 0 -4
BITMAP
000000
000000
000000
7FF800
000600
000100
000080
000080
000040
000040
000040
000040
000080
000080
000100
000600
7FF800
000000
000000
000000
ENDCHAR

STARTCHAR Ca2c0
ENCODING 41664
SWIDTH 1000 0
DWIDTH 20 0
BBX 20 20 0 -4
BITMAP
000000
000000
100080
100080
100080
100080
100080
100080
100080
100080
100080
100080
100080
100080
080100
080100
040200
030C00
00F000
000000
ENDCHAR

STARTCHAR Ca2c1
ENCODING 41665
SWIDTH 1000 0
DWIDTH 20 0
BBX 20 20 0 -4
BITMAP
000000
00F000
030C00
040200
080100
080100
100080
100080
100080
100080
100080
100080
100080
100080
100080
100080
100080
100080
000000
000000
ENDCHAR

STARTCHAR Ca2c2
ENCODING 41666
SWIDTH 1000 0
DWIDTH 20 0
BBX 20 20 0 -4
BITMAP
000000
000000
000000
000000
000000
000000
000000
000000
000000
000000
000000
000000
000000
000000
000000
000000
000000
000000
000000
000000
ENDCHAR

STARTCHAR Ca2c3
ENCODING 41667
SWIDTH 1000 0
DWIDTH 20 0
BBX 20 20 0 -4
BITMAP
000000
000000
000000
000000
000000
000000
000000
000000
000000
000000
000000
000000
000000
000000
000000
000000
000000
000000
000000
000000
ENDCHAR

STARTCHAR Ca2c4
ENCODING 41668
SWIDTH 1000 0
DWIDTH 20 0
BBX 20 20 0 -4
BITMAP
000000
000000
000000
000000
000000
000000
000000
000000
000000
000000
000000
000000
000000
000000
000000
000000
000000
000000
000000
000000
ENDCHAR

STARTCHAR Ca2c5
ENCODING 41669
SWIDTH 1000 0
DWIDTH 20 0
BBX 20 20 0 -4
BITMAP
000000
000000
000000
000000
000000
000000
000000
000000
000000
000000
000000
000000
000000
000000
000000
000000
000000
000000
000000
000000
ENDCHAR

STARTCHAR Ca2c6
ENCODING 41670
SWIDTH 1000 0
DWIDTH 20 0
BBX 20 20 0 -4
BITMAP
000000
000000
000000
000000
000000
000000
000000
000000
000000
000000
000000
000000
000000
000000
000000
000000
000000
000000
000000
000000
ENDCHAR

STARTCHAR Ca2c7
ENCODING 41671
SWIDTH 1000 0
DWIDTH 20 0
BBX 20 20 0 -4
BITMAP
000000
000000
000000
000000
000000
000000
000000
000000
000000
000000
000000
000000
000000
000000
000000
000000
000000
000000
000000
000000
ENDCHAR

STARTCHAR Ca2c8
ENCODING 41672
SWIDTH 1000 0
DWIDTH 20 0
BBX 20 20 0 -4
BITMAP
000000
000000
000000
000000
000000
000000
000000
000000
000000
000000
000000
000000
000000
000000
000000
000000
000000
000000
000000
000000
ENDCHAR

STARTCHAR Ca2c9
ENCODING 41673
SWIDTH 1000 0
DWIDTH 20 0
BBX 20 20 0 -4
BITMAP
000000
000000
000000
000000
000000
000000
000000
000000
000000
000000
000000
000000
000000
000000
000000
000000
000000
000000
000000
000000
ENDCHAR

STARTCHAR Ca2ca
ENCODING 41674
SWIDTH 1000 0
DWIDTH 20 0
BBX 20 20 0 -4
BITMAP
000000
004000
00A000
00A000
011000
011000
020800
020800
040400
040400
080200
080200
100100
100100
200080
200080
400040
400040
000000
000000
ENDCHAR

STARTCHAR Ca2cb
ENCODING 41675
SWIDTH 1000 0
DWIDTH 20 0
BBX 20 20 0 -4
BITMAP
000000
400040
400040
200080
200080
100100
100100
080200
080200
040400
040400
020800
020800
011000
011000
00A000
00A000
004000
000000
000000
ENDCHAR

STARTCHAR Ca2cc
ENCODING 41676
SWIDTH 1000 0
DWIDTH 20 0
BBX 20 20 0 -4
BITMAP
000000
000000
000000
000000
000000
000000
000000
000000
000000
7FFFC0
000040
000040
000040
000040
000040
000040
000040
000000
000000
000000
ENDCHAR

STARTCHAR Ca2cd
ENCODING 41677
SWIDTH 1000 0
DWIDTH 20 0
BBX 20 20 0 -4
BITMAP
000000
000000
000000
000000
000800
000400
000200
7FFF00
000080
000040
000080
7FFF00
000200
000400
000800
000000
000000
000000
000000
000000
ENDCHAR

STARTCHAR Ca2ce
ENCODING 41678
SWIDTH 1000 0
DWIDTH 20 0
BBX 20 20 0 -4
BITMAP
000000
000000
000000
000000
000000
040400
080200
1FFF00
200080
400040
200080
1FFF00
080200
040400
000000
000000
000000
000000
000000
000000
ENDCHAR

STARTCHAR Ca2cf
ENCODING 41679
SWIDTH 1000 0
DWIDTH 20 0
BBX 20 20 0 -4
BITMAP
000000
400040
400040
200080
200080
100100
100100
0FFE00
080200
040400
040400
020800
020800
011000
011000
00A000
00A000
004000
000000
000000
ENDCHAR

STARTCHAR Ca2d0
ENCODING 41680
SWIDTH 1000 0
DWIDTH 20 0
BBX 20 20 0 -4
BITMAP
000000
000000
1FFE00
000200
000200
000200
000200
000200
000200
1FFE00
000200
000200
000200
000200
000200
000200
1FFE00
000000
000000
000000
ENDCHAR

STARTCHAR Ca2d1
ENCODING 41681
SWIDTH 1000 0
DWIDTH 20 0
BBX 20 20 0 -4
BITMAP
000000
000000
000000
000000
000000
000000
000000
000000
000000
000000
000000
000000
000000
000000
000000
000000
000000
000000
000000
000000
ENDCHAR

STARTCHAR Ca2d2
ENCODING 41682
SWIDTH 1000 0
DWIDTH 20 0
BBX 20 20 0 -4
BITMAP
000000
000000
000000
000000
000000
000000
000000
000000
000000
000000
000000
000000
000000
000000
000000
000000
000000
000000
000000
000000
ENDCHAR

STARTCHAR Ca2d3
ENCODING 41683
SWIDTH 1000 0
DWIDTH 20 0
BBX 20 20 0 -4
BITMAP
000000
000000
000000
000000
000000
000000
000000
000000
000000
000000
000000
000000
000000
000000
000000
000000
000000
000000
000000
000000
ENDCHAR

STARTCHAR Ca2d4
ENCODING 41684
SWIDTH 1000 0
DWIDTH 20 0
BBX 20 20 0 -4
BITMAP
000000
000000
000000
000000
000000
000000
000000
000000
000000
000000
000000
000000
000000
000000
000000
000000
000000
000000
000000
000000
ENDCHAR

STARTCHAR Ca2d5
ENCODING 41685
SWIDTH 1000 0
DWIDTH 20 0
BBX 20 20 0 -4
BITMAP
000000
000000
000000
000000
000000
000000
000000
000000
000000
000000
000000
000000
000000
000000
000000
000000
000000
000000
000000
000000
ENDCHAR

STARTCHAR Ca2d6
ENCODING 41686
SWIDTH 1000 0
DWIDTH 20 0
BBX 20 20 0 -4
BITMAP
000000
000000
000000
000000
000000
000000
000000
000000
000000
000000
000000
000000
000000
000000
000000
000000
000000
000000
000000
000000
ENDCHAR

STARTCHAR Ca2d7
ENCODING 41687
SWIDTH 1000 0
DWIDTH 20 0
BBX 20 20 0 -4
BITMAP
000000
000000
000000
000000
000000
000000
000000
000000
000000
000000
000000
000000
000000
000000
000000
000000
000000
000000
000000
000000
ENDCHAR

STARTCHAR Ca2d8
ENCODING 41688
SWIDTH 1000 0
DWIDTH 20 0
BBX 20 20 0 -4
BITMAP
000000
000000
000000
000000
000000
000000
000000
000000
000000
000000
000000
000000
000000
000000
000000
000000
000000
000000
000000
000000
ENDCHAR

STARTCHAR Ca2d9
ENCODING 41689
SWIDTH 1000 0
DWIDTH 20 0
BBX 20 20 0 -4
BITMAP
000000
000000
000000
000000
000000
000000
000000
000000
000000
000000
000000
000000
000000
000000
000000
000000
000000
000000
000000
000000
ENDCHAR

STARTCHAR Ca2da
ENCODING 41690
SWIDTH 1000 0
DWIDTH 20 0
BBX 20 20 0 -4
BITMAP
000000
000000
000000
000000
000000
000000
000000
000000
000000
000000
000000
000000
000000
000000
000000
000000
000000
000000
000000
000000
ENDCHAR

STARTCHAR Ca2db
ENCODING 41691
SWIDTH 1000 0
DWIDTH 20 0
BBX 20 20 0 -4
BITMAP
000000
000000
000000
000000
000000
000000
000000
000000
000000
000000
000000
000000
000000
000000
000000
000000
000000
000000
000000
000000
ENDCHAR

STARTCHAR Ca2dc
ENCODING 41692
SWIDTH 1000 0
DWIDTH 20 0
BBX 20 20 0 -4
BITMAP
000000
000000
000080
000100
000200
000400
000800
001000
002000
004000
008000
010000
020000
040000
080000
100000
3FFF80
000000
000000
000000
ENDCHAR

STARTCHAR Ca2dd
ENCODING 41693
SWIDTH 1000 0
DWIDTH 20 0
BBX 20 20 0 -4
BITMAP
000000
000000
004000
004000
004000
004000
004000
004000
004000
004000
004000
004000
004000
004000
004000
004000
7FFFC0
000000
000000
000000
ENDCHAR

STARTCHAR Ca2de
ENCODING 41694
SWIDTH 1000 0
DWIDTH 20 0
BBX 20 20 0 -4
BITMAP
000000
01F800
060600
180180
200040
400020
000000
000000
000000
000000
000000
000000
000000
000000
000000
000000
000000
000000
000000
000000
ENDCHAR

STARTCHAR Ca2df
ENCODING 41695
SWIDTH 1000 0
DWIDTH 20 0
BBX 20 20 0 -4
BITMAP
000000
000000
003800
00C400
010200
000200
000200
000200
007200
018A00
020400
020400
040400
040800
040800
041000
022000
01C000
000000
000000
ENDCHAR

STARTCHAR Ca2e0
ENCODING 41696
SWIDTH 1000 0
DWIDTH 20 0
BBX 20 20 0 -4
BITMAP
000000
000000
3FFF80
200080
100100
100100
080200
080200
040400
040400
020800
020800
011000
011000
00A000
00A000
004000
004000
000000
000000
ENDCHAR

STARTCHAR Ca2e1
ENCODING 41697
SWIDTH 1000 0
DWIDTH 20 0
BBX 20 20 0 -4
BITMAP
000000
000000
000000
000000
000000
3FFF80
000000
000000
000000
3FFF80
000000
000000
000000
3FFF80
000000
000000
000000
000000
000000
000000
ENDCHAR

STARTCHAR Ca2e2
ENCODING 41698
SWIDTH 1000 0
DWIDTH 20 0
BBX 20 20 0 -4
BITMAP
000000
000000
000000
020000
070000
020000
000000
1FFF80
000000
000000
000000
1FFF80
000000
000400
000E00
000400
000000
000000
000000
000000
ENDCHAR

STARTCHAR Ca2e3
ENCODING 41699
SWIDTH 1000 0
DWIDTH 20 0
BBX 20 20 0 -4
BITMAP
000000
000220
000440
000880
001100
002200
004400
008800
011000
022000
022000
011000
008800
004400
002200
001100
000880
000440
000220
000000
ENDCHAR

STARTCHAR Ca2e4
ENCODING 41700
SWIDTH 1000 0
DWIDTH 20 0
BBX 20 20 0 -4
BITMAP
000000
440000
220000
110000
088000
044000
022000
011000
008800
004400
004400
008800
011000
022000
044000
088000
110000
220000
440000
000000
ENDCHAR

STARTCHAR Ca2e5
ENCODING 41701
SWIDTH 1000 0
DWIDTH 20 0
BBX 20 20 0 -4
BITMAP
000000
001FE0
001000
001000
002000
002000
002000
002000
004000
104000
104000
108000
288000
288000
290000
450000
450000
020000
020000
000000
ENDCHAR

STARTCHAR Ca2e6
ENCODING 41702
SWIDTH 1000 0
DWIDTH 20 0
BBX 20 20 0 -4
BITMAP
000000
000000
000000
000000
000000
000000
0E0E00
111100
202080
204080
208080
111100
0E0E00
000000
000000
000000
000000
000000
000000
000000
ENDCHAR

STARTCHAR Ca2e7
ENCODING 41703
SWIDTH 1000 0
DWIDTH 20 0
BBX 20 20 0 -4
BITMAP
000000
000000
000000
000000
000000
000000
0E0F00
111080
20A000
204000
20A000
111080
0E0F00
000000
000000
000000
000000
000000
000000
000000
ENDCHAR

STARTCHAR Ca2e8
ENCODING 41704
SWIDTH 1000 0
DWIDTH 20 0
BBX 20 20 0 -4
BITMAP
000000
000000
000000
000000
080200
1C0700
080200
000000
000000
000000
000000
000000
000000
004000
00E000
004000
000000
000000
000000
000000
ENDCHAR

STARTCHAR Ca2e9
ENCODING 41705
SWIDTH 1000 0
DWIDTH 20 0
BBX 20 20 0 -4
BITMAP
000000
000C00
001200
001200
002000
002000
002000
002000
002000
006000
006000
004000
004000
004000
004000
048000
048000
030000
000000
000000
ENDCHAR

STARTCHAR Ca2ea
ENCODING 41706
SWIDTH 1000 0
DWIDTH 20 0
BBX 20 20 0 -4
BITMAP
000000
006300
009480
008480
010800
010800
010800
010800
010800
031800
031800
021000
021000
021000
021000
242000
252000
18C000
000000
000000
ENDCHAR

STARTCHAR Ca2eb
ENCODING 41707
SWIDTH 1000 0
DWIDTH 20 0
BBX 20 20 0 -4
BITMAP
000000
000000
000000
000000
000000
000000
000000
000000
000000
000000
000000
000000
000000
000000
000000
000000
000000
000000
000000
000000
ENDCHAR

STARTCHAR Ca2ec
ENCODING 41708
SWIDTH 1000 0
DWIDTH 20 0
BBX 20 20 0 -4
BITMAP
000000
000000
000000
000000
000000
000000
000000
000000
000000
000000
000000
000000
000000
000000
000000
000000
000000
000000
000000
000000
ENDCHAR

STARTCHAR Ca2ed
ENCODING 41709
SWIDTH 1000 0
DWIDTH 20 0
BBX 20 20 0 -4
BITMAP
000000
000000
000000
000000
000000
000000
000000
000000
000000
000000
000000
000000
000000
000000
000000
000000
000000
000000
000000
000000
ENDCHAR

STARTCHAR Ca2ee
ENCODING 41710
SWIDTH 1000 0
DWIDTH 20 0
BBX 20 20 0 -4
BITMAP
000000
000000
000000
000000
000000
000000
000000
000000
000000
000000
000000
000000
000000
000000
000000
000000
000000
000000
000000
000000
ENDCHAR

STARTCHAR Ca2ef
ENCODING 41711
SWIDTH 1000 0
DWIDTH 20 0
BBX 20 20 0 -4
BITMAP
000000
000000
000000
000000
000000
000000
000000
000000
000000
000000
000000
000000
000000
000000
000000
000000
000000
000000
000000
000000
ENDCHAR

STARTCHAR Ca2f0
ENCODING 41712
SWIDTH 1000 0
DWIDTH 20 0
BBX 20 20 0 -4
BITMAP
000000
000000
000000
000000
000000
000000
000000
000000
000000
000000
000000
000000
000000
000000
000000
000000
000000
000000
000000
000000
ENDCHAR

STARTCHAR Ca2f1
ENCODING 41713
SWIDTH 1000 0
DWIDTH 20 0
BBX 20 20 0 -4
BITMAP
000000
000000
000000
000000
000000
000000
000000
000000
000000
000000
000000
000000
000000
000000
000000
000000
000000
000000
000000
000000
ENDCHAR

STARTCHAR Ca2f2
ENCODING 41714
SWIDTH 1000 0
DWIDTH 20 0
BBX 20 20 0 -4
BITMAP
000000
00E000
011000
00E000
004000
00A000
00A000
011000
011000
020800
020800
07FC00
040400
080200
080200
3C0780
000000
000000
000000
000000
ENDCHAR

STARTCHAR Ca2f3
ENCODING 41715
SWIDTH 1000 0
DWIDTH 20 0
BBX 20 20 0 -4
BITMAP
000000
001000
182000
242000
244000
244000
248000
248000
190000
010000
026300
049480
049480
089480
089480
109480
106300
200000
000000
000000
ENDCHAR

STARTCHAR Ca2f4
ENCODING 41716
SWIDTH 1000 0
DWIDTH 20 0
BBX 20 20 0 -4
BITMAP
000000
000000
011000
011000
011000
011E00
01F000
0F1000
011000
011000
011000
011E00
01F000
0F1000
011000
011000
011000
011000
000000
000000
ENDCHAR

STARTCHAR Ca2f5
ENCODING 41717
SWIDTH 1000 0
DWIDTH 20 0
BBX 20 20 0 -4
BITMAP
000000
000000
020000
020000
020000
020000
020000
020000
02F000
030800
020400
020400
020400
020800
021000
026000
038000
020000
000000
000000
ENDCHAR

STARTCHAR Ca2f6
ENCODING 41718
SWIDTH 1000 0
DWIDTH 20 0
BBX 20 20 0 -4
BITMAP
000000
000000
004000
006000
005800
004400
004200
004100
004100
004100
004200
004400
004800
004000
01C000
03C000
078000
030000
000000
000000
ENDCHAR

STARTCHAR Ca2f7
ENCODING 41719
SWIDTH 1000 0
DWIDTH 20 0
BBX 20 20 0 -4
BITMAP
000000
004000
00E000
004000
024800
07FC00
024800
004000
00E000
004000
004000
004000
004000
004000
004000
004000
004000
004000
000000
000000
ENDCHAR

STARTCHAR Ca2f8
ENCODING 41720
SWIDTH 1000 0
DWIDTH 20 0
BBX 20 20 0 -4
BITMAP
000000
004000
00E000
004000
024800
07FC00
024800
004000
00E000
004000
00E000
004000
024800
07FC00
024800
004000
00E000
004000
000000
000000
ENDCHAR

STARTCHAR Ca2f9
ENCODING 41721
SWIDTH 1000 0
DWIDTH 20 0
BBX 20 20 0 -4
BITMAP
000000
03F800
078800
0F8800
0F8800
0F8800
0F8800
078800
038800
008800
008800
008800
008800
008800
008800
008800
008800
008800
000000
000000
ENDCHAR

STARTCHAR Ca2fa
ENCODING 41722
SWIDTH 1000 0
DWIDTH 20 0
BBX 20 20 0 -4
BITMAP
000000
000000
000000
000000
000000
000000
000000
000000
000000
000000
000000
000000
000000
000000
000000
000000
000000
000000
000000
000000
ENDCHAR

STARTCHAR Ca2fb
ENCODING 41723
SWIDTH 1000 0
DWIDTH 20 0
BBX 20 20 0 -4
BITMAP
000000
000000
000000
000000
000000
000000
000000
000000
000000
000000
000000
000000
000000
000000
000000
000000
000000
000000
000000
000000
ENDCHAR

STARTCHAR Ca2fc
ENCODING 41724
SWIDTH 1000 0
DWIDTH 20 0
BBX 20 20 0 -4
BITMAP
000000
000000
000000
000000
000000
000000
000000
000000
000000
000000
000000
000000
000000
000000
000000
000000
000000
000000
000000
000000
ENDCHAR

STARTCHAR Ca2fd
ENCODING 41725
SWIDTH 1000 0
DWIDTH 20 0
BBX 20 20 0 -4
BITMAP
000000
000000
000000
000000
000000
000000
000000
000000
000000
000000
000000
000000
000000
000000
000000
000000
000000
000000
000000
000000
ENDCHAR

STARTCHAR Ca2fe
ENCODING 41726
SWIDTH 1000 0
DWIDTH 20 0
BBX 20 20 0 -4
BITMAP
000000
01F800
060600
080100
100080
200040
200040
400020
400020
400020
400020
400020
400020
200040
200040
100080
080100
060600
01F800
000000
ENDCHAR

STARTCHAR Ca3a2
ENCODING 41890
SWIDTH 1000 0
DWIDTH 20 0
BBX 20 20 0 -4
BITMAP
000000
000000
000000
000000
000000
000000
000000
000000
000000
000000
000000
000000
000000
000000
000000
000000
000000
000000
000000
000000
ENDCHAR

STARTCHAR Ca3a3
ENCODING 41891
SWIDTH 1000 0
DWIDTH 20 0
BBX 20 20 0 -4
BITMAP
000000
000000
000000
000000
000000
000000
000000
000000
000000
000000
000000
000000
000000
000000
000000
000000
000000
000000
000000
000000
ENDCHAR

STARTCHAR Ca3a4
ENCODING 41892
SWIDTH 1000 0
DWIDTH 20 0
BBX 20 20 0 -4
BITMAP
000000
000000
000000
000000
000000
000000
000000
000000
000000
000000
000000
000000
000000
000000
000000
000000
000000
000000
000000
000000
ENDCHAR

STARTCHAR Ca3a5
ENCODING 41893
SWIDTH 1000 0
DWIDTH 20 0
BBX 20 20 0 -4
BITMAP
000000
000000
000000
000000
000000
000000
000000
000000
000000
000000
000000
000000
000000
000000
000000
000000
000000
000000
000000
000000
ENDCHAR

STARTCHAR Ca3a6
ENCODING 41894
SWIDTH 1000 0
DWIDTH 20 0
BBX 20 20 0 -4
BITMAP
000000
000000
000000
000000
000000
000000
000000
000000
000000
000000
000000
000000
000000
000000
000000
000000
000000
000000
000000
000000
ENDCHAR

STARTCHAR Ca3a7
ENCODING 41895
SWIDTH 1000 0
DWIDTH 20 0
BBX 20 20 0 -4
BITMAP
000000
000000
000000
000000
000000
000000
000000
000000
000000
000000
000000
000000
000000
000000
000000
000000
000000
000000
000000
000000
ENDCHAR

STARTCHAR Ca3a8
ENCODING 41896
SWIDTH 1000 0
DWIDTH 20 0
BBX 20 20 0 -4
BITMAP
000000
000000
000000
000000
000000
000000
000000
000000
000000
000000
000000
000000
000000
000000
000000
000000
000000
000000
000000
000000
ENDCHAR

STARTCHAR Ca3a9
ENCODING 41897
SWIDTH 1000 0
DWIDTH 20 0
BBX 20 20 0 -4
BITMAP
000000
000000
000000
000000
000000
000000
000000
000000
000000
000000
000000
000000
000000
000000
000000
000000
000000
000000
000000
000000
ENDCHAR

STARTCHAR Ca3aa
ENCODING 41898
SWIDTH 1000 0
DWIDTH 20 0
BBX 20 20 0 -4
BITMAP
000000
000000
000000
000000
000000
000000
000000
000000
000000
000000
000000
000000
000000
000000
000000
000000
000000
000000
000000
000000
ENDCHAR

STARTCHAR Ca3ab
ENCODING 41899
SWIDTH 1000 0
DWIDTH 20 0
BBX 20 20 0 -4
BITMAP
000000
000000
000000
000000
000000
000000
000000
000000
000000
000000
000000
000000
000000
000000
000000
000000
000000
000000
000000
000000
ENDCHAR

STARTCHAR Ca3ac
ENCODING 41900
SWIDTH 1000 0
DWIDTH 20 0
BBX 20 20 0 -4
BITMAP
000000
000000
000000
000000
000000
000000
000000
000000
000000
000000
000000
000000
000000
000000
000000
000000
000000
000000
000000
000000
ENDCHAR

STARTCHAR Ca3ad
ENCODING 41901
SWIDTH 1000 0
DWIDTH 20 0
BBX 20 20 0 -4
BITMAP
000000
000000
000000
000000
000000
000000
000000
000000
000000
000000
000000
000000
000000
000000
000000
000000
000000
000000
000000
000000
ENDCHAR

STARTCHAR Ca3ae
ENCODING 41902
SWIDTH 1000 0
DWIDTH 20 0
BBX 20 20 0 -4
BITMAP
000000
000000
000000
000000
000000
000000
000000
000000
000000
000000
000000
000000
000000
000000
000000
000000
000000
000000
000000
000000
ENDCHAR

STARTCHAR Ca3af
ENCODING 41903
SWIDTH 1000 0
DWIDTH 20 0
BBX 20 20 0 -4
BITMAP
000000
000000
000000
000000
000000
000000
000000
000000
000000
000000
000000
000000
000000
000000
000000
000000
000000
000000
000000
000000
ENDCHAR

STARTCHAR Ca3b0
ENCODING 41904
SWIDTH 1000 0
DWIDTH 20 0
BBX 20 20 0 -4
BITMAP
000000
000000
00F000
010800
020400
020400
040200
040200
040200
040200
040200
040200
020400
020400
010800
00F000
000000
000000
000000
000000
ENDCHAR

STARTCHAR Ca3b1
ENCODING 41905
SWIDTH 1000 0
DWIDTH 20 0
BBX 20 20 0 -4
BITMAP
000000
000000
002000
006000
01E000
002000
002000
002000
002000
002000
002000
002000
002000
002000
002000
01FC00
000000
000000
000000
000000
ENDCHAR

STARTCHAR Ca3b2
ENCODING 41906
SWIDTH 1000 0
DWIDTH 20 0
BBX 20 20 0 -4
BITMAP
000000
000000
01F000
020800
040400
040400
060400
000400
000800
001000
006000
008000
010000
020200
040200
07FE00
000000
000000
000000
000000
ENDCHAR

STARTCHAR Ca3b3
ENCODING 41907
SWIDTH 1000 0
DWIDTH 20 0
BBX 20 20 0 -4
BITMAP
000000
000000
01F000
020800
040400
060400
000400
000800
00F800
000400
000200
000200
060200
040200
020400
01F800
000000
000000
000000
000000
ENDCHAR

STARTCHAR Ca3b4
ENCODING 41908
SWIDTH 1000 0
DWIDTH 20 0
BBX 20 20 0 -4
BITMAP
000000
000000
003000
005000
005000
009000
011000
021000
021000
041000
081000
1FFE00
001000
001000
001000
00FC00
000000
000000
000000
000000
ENDCHAR

STARTCHAR Ca3b5
ENCODING 41909
SWIDTH 1000 0
DWIDTH 20 0
BBX 20 20 0 -4
BITMAP
000000
000000
07F800
040000
040000
040000
040000
05F000
060800
040400
000400
000400
060400
040400
020800
01F000
000000
000000
000000
000000
ENDCHAR

STARTCHAR Ca3b6
ENCODING 41910
SWIDTH 1000 0
DWIDTH 20 0
BBX 20 20 0 -4
BITMAP
000000
000000
00F000
010800
020400
020C00
040000
040000
05F000
060800
040400
040400
040400
040400
020800
01F000
000000
000000
000000
000000
ENDCHAR

STARTCHAR Ca3b7
ENCODING 41911
SWIDTH 1000 0
DWIDTH 20 0
BBX 20 20 0 -4
BITMAP
000000
000000
07FE00
040200
040400
000400
000800
000800
001000
001000
002000
002000
002000
004000
004000
004000
000000
000000
000000
000000
ENDCHAR

STARTCHAR Ca3b8
ENCODING 41912
SWIDTH 1000 0
DWIDTH 20 0
BBX 20 20 0 -4
BITMAP
000000
000000
01F000
020800
040400
040400
040400
020800
01F000
060C00
080200
080200
080200
080200
040400
03F800
000000
000000
000000
000000
ENDCHAR

STARTCHAR Ca3b9
ENCODING 41913
SWIDTH 1000 0
DWIDTH 20 0
BBX 20 20 0 -4
BITMAP
000000
000000
01F000
020800
040400
040400
040400
040400
020C00
01F400
000400
000400
060400
040400
020800
01F000
000000
000000
000000
000000
ENDCHAR

STARTCHAR Ca3ba
ENCODING 41914
SWIDTH 1000 0
DWIDTH 20 0
BBX 20 20 0 -4
BITMAP
000000
000000
000000
000000
000000
000000
000000
000000
000000
000000
000000
000000
000000
000000
000000
000000
000000
000000
000000
000000
ENDCHAR

STARTCHAR Ca3bb
ENCODING 41915
SWIDTH 1000 0
DWIDTH 20 0
BBX 20 20 0 -4
BITMAP
000000
000000
000000
000000
000000
000000
000000
000000
000000
000000
000000
000000
000000
000000
000000
000000
000000
000000
000000
000000
ENDCHAR

STARTCHAR Ca3bc
ENCODING 41916
SWIDTH 1000 0
DWIDTH 20 0
BBX 20 20 0 -4
BITMAP
000000
000000
000000
000000
000000
000000
000000
000000
000000
000000
000000
000000
000000
000000
000000
000000
000000
000000
000000
000000
ENDCHAR

STARTCHAR Ca3bd
ENCODING 41917
SWIDTH 1000 0
DWIDTH 20 0
BBX 20 20 0 -4
BITMAP
000000
000000
000000
000000
000000
000000
000000
000000
000000
000000
000000
000000
000000
000000
000000
000000
000000
000000
000000
000000
ENDCHAR

STARTCHAR Ca3be
ENCODING 41918
SWIDTH 1000 0
DWIDTH 20 0
BBX 20 20 0 -4
BITMAP
000000
000000
000000
000000
000000
000000
000000
000000
000000
000000
000000
000000
000000
000000
000000
000000
000000
000000
000000
000000
ENDCHAR

STARTCHAR Ca3bf
ENCODING 41919
SWIDTH 1000 0
DWIDTH 20 0
BBX 20 20 0 -4
BITMAP
000000
000000
000000
000000
000000
000000
000000
000000
000000
000000
000000
000000
000000
000000
000000
000000
000000
000000
000000
000000
ENDCHAR

STARTCHAR Ca3c0
ENCODING 41920
SWIDTH 1000 0
DWIDTH 20 0
BBX 20 20 0 -4
BITMAP
000000
000000
000000
000000
000000
000000
000000
000000
000000
000000
000000
000000
000000
000000
000000
000000
000000
000000
000000
000000
ENDCHAR

STARTCHAR Ca3c1
ENCODING 41921
SWIDTH 1000 0
DWIDTH 20 0
BBX 20 20 0 -4
BITMAP
000000
000000
004000
004000
00A000
00A000
00A000
011000
011000
020800
020800
07FC00
040400
040400
080200
3E0F80
000000
000000
000000
000000
ENDCHAR

STARTCHAR Ca3c2
ENCODING 41922
SWIDTH 1000 0
DWIDTH 20 0
BBX 20 20 0 -4
BITMAP
000000
000000
0FF000
020800
020400
020400
020400
020800
03F800
020400
020200
020200
020200
020200
020400
0FF800
000000
000000
000000
000000
ENDCHAR

STARTCHAR Ca3c3
ENCODING 41923
SWIDTH 1000 0
DWIDTH 20 0
BBX 20 20 0 -4
BITMAP
000000
000000
00F200
030E00
040200
040200
080000
080000
080000
080000
080000
080100
040100
040200
030C00
00F000
000000
000000
000000
000000
ENDCHAR

STARTCHAR Ca3c4
ENCODING 41924
SWIDTH 1000 0
DWIDTH 20 0
BBX 20 20 0 -4
BITMAP
000000
000000
0FF000
020C00
020200
020200
020100
020100
020100
020100
020100
020100
020200
020200
020C00
0FF000
000000
000000
000000
000000
ENDCHAR

STARTCHAR Ca3c5
ENCODING 41925
SWIDTH 1000 0
DWIDTH 20 0
BBX 20 20 0 -4
BITMAP
000000
000000
0FFE00
020200
020200
020000
020800
020800
03F800
020800
020800
020000
020000
020200
020200
0FFE00
000000
000000
000000
000000
ENDCHAR

STARTCHAR Ca3c6
ENCODING 41926
SWIDTH 1000 0
DWIDTH 20 0
BBX 20 20 0 -4
BITMAP
000000
000000
0FFE00
020200
020200
020000
020800
020800
03F800
020800
020800
020000
020000
020000
020000
0FC000
000000
000000
000000
000000
ENDCHAR

STARTCHAR Ca3c7
ENCODING 41927
SWIDTH 1000 0
DWIDTH 20 0
BBX 20 20 0 -4
BITMAP
000000
000000
00F200
030E00
040200
040200
080000
080000
080000
081F80
080200
080200
040200
040200
030E00
00F200
000000
000000
000000
000000
ENDCHAR

STARTCHAR Ca3c8
ENCODING 41928
SWIDTH 1000 0
DWIDTH 20 0
BBX 20 20 0 -4
BITMAP
000000
000000
1F0F80
040200
040200
040200
040200
040200
07FE00
040200
040200
040200
040200
040200
040200
1F0F80
000000
000000
000000
000000
ENDCHAR

STARTCHAR Ca3c9
ENCODING 41929
SWIDTH 1000 0
DWIDTH 20 0
BBX 20 20 0 -4
BITMAP
000000
000000
03F800
004000
004000
004000
004000
004000
004000
004000
004000
004000
004000
004000
004000
03F800
000000
000000
000000
000000
ENDCHAR

STARTCHAR Ca3ca
ENCODING 41930
SWIDTH 1000 0
DWIDTH 20 0
BBX 20 20 0 -4
BITMAP
000000
000000
007E00
000800
000800
000800
000800
000800
000800
000800
000800
0C0800
080800
080800
041000
03E000
000000
000000
000000
000000
ENDCHAR

STARTCHAR Ca3cb
ENCODING 41931
SWIDTH 1000 0
DWIDTH 20 0
BBX 20 20 0 -4
BITMAP
000000
000000
1F1F00
040400
040800
041000
042000
044000
04A000
051000
061000
040800
040400
040400
040200
1F0F80
000000
000000
000000
000000
ENDCHAR

STARTCHAR Ca3cc
ENCODING 41932
SWIDTH 1000 0
DWIDTH 20 0
BBX 20 20 0 -4
BITMAP
000000
000000
0F8000
020000
020000
020000
020000
020000
020000
020000
020000
020000
020000
020200
020200
0FFE00
000000
000000
000000
000000
ENDCHAR

STARTCHAR Ca3cd
ENCODING 41933
SWIDTH 1000 0
DWIDTH 20 0
BBX 20 20 0 -4
BITMAP
000000
000000
7001C0
100100
180300
140500
140500
120900
120900
111100
111100
10A100
10A100
104100
104100
7C07C0
000000
000000
000000
000000
ENDCHAR

STARTCHAR Ca3ce
ENCODING 41934
SWIDTH 1000 0
DWIDTH 20 0
BBX 20 20 0 -4
BITMAP
000000
000000
380F80
0C0200
0A0200
090200
090200
088200
084200
084200
082200
081200
081200
080A00
080600
3E0200
000000
000000
000000
000000
ENDCHAR

STARTCHAR Ca3cf
ENCODING 41935
SWIDTH 1000 0
DWIDTH 20 0
BBX 20 20 0 -4
BITMAP
000000
000000
01F000
060C00
080200
080200
100100
100100
100100
100100
100100
100100
080200
080200
060C00
01F000
000000
000000
000000
000000
ENDCHAR

STARTCHAR Ca3d0
ENCODING 41936
SWIDTH 1000 0
DWIDTH 20 0
BBX 20 20 0 -4
BITMAP
000000
000000
0FF800
020400
020200
020200
020200
020200
020400
03F800
020000
020000
020000
020000
020000
0FC000
000000
000000
000000
000000
ENDCHAR

STARTCHAR Ca3d1
ENCODING 41937
SWIDTH 1000 0
DWIDTH 20 0
BBX 20 20 0 -4
BITMAP
000000
000000
01F000
060C00
080200
080200
100100
100100
100100
100100
100100
10E100
091200
091200
060C80
01F480
000300
000000
000000
000000
ENDCHAR

STARTCHAR Ca3d2
ENCODING 41938
SWIDTH 1000 0
DWIDTH 20 0
BBX 20 20 0 -4
BITMAP
000000
000000
0FF800
020400
020200
020200
020200
020200
020400
03F800
021000
020800
020400
020400
020200
0F8380
000000
000000
000000
000000
ENDCHAR

STARTCHAR Ca3d3
ENCODING 41939
SWIDTH 1000 0
DWIDTH 20 0
BBX 20 20 0 -4
BITMAP
000000
000000
01E800
021800
040800
040800
040000
020000
018000
007000
000800
080400
080400
0C0400
0A0800
09F000
000000
000000
000000
000000
ENDCHAR

STARTCHAR Ca3d4
ENCODING 41940
SWIDTH 1000 0
DWIDTH 20 0
BBX 20 20 0 -4
BITMAP
000000
000000
1FFF00
104100
104100
004000
004000
004000
004000
004000
004000
004000
004000
004000
004000
01F000
000000
000000
000000
000000
ENDCHAR

STARTCHAR Ca3d5
ENCODING 41941
SWIDTH 1000 0
DWIDTH 20 0
BBX 20 20 0 -4
BITMAP
000000
000000
3E0F80
080200
080200
080200
080200
080200
080200
080200
080200
080200
080200
040400
020800
01F000
000000
000000
000000
000000
ENDCHAR

STARTCHAR Ca3d6
ENCODING 41942
SWIDTH 1000 0
DWIDTH 20 0
BBX 20 20 0 -4
BITMAP
000000
000000
3E0F80
080200
080200
040400
040400
040400
020800
020800
011000
011000
00A000
00A000
004000
004000
000000
000000
000000
000000
ENDCHAR

STARTCHAR Ca3d7
ENCODING 41943
SWIDTH 1000 0
DWIDTH 20 0
BBX 20 20 0 -4
BITMAP
000000
000000
78E3C0
104100
104100
104100
08A200
08A200
08A200
08A200
051400
051400
051400
020800
020800
020800
000000
000000
000000
000000
ENDCHAR

STARTCHAR Ca3d8
ENCODING 41944
SWIDTH 1000 0
DWIDTH 20 0
BBX 20 20 0 -4
BITMAP
000000
000000
1F1F00
040400
020800
011000
011000
00A000
004000
00A000
011000
011000
020800
040400
080200
3E0F80
000000
000000
000000
000000
ENDCHAR

STARTCHAR Ca3d9
ENCODING 41945
SWIDTH 1000 0
DWIDTH 20 0
BBX 20 20 0 -4
BITMAP
000000
000000
3E0F80
080200
040400
040400
020800
011000
011000
00A000
004000
004000
004000
004000
004000
01F000
000000
000000
000000
000000
ENDCHAR

STARTCHAR Ca3da
ENCODING 41946
SWIDTH 1000 0
DWIDTH 20 0
BBX 20 20 0 -4
BITMAP
000000
000000
0FFE00
080400
080800
001000
002000
002000
004000
008000
010000
010000
020000
040200
080200
1FFE00
000000
000000
000000
000000
ENDCHAR

STARTCHAR Ca3db
ENCODING 41947
SWIDTH 1000 0
DWIDTH 20 0
BBX 20 20 0 -4
BITMAP
000000
000000
000000
000000
000000
000000
000000
000000
000000
000000
000000
000000
000000
000000
000000
000000
000000
000000
000000
000000
ENDCHAR

STARTCHAR Ca3dc
ENCODING 41948
SWIDTH 1000 0
DWIDTH 20 0
BBX 20 20 0 -4
BITMAP
000000
000000
000000
000000
000000
000000
000000
000000
000000
000000
000000
000000
000000
000000
000000
000000
000000
000000
000000
000000
ENDCHAR

STARTCHAR Ca3dd
ENCODING 41949
SWIDTH 1000 0
DWIDTH 20 0
BBX 20 20 0 -4
BITMAP
000000
000000
000000
000000
000000
000000
000000
000000
000000
000000
000000
000000
000000
000000
000000
000000
000000
000000
000000
000000
ENDCHAR

STARTCHAR Ca3de
ENCODING 41950
SWIDTH 1000 0
DWIDTH 20 0
BBX 20 20 0 -4
BITMAP
000000
000000
000000
000000
000000
000000
000000
000000
000000
000000
000000
000000
000000
000000
000000
000000
000000
000000
000000
000000
ENDCHAR

STARTCHAR Ca3df
ENCODING 41951
SWIDTH 1000 0
DWIDTH 20 0
BBX 20 20 0 -4
BITMAP
000000
000000
000000
000000
000000
000000
000000
000000
000000
000000
000000
000000
000000
000000
000000
000000
000000
000000
000000
000000
ENDCHAR

STARTCHAR Ca3e0
ENCODING 41952
SWIDTH 1000 0
DWIDTH 20 0
BBX 20 20 0 -4
BITMAP
000000
000000
000000
000000
000000
000000
000000
000000
000000
000000
000000
000000
000000
000000
000000
000000
000000
000000
000000
000000
ENDCHAR

STARTCHAR Ca3e1
ENCODING 41953
SWIDTH 1000 0
DWIDTH 20 0
BBX 20 20 0 -4
BITMAP
000000
000000
000000
000000
000000
000000
000000
01E000
021000
030800
000800
01F800
020800
040800
041800
03EC00
000000
000000
000000
000000
ENDCHAR

STARTCHAR Ca3e2
ENCODING 41954
SWIDTH 1000 0
DWIDTH 20 0
BBX 20 20 0 -4
BITMAP
000000
000000
0E0000
020000
020000
020000
020000
02F000
030800
020400
020400
020400
020400
020400
030800
02F000
000000
000000
000000
000000
ENDCHAR

STARTCHAR Ca3e3
ENCODING 41955
SWIDTH 1000 0
DWIDTH 20 0
BBX 20 20 0 -4
BITMAP
000000
000000
000000
000000
000000
000000
000000
01F000
020800
041800
040000
040000
040000
040400
020800
01F000
000000
000000
000000
000000
ENDCHAR

STARTCHAR Ca3e4
ENCODING 41956
SWIDTH 1000 0
DWIDTH 20 0
BBX 20 20 0 -4
BITMAP
000000
000000
003800
000800
000800
000800
000800
01E800
021800
040800
040800
040800
040800
040800
021800
01EE00
000000
000000
000000
000000
ENDCHAR

STARTCHAR Ca3e5
ENCODING 41957
SWIDTH 1000 0
DWIDTH 20 0
BBX 20 20 0 -4
BITMAP
000000
000000
000000
000000
000000
000000
000000
01F000
020800
040400
040400
07FC00
040000
040400
020800
01F000
000000
000000
000000
000000
ENDCHAR

STARTCHAR Ca3e6
ENCODING 41958
SWIDTH 1000 0
DWIDTH 20 0
BBX 20 20 0 -4
BITMAP
000000
000000
003800
004400
004C00
004000
004000
03F800
004000
004000
004000
004000
004000
004000
004000
01F000
000000
000000
000000
000000
ENDCHAR

STARTCHAR Ca3e7
ENCODING 41959
SWIDTH 1000 0
DWIDTH 20 0
BBX 20 20 0 -4
BITMAP
000000
000000
000000
000000
000000
000000
000000
01E800
021400
021000
021000
01E000
020000
020000
01F800
020400
040400
040400
03F800
000000
ENDCHAR

STARTCHAR Ca3e8
ENCODING 41960
SWIDTH 1000 0
DWIDTH 20 0
BBX 20 20 0 -4
BITMAP
000000
000000
0E0000
020000
020000
020000
020000
02F000
030800
020400
020400
020400
020400
020400
020400
0F0F00
000000
000000
000000
000000
ENDCHAR

STARTCHAR Ca3e9
ENCODING 41961
SWIDTH 1000 0
DWIDTH 20 0
BBX 20 20 0 -4
BITMAP
000000
000000
000000
00C000
00C000
000000
000000
01C000
004000
004000
004000
004000
004000
004000
004000
03F800
000000
000000
000000
000000
ENDCHAR

STARTCHAR Ca3ea
ENCODING 41962
SWIDTH 1000 0
DWIDTH 20 0
BBX 20 20 0 -4
BITMAP
000000
000000
000000
003000
003000
000000
000000
00F000
001000
001000
001000
001000
001000
001000
001000
061000
041000
022000
01C000
000000
ENDCHAR

STARTCHAR Ca3eb
ENCODING 41963
SWIDTH 1000 0
DWIDTH 20 0
BBX 20 20 0 -4
BITMAP
000000
000000
0E0000
020000
020000
020000
020000
027C00
021000
022000
024000
02C000
032000
021000
020800
0F3E00
000000
000000
000000
000000
ENDCHAR

STARTCHAR Ca3ec
ENCODING 41964
SWIDTH 1000 0
DWIDTH 20 0
BBX 20 20 0 -4
BITMAP
000000
000000
01C000
004000
004000
004000
004000
004000
004000
004000
004000
004000
004000
004000
004000
03F800
000000
000000
000000
000000
ENDCHAR

STARTCHAR Ca3ed
ENCODING 41965
SWIDTH 1000 0
DWIDTH 20 0
BBX 20 20 0 -4
BITMAP
000000
000000
000000
000000
000000
000000
000000
3B1800
0CA400
084200
084200
084200
084200
084200
084200
3CE780
000000
000000
000000
000000
ENDCHAR

STARTCHAR Ca3ee
ENCODING 41966
SWIDTH 1000 0
DWIDTH 20 0
BBX 20 20 0 -4
BITMAP
000000
000000
000000
000000
000000
000000
000000
0EF000
030800
020400
020400
020400
020400
020400
020400
0F0F00
000000
000000
000000
000000
ENDCHAR

STARTCHAR Ca3ef
ENCODING 41967
SWIDTH 1000 0
DWIDTH 20 0
BBX 20 20 0 -4
BITMAP
000000
000000
000000
000000
000000
000000
000000
01F000
020800
040400
040400
040400
040400
040400
020800
01F000
000000
000000
000000
000000
ENDCHAR

STARTCHAR Ca3f0
ENCODING 41968
SWIDTH 1000 0
DWIDTH 20 0
BBX 20 20 0 -4
BITMAP
000000
000000
000000
000000
000000
000000
000000
0EF000
030800
020400
020400
020400
020400
020400
030800
02F000
020000
020000
0FC000
000000
ENDCHAR

STARTCHAR Ca3f1
ENCODING 41969
SWIDTH 1000 0
DWIDTH 20 0
BBX 20 20 0 -4
BITMAP
000000
000000
000000
000000
000000
000000
000000
01E800
021800
040800
040800
040800
040800
040800
021800
01E800
000800
000800
007E00
000000
ENDCHAR

STARTCHAR Ca3f2
ENCODING 41970
SWIDTH 1000 0
DWIDTH 20 0
BBX 20 20 0 -4
BITMAP
000000
000000
000000
000000
000000
000000
000000
039800
00A400
00CC00
008000
008000
008000
008000
008000
03E000
000000
000000
000000
000000
ENDCHAR

STARTCHAR Ca3f3
ENCODING 41971
SWIDTH 1000 0
DWIDTH 20 0
BBX 20 20 0 -4
BITMAP
000000
000000
000000
000000
000000
000000
000000
01E800
021800
020800
020000
01F000
000800
020800
030800
02F000
000000
000000
000000
000000
ENDCHAR

STARTCHAR Ca3f4
ENCODING 41972
SWIDTH 1000 0
DWIDTH 20 0
BBX 20 20 0 -4
BITMAP
000000
000000
000000
000000
008000
008000
008000
03F800
008000
008000
008000
008000
008000
008000
008400
007800
000000
000000
000000
000000
ENDCHAR

STARTCHAR Ca3f5
ENCODING 41973
SWIDTH 1000 0
DWIDTH 20 0
BBX 20 20 0 -4
BITMAP
000000
000000
000000
000000
000000
000000
000000
0E3800
020800
020800
020800
020800
020800
020800
011800
00EE00
000000
000000
000000
000000
ENDCHAR

STARTCHAR Ca3f6
ENCODING 41974
SWIDTH 1000 0
DWIDTH 20 0
BBX 20 20 0 -4
BITMAP
000000
000000
000000
000000
000000
000000
000000
1F1F00
040400
020800
020800
011000
011000
00A000
00A000
004000
000000
000000
000000
000000
ENDCHAR

STARTCHAR Ca3f7
ENCODING 41975
SWIDTH 1000 0
DWIDTH 20 0
BBX 20 20 0 -4
BITMAP
000000
000000
000000
000000
000000
000000
000000
3CE780
084200
084200
08A200
04A400
051400
051400
020800
020800
000000
000000
000000
000000
ENDCHAR

STARTCHAR Ca3f8
ENCODING 41976
SWIDTH 1000 0
DWIDTH 20 0
BBX 20 20 0 -4
BITMAP
000000
000000
000000
000000
000000
000000
000000
0F1E00
020800
011000
00A000
004000
00A000
011000
020800
0F1E00
000000
000000
000000
000000
ENDCHAR

STARTCHAR Ca3f9
ENCODING 41977
SWIDTH 1000 0
DWIDTH 20 0
BBX 20 20 0 -4
BITMAP
000000
000000
000000
000000
000000
000000
000000
078F00
010400
010400
008800
008800
005000
005000
002000
002000
064000
044000
038000
000000
ENDCHAR

STARTCHAR Ca3fa
ENCODING 41978
SWIDTH 1000 0
DWIDTH 20 0
BBX 20 20 0 -4
BITMAP
000000
000000
000000
000000
000000
000000
000000
03FC00
020800
021000
002000
004000
008000
010400
020400
07FC00
000000
000000
000000
000000
ENDCHAR

STARTCHAR Ca4a1
ENCODING 42145
SWIDTH 1000 0
DWIDTH 20 0
BBX 20 20 0 -4
BITMAP
000000
000000
000000
000000
000000
018000
008000
08B000
07C000
010000
012000
01FC00
032200
054100
094100
088100
090200
063C00
000000
000000
ENDCHAR

STARTCHAR Ca4a2
ENCODING 42146
SWIDTH 1000 0
DWIDTH 20 0
BBX 20 20 0 -4
BITMAP
000000
018000
008000
008400
109800
0FE000
010000
010800
017E00
039180
051080
092040
112040
114040
218040
228080
1C8300
001C00
000000
000000
ENDCHAR

STARTCHAR Ca4a3
ENCODING 42147
SWIDTH 1000 0
DWIDTH 20 0
BBX 20 20 0 -4
BITMAP
000000
000000
000000
000000
000000
000000
000000
000000
080000
080800
080400
080200
080200
088100
048100
050000
030000
010000
000000
000000
ENDCHAR

STARTCHAR Ca4a4
ENCODING 42148
SWIDTH 1000 0
DWIDTH 20 0
BBX 20 20 0 -4
BITMAP
000000
000000
000000
000000
100000
100400
100200
100200
100100
100100
100080
080080
088080
090000
050000
060000
020000
000000
000000
000000
ENDCHAR

STARTCHAR Ca4a5
ENCODING 42149
SWIDTH 1000 0
DWIDTH 20 0
BBX 20 20 0 -4
BITMAP
000000
000000
000000
000000
000000
018000
006000
008000
000000
04F000
030800
000400
000400
000400
000800
000800
003000
01C000
000000
000000
ENDCHAR

STARTCHAR Ca4a6
ENCODING 42150
SWIDTH 1000 0
DWIDTH 20 0
BBX 20 20 0 -4
BITMAP
000000
020000
018000
007000
008000
000000
007800
098400
060200
000200
000200
000200
000200
000400
000400
000800
003000
01C000
000000
000000
ENDCHAR

STARTCHAR Ca4a7
ENCODING 42151
SWIDTH 1000 0
DWIDTH 20 0
BBX 20 20 0 -4
BITMAP
000000
000000
000000
000000
000000
018000
006000
008000
001000
047800
039000
002000
004000
00E000
011000
021000
041000
080F00
000000
000000
ENDCHAR

STARTCHAR Ca4a8
ENCODING 42152
SWIDTH 1000 0
DWIDTH 20 0
BBX 20 20 0 -4
BITMAP
000000
020000
018000
007000
008000
000800
087C00
078800
001000
002000
004000
008000
016000
021000
041000
081000
101000
200FC0
000000
000000
ENDCHAR

STARTCHAR Ca4a9
ENCODING 42153
SWIDTH 1000 0
DWIDTH 20 0
BBX 20 20 0 -4
BITMAP
000000
000000
000000
000000
000000
030000
010400
012200
09C100
070000
010000
017C00
038200
050100
090100
090100
092200
061C00
000000
000000
ENDCHAR

STARTCHAR Ca4aa
ENCODING 42154
SWIDTH 1000 0
DWIDTH 20 0
BBX 20 20 0 -4
BITMAP
000000
000000
000000
030000
010000
010300
012080
11C040
0F0000
010000
017E00
038180
050040
090040
110040
110040
092080
061F00
000000
000000
ENDCHAR

STARTCHAR Ca4ab
ENCODING 42155
SWIDTH 1000 0
DWIDTH 20 0
BBX 20 20 0 -4
BITMAP
000000
000000
030000
010000
010000
010400
01E200
221100
1E1080
021080
041040
0411C0
041040
081000
091000
10A000
106000
204000
000000
000000
ENDCHAR

STARTCHAR Ca4ac
ENCODING 42156
SWIDTH 1000 0
DWIDTH 20 0
BBX 20 20 0 -4
BITMAP
000000
000040
030120
0100A0
010080
010400
01E200
221100
1E1080
021080
041040
0411C0
041040
081000
091000
10A000
106000
204000
000000
000000
ENDCHAR

STARTCHAR Ca4ad
ENCODING 42157
SWIDTH 1000 0
DWIDTH 20 0
BBX 20 20 0 -4
BITMAP
000000
018000
008000
004C00
087000
07A000
002000
001300
083C00
07C800
000800
000400
01E400
061A00
080600
080000
080000
060800
01FC00
000000
ENDCHAR

STARTCHAR Ca4ae
ENCODING 42158
SWIDTH 1000 0
DWIDTH 20 0
BBX 20 20 0 -4
BITMAP
000000
018080
008240
004D40
087100
07A000
002000
001300
083C00
07C800
000800
000400
01E400
061A00
080600
080000
080000
060800
01FC00
000000
ENDCHAR

STARTCHAR Ca4af
ENCODING 42159
SWIDTH 1000 0
DWIDTH 20 0
BBX 20 20 0 -4
BITMAP
000000
000000
001000
000800
001000
002000
004000
018000
020000
040000
020000
010000
008000
004000
002000
001000
000800
000800
000000
000000
ENDCHAR

STARTCHAR Ca4b0
ENCODING 42160
SWIDTH 1000 0
DWIDTH 20 0
BBX 20 20 0 -4
BITMAP
000000
000000
001000
000800
001000
002100
004080
018480
020200
040200
020000
010000
008000
004000
002000
001000
000800
000800
000000
000000
ENDCHAR

STARTCHAR Ca4b1
ENCODING 42161
SWIDTH 1000 0
DWIDTH 20 0
BBX 20 20 0 -4
BITMAP
000000
000000
000C00
100400
080400
080400
090780
10FC00
100400
100400
100400
120400
140400
140400
180800
080800
081000
002000
000000
000000
ENDCHAR

STARTCHAR Ca4b2
ENCODING 42162
SWIDTH 1000 0
DWIDTH 20 0
BBX 20 20 0 -4
BITMAP
000000
000040
000D20
1004A0
080480
080400
090780
10FC00
100400
100400
100400
120400
140400
140400
180800
080800
081000
002000
000000
000000
ENDCHAR

STARTCHAR Ca4b3
ENCODING 42163
SWIDTH 1000 0
DWIDTH 20 0
BBX 20 20 0 -4
BITMAP
000000
000000
000000
040800
03FC00
001000
002000
004000
000000
000000
000000
000000
000000
100000
100000
080200
07FF00
000000
000000
000000
ENDCHAR

STARTCHAR Ca4b4
ENCODING 42164
SWIDTH 1000 0
DWIDTH 20 0
BBX 20 20 0 -4
BITMAP
000000
000000
000040
040920
03FCA0
001080
002000
004000
000000
000000
000000
000000
000000
100000
100000
080200
07FF00
000000
000000
000000
ENDCHAR

STARTCHAR Ca4b5
ENCODING 42165
SWIDTH 1000 0
DWIDTH 20 0
BBX 20 20 0 -4
BITMAP
000000
000000
00C000
004000
002100
002600
107800
0F9000
000800
000800
000400
01E400
061A00
080600
080000
080000
060800
01FC00
000000
000000
ENDCHAR

STARTCHAR Ca4b6
ENCODING 42166
SWIDTH 1000 0
DWIDTH 20 0
BBX 20 20 0 -4
BITMAP
000000
000040
018120
0080A0
004280
004C00
20F000
1F2000
001000
001000
000800
03C800
0C3400
100C00
100000
100000
0C1000
03F800
000000
000000
ENDCHAR

STARTCHAR Ca4b7
ENCODING 42167
SWIDTH 1000 0
DWIDTH 20 0
BBX 20 20 0 -4
BITMAP
000000
000000
040000
020000
020000
020000
020000
020000
040000
040000
040000
040100
040100
040100
040200
040200
020C00
01F000
000000
000000
ENDCHAR

STARTCHAR Ca4b8
ENCODING 42168
SWIDTH 1000 0
DWIDTH 20 0
BBX 20 20 0 -4
BITMAP
000000
000000
040000
020000
020400
022200
021200
021000
040000
040000
040000
040100
040100
040100
040200
040200
020C00
01F000
000000
000000
ENDCHAR

STARTCHAR Ca4b9
ENCODING 42169
SWIDTH 1000 0
DWIDTH 20 0
BBX 20 20 0 -4
BITMAP
000000
006000
002000
002080
41FFC0
3E2000
002000
002000
00E000
012000
021000
021000
023000
01D000
001000
002000
002000
004000
008000
000000
ENDCHAR

STARTCHAR Ca4ba
ENCODING 42170
SWIDTH 1000 0
DWIDTH 20 0
BBX 20 20 0 -4
BITMAP
000000
006280
002140
002140
41FFC0
3E2000
002000
002000
00E000
012000
021000
021000
023000
01D000
001000
002000
002000
004000
008000
000000
ENDCHAR

STARTCHAR Ca4bb
ENCODING 42171
SWIDTH 1000 0
DWIDTH 20 0
BBX 20 20 0 -4
BITMAP
000000
000000
000C00
0C0400
040400
040400
040480
443FC0
3FC800
040800
042800
041800
041000
040000
040000
040200
03FF00
000000
000000
000000
ENDCHAR

STARTCHAR Ca4bc
ENCODING 42172
SWIDTH 1000 0
DWIDTH 20 0
BBX 20 20 0 -4
BITMAP
000000
000240
000D20
0C0520
040400
040400
040480
443FC0
3FC800
040800
042800
041800
041000
040000
040000
040200
03FF00
000000
000000
000000
ENDCHAR

STARTCHAR Ca4bd
ENCODING 42173
SWIDTH 1000 0
DWIDTH 20 0
BBX 20 20 0 -4
BITMAP
000000
000000
000800
047C00
039000
002000
004000
008080
010FC0
23F000
1C2000
004000
008000
008000
008000
008000
006000
001C00
000000
000000
ENDCHAR

STARTCHAR Ca4be
ENCODING 42174
SWIDTH 1000 0
DWIDTH 20 0
BBX 20 20 0 -4
BITMAP
000000
000040
000920
047CA0
039080
002000
004000
008080
010FC0
23F000
1C2000
004000
008000
008000
008000
008000
006000
001C00
000000
000000
ENDCHAR

STARTCHAR Ca4bf
ENCODING 42175
SWIDTH 1000 0
DWIDTH 20 0
BBX 20 20 0 -4
BITMAP
000000
000000
018000
008000
008000
012000
21C000
1F0000
010000
020F80
023200
020400
040000
040000
080000
084000
102080
101FC0
000000
000000
ENDCHAR

STARTCHAR Ca4c0
ENCODING 42176
SWIDTH 1000 0
DWIDTH 20 0
BBX 20 20 0 -4
BITMAP
000000
000000
018100
008480
008280
012200
21C000
1F0000
010000
020F80
023200
020400
040000
040000
080000
084000
102080
101FC0
000000
000000
ENDCHAR

STARTCHAR Ca4c1
ENCODING 42177
SWIDTH 1000 0
DWIDTH 20 0
BBX 20 20 0 -4
BITMAP
000000
000000
030000
010000
010000
023000
23C000
1E0000
020000
040000
047C00
058200
060100
040100
000100
000200
000C00
00F000
000000
000000
ENDCHAR

STARTCHAR Ca4c2
ENCODING 42178
SWIDTH 1000 0
DWIDTH 20 0
BBX 20 20 0 -4
BITMAP
000000
000100
030480
010280
010200
023000
23C000
1E0000
020000
040000
047C00
058200
060100
040100
000100
000200
000C00
00F000
000000
000000
ENDCHAR

STARTCHAR Ca4c3
ENCODING 42179
SWIDTH 1000 0
DWIDTH 20 0
BBX 20 20 0 -4
BITMAP
000000
000000
000000
000000
000000
000000
000000
000000
000000
003C00
09C200
060100
000100
000100
000100
000200
000C00
00F000
000000
000000
ENDCHAR

STARTCHAR Ca4c4
ENCODING 42180
SWIDTH 1000 0
DWIDTH 20 0
BBX 20 20 0 -4
BITMAP
000000
000000
000000
000000
000000
003C00
01C300
260100
180080
000080
000080
000080
000080
000100
000200
000C00
00F000
000000
000000
000000
ENDCHAR

STARTCHAR Ca4c5
ENCODING 42181
SWIDTH 1000 0
DWIDTH 20 0
BBX 20 20 0 -4
BITMAP
000000
000040
000120
0000A0
000080
003C00
01C300
260100
180080
000080
000080
000080
000080
000100
000200
000C00
00F000
000000
000000
000000
ENDCHAR

STARTCHAR Ca4c6
ENCODING 42182
SWIDTH 1000 0
DWIDTH 20 0
BBX 20 20 0 -4
BITMAP
000000
000000
000000
000100
003F80
23D000
1C2000
004000
008000
008000
010000
010000
010000
010000
008000
008000
006000
001E00
000000
000000
ENDCHAR

STARTCHAR Ca4c7
ENCODING 42183
SWIDTH 1000 0
DWIDTH 20 0
BBX 20 20 0 -4
BITMAP
000000
000000
000000
000100
003F80
23D000
1C2000
004080
008240
008140
010100
010000
010000
010000
008000
008000
006000
001E00
000000
000000
ENDCHAR

STARTCHAR Ca4c8
ENCODING 42184
SWIDTH 1000 0
DWIDTH 20 0
BBX 20 20 0 -4
BITMAP
000000
000000
000000
030000
010000
010000
010400
010200
008C00
00B000
00C000
010000
020000
040000
080000
080000
040200
03FF00
000000
000000
ENDCHAR

STARTCHAR Ca4c9
ENCODING 42185
SWIDTH 1000 0
DWIDTH 20 0
BBX 20 20 0 -4
BITMAP
000000
000000
000040
030120
0100A0
010080
010400
010200
008C00
00B000
00C000
010000
020000
040000
080000
080000
040200
03FF00
000000
000000
ENDCHAR

STARTCHAR Ca4ca
ENCODING 42186
SWIDTH 1000 0
DWIDTH 20 0
BBX 20 20 0 -4
BITMAP
000000
030000
010000
010000
022000
23C200
1E0100
040080
040D40
080800
080800
100800
200800
01F800
020C00
020B00
010880
00F000
000000
000000
ENDCHAR

STARTCHAR Ca4cb
ENCODING 42187
SWIDTH 1000 0
DWIDTH 20 0
BBX 20 20 0 -4
BITMAP
000000
000000
000000
080000
040000
044180
083E00
080400
080800
100000
100000
100000
120000
140000
144000
182080
081FC0
080000
000000
000000
ENDCHAR

STARTCHAR Ca4cc
ENCODING 42188
SWIDTH 1000 0
DWIDTH 20 0
BBX 20 20 0 -4
BITMAP
000000
000000
00C000
084000
084000
08F800
0B4600
044100
084100
148080
148080
228080
228080
211E80
22A100
24A280
181C40
000000
000000
000000
ENDCHAR

STARTCHAR Ca4cd
ENCODING 42189
SWIDTH 1000 0
DWIDTH 20 0
BBX 20 20 0 -4
BITMAP
000000
000000
0C0000
040000
040000
041C00
266300
1C8080
050080
060080
040080
0C0080
140080
241E80
242100
442280
0C1C40
040000
000000
000000
ENDCHAR

STARTCHAR Ca4ce
ENCODING 42190
SWIDTH 1000 0
DWIDTH 20 0
BBX 20 20 0 -4
BITMAP
000000
000000
000000
00F800
034600
044100
084080
104080
108040
208040
208040
210040
210080
220080
140100
080600
003800
000000
000000
000000
ENDCHAR

STARTCHAR Ca4cf
ENCODING 42191
SWIDTH 1000 0
DWIDTH 20 0
BBX 20 20 0 -4
BITMAP
000000
000000
080C00
040400
040400
080400
0887C0
087C00
100400
100400
100400
100400
120400
147C00
148700
1884C0
084420
083800
000000
000000
ENDCHAR

STARTCHAR Ca4d0
ENCODING 42192
SWIDTH 1000 0
DWIDTH 20 0
BBX 20 20 0 -4
BITMAP
000000
000040
080D20
0404A0
040480
080400
0887C0
087C00
100400
100400
100400
100400
120400
147C00
148700
1884C0
084420
083800
000000
000000
ENDCHAR

STARTCHAR Ca4d1
ENCODING 42193
SWIDTH 1000 0
DWIDTH 20 0
BBX 20 20 0 -4
BITMAP
000000
0000C0
080D20
040520
0404C0
080400
0887C0
087C00
100400
100400
100400
100400
120400
147C00
148700
1884C0
084420
083800
000000
000000
ENDCHAR

STARTCHAR Ca4d2
ENCODING 42194
SWIDTH 1000 0
DWIDTH 20 0
BBX 20 20 0 -4
BITMAP
000000
000000
000400
018400
268200
190200
020100
040280
040240
080220
080200
080200
080200
080200
080400
040400
061800
01E000
000000
000000
ENDCHAR

STARTCHAR Ca4d3
ENCODING 42195
SWIDTH 1000 0
DWIDTH 20 0
BBX 20 20 0 -4
BITMAP
000000
000040
000920
0308A0
4D0480
320400
040200
080500
080480
100440
100400
100400
100400
100400
100800
080800
0C3000
03C000
000000
000000
ENDCHAR

STARTCHAR Ca4d4
ENCODING 42196
SWIDTH 1000 0
DWIDTH 20 0
BBX 20 20 0 -4
BITMAP
000000
0000C0
000920
030920
4D04C0
320400
040200
080500
080480
100440
100400
100400
100400
100400
100800
080800
0C3000
03C000
000000
000000
ENDCHAR

STARTCHAR Ca4d5
ENCODING 42197
SWIDTH 1000 0
DWIDTH 20 0
BBX 20 20 0 -4
BITMAP
000000
020000
018000
007000
004000
008000
010000
010000
008000
007C00
00A300
031080
041040
581040
201000
022000
01C000
000000
000000
000000
ENDCHAR

STARTCHAR Ca4d6
ENCODING 42198
SWIDTH 1000 0
DWIDTH 20 0
BBX 20 20 0 -4
BITMAP
000000
020100
018080
007480
004200
008200
010000
010000
008000
007C00
00A300
031080
041040
581040
201000
022000
01C000
000000
000000
000000
ENDCHAR

STARTCHAR Ca4d7
ENCODING 42199
SWIDTH 1000 0
DWIDTH 20 0
BBX 20 20 0 -4
BITMAP
000000
020300
018480
007480
004300
008000
010000
010000
008000
007C00
00A300
031080
041040
581040
201000
022000
01C000
000000
000000
000000
ENDCHAR

STARTCHAR Ca4d8
ENCODING 42200
SWIDTH 1000 0
DWIDTH 20 0
BBX 20 20 0 -4
BITMAP
000000
000000
000000
000000
000000
008000
014000
022000
021000
040800
080400
500200
200100
000080
000040
000000
000000
000000
000000
000000
ENDCHAR

STARTCHAR Ca4d9
ENCODING 42201
SWIDTH 1000 0
DWIDTH 20 0
BBX 20 20 0 -4
BITMAP
000000
000000
000200
000900
000500
008400
014000
022000
021000
040800
080400
500200
200100
000080
000040
000000
000000
000000
000000
000000
ENDCHAR

STARTCHAR Ca4da
ENCODING 42202
SWIDTH 1000 0
DWIDTH 20 0
BBX 20 20 0 -4
BITMAP
000000
000000
000600
000900
000900
008600
014000
022000
021000
040800
080400
500200
200100
000080
000040
000000
000000
000000
000000
000000
ENDCHAR

STARTCHAR Ca4db
ENCODING 42203
SWIDTH 1000 0
DWIDTH 20 0
BBX 20 20 0 -4
BITMAP
000000
000000
100000
080700
09F800
100800
100800
100800
210F80
20F800
200800
200800
240800
28F800
290E00
310980
108840
107000
000000
000000
ENDCHAR

STARTCHAR Ca4dc
ENCODING 42204
SWIDTH 1000 0
DWIDTH 20 0
BBX 20 20 0 -4
BITMAP
000000
000040
100120
0806A0
09F880
100800
100800
100800
210F80
20F800
200800
200800
240800
28F800
290E00
310980
108840
107000
000000
000000
ENDCHAR

STARTCHAR Ca4dd
ENCODING 42205
SWIDTH 1000 0
DWIDTH 20 0
BBX 20 20 0 -4
BITMAP
000000
0000C0
100120
080720
09F8C0
100800
100800
100800
210F80
20F800
200800
200800
240800
28F800
290E00
310980
108840
107000
000000
000000
ENDCHAR

STARTCHAR Ca4de
ENCODING 42206
SWIDTH 1000 0
DWIDTH 20 0
BBX 20 20 0 -4
BITMAP
000000
006000
002000
002000
102300
0FFC00
002000
002000
082600
07F800
002000
002000
002000
07E000
083800
082600
042100
03C000
000000
000000
ENDCHAR

STARTCHAR Ca4df
ENCODING 42207
SWIDTH 1000 0
DWIDTH 20 0
BBX 20 20 0 -4
BITMAP
000000
000000
000000
004000
09E000
064000
004000
004000
008300
008100
07C100
193900
220600
420300
440480
480440
300800
001000
002000
000000
ENDCHAR

STARTCHAR Ca4e0
ENCODING 42208
SWIDTH 1000 0
DWIDTH 20 0
BBX 20 20 0 -4
BITMAP
000000
060000
020000
020000
226000
1F8100
020080
020080
0E0040
1201C0
220040
220000
240200
1C0200
040100
040100
040100
03FE00
000000
000000
ENDCHAR

STARTCHAR Ca4e1
ENCODING 42209
SWIDTH 1000 0
DWIDTH 20 0
BBX 20 20 0 -4
BITMAP
000000
006000
002000
042000
042000
04FC00
072300
042080
0A2080
122040
124040
214040
214040
208040
214080
220080
1C0300
001C00
000000
000000
ENDCHAR

STARTCHAR Ca4e2
ENCODING 42210
SWIDTH 1000 0
DWIDTH 20 0
BBX 20 20 0 -4
BITMAP
000000
018000
008000
008000
109800
0FE000
010000
010000
010000
113100
0FC100
020080
020080
020080
020080
010100
018300
007C00
000000
000000
ENDCHAR

STARTCHAR Ca4e3
ENCODING 42211
SWIDTH 1000 0
DWIDTH 20 0
BBX 20 20 0 -4
BITMAP
000000
000000
000000
000000
000000
006000
061000
020000
021E00
016100
138080
0D0080
009100
008E00
004000
004000
004000
002000
002000
000000
ENDCHAR

STARTCHAR Ca4e4
ENCODING 42212
SWIDTH 1000 0
DWIDTH 20 0
BBX 20 20 0 -4
BITMAP
000000
00C000
002000
181000
080000
043F00
04C080
030040
4D0040
310040
008080
009180
008E00
004000
004000
004000
002000
002000
002000
000000
ENDCHAR

STARTCHAR Ca4e5
ENCODING 42213
SWIDTH 1000 0
DWIDTH 20 0
BBX 20 20 0 -4
BITMAP
000000
000000
000000
000000
000000
003000
081000
041000
043C00
04D200
091100
0A1100
0A1100
0C9100
045200
043C00
001000
002000
004000
000000
ENDCHAR

STARTCHAR Ca4e6
ENCODING 42214
SWIDTH 1000 0
DWIDTH 20 0
BBX 20 20 0 -4
BITMAP
000000
000000
006000
002000
202000
103C00
10E300
112100
222080
242080
242080
282080
292100
30A600
107800
102000
002000
004000
008000
000000
ENDCHAR

STARTCHAR Ca4e7
ENCODING 42215
SWIDTH 1000 0
DWIDTH 20 0
BBX 20 20 0 -4
BITMAP
000000
000000
000000
000000
000000
00C000
004000
004000
004C00
007000
004000
004000
004000
004000
07E000
085800
084400
078000
000000
000000
ENDCHAR

STARTCHAR Ca4e8
ENCODING 42216
SWIDTH 1000 0
DWIDTH 20 0
BBX 20 20 0 -4
BITMAP
000000
00C000
004000
004000
004000
004600
007800
004000
004000
004000
004000
004000
004000
0FC000
107000
104C00
084200
078000
000000
000000
ENDCHAR

STARTCHAR Ca4e9
ENCODING 42217
SWIDTH 1000 0
DWIDTH 20 0
BBX 20 20 0 -4
BITMAP
000000
040000
038000
00E000
010000
020000
040000
040000
080000
087800
098600
0A0200
0C0100
080100
000100
000200
000C00
00F000
000000
000000
ENDCHAR

STARTCHAR Ca4ea
ENCODING 42218
SWIDTH 1000 0
DWIDTH 20 0
BBX 20 20 0 -4
BITMAP
000000
000000
000600
040200
020200
020200
020200
040200
048200
050200
050200
060200
020200
000400
000400
000800
001000
006000
000000
000000
ENDCHAR

STARTCHAR Ca4eb
ENCODING 42219
SWIDTH 1000 0
DWIDTH 20 0
BBX 20 20 0 -4
BITMAP
000000
000000
000800
043C00
03C800
001000
002000
004000
008000
017C00
038200
040100
080080
100080
01C080
022100
021600
01F800
000000
000000
ENDCHAR

STARTCHAR Ca4ec
ENCODING 42220
SWIDTH 1000 0
DWIDTH 20 0
BBX 20 20 0 -4
BITMAP
000000
000000
060000
020000
020000
020C00
133200
0E4200
028200
030200
020200
060200
0A0200
120220
120220
220240
060180
020000
000000
000000
ENDCHAR

STARTCHAR Ca4ed
ENCODING 42221
SWIDTH 1000 0
DWIDTH 20 0
BBX 20 20 0 -4
BITMAP
000000
000000
000800
043C00
03C800
001000
002000
004000
008000
017E00
038100
040080
080080
100080
000080
000100
000600
00F800
000000
000000
ENDCHAR

STARTCHAR Ca4ee
ENCODING 42222
SWIDTH 1000 0
DWIDTH 20 0
BBX 20 20 0 -4
BITMAP
000000
000000
000000
000000
000000
060000
020000
130000
0E3C00
02C200
030100
060100
0A0100
0A0100
120100
120200
063C00
020000
000000
000000
ENDCHAR

STARTCHAR Ca4ef
ENCODING 42223
SWIDTH 1000 0
DWIDTH 20 0
BBX 20 20 0 -4
BITMAP
000000
000000
060000
020000
020000
020000
131E00
0E6100
028080
030040
020040
060040
0A0040
120040
120080
260300
021C00
020000
000000
000000
ENDCHAR

STARTCHAR Ca4f0
ENCODING 42224
SWIDTH 1000 0
DWIDTH 20 0
BBX 20 20 0 -4
BITMAP
000000
001000
047800
039000
001000
002000
002000
00FC00
034300
044080
088080
108040
110040
210040
223880
244480
184300
003C00
000000
000000
ENDCHAR

STARTCHAR Ca4f1
ENCODING 42225
SWIDTH 1000 0
DWIDTH 20 0
BBX 20 20 0 -4
BITMAP
000000
001000
027800
019000
002000
004000
00F800
010400
060200
08C200
012400
00F800
018000
020000
070E00
08D100
102080
202040
000000
000000
ENDCHAR

STARTCHAR Ca4f2
ENCODING 42226
SWIDTH 1000 0
DWIDTH 20 0
BBX 20 20 0 -4
BITMAP
000000
000000
018000
008000
089800
07E000
010000
020200
02C100
072200
042C00
083000
00D000
011000
021000
020000
020400
01FE00
000000
000000
ENDCHAR

STARTCHAR Ca4f3
ENCODING 42227
SWIDTH 1000 0
DWIDTH 20 0
BBX 20 20 0 -4
BITMAP
000000
000000
008000
004000
004000
008000
008000
010000
010000
020000
02C000
052000
062040
082040
082080
101080
101100
200E00
000000
000000
ENDCHAR

STARTCHAR Ca5a1
ENCODING 42401
SWIDTH 1000 0
DWIDTH 20 0
BBX 20 20 0 -4
BITMAP
000000
000000
000000
000000
000000
000200
083F00
07C400
000800
005000
002000
002000
002000
002000
004000
004000
008000
010000
000000
000000
ENDCHAR

STARTCHAR Ca5a2
ENCODING 42402
SWIDTH 1000 0
DWIDTH 20 0
BBX 20 20 0 -4
BITMAP
000000
000000
000100
203F80
1FC200
000400
001800
00A000
004000
004000
004000
004000
004000
008000
008000
010000
020000
040000
000000
000000
ENDCHAR

STARTCHAR Ca5a3
ENCODING 42403
SWIDTH 1000 0
DWIDTH 20 0
BBX 20 20 0 -4
BITMAP
000000
000000
000000
000000
000C00
000200
000400
000800
001000
006000
00A000
032000
0C2000
002000
002000
002000
002000
002000
000000
000000
ENDCHAR

STARTCHAR Ca5a4
ENCODING 42404
SWIDTH 1000 0
DWIDTH 20 0
BBX 20 20 0 -4
BITMAP
000000
000000
000200
000100
000200
000400
000800
003000
006000
01A000
062000
182000
002000
002000
002000
002000
002000
002000
000000
000000
ENDCHAR

STARTCHAR Ca5a5
ENCODING 42405
SWIDTH 1000 0
DWIDTH 20 0
BBX 20 20 0 -4
BITMAP
000000
000000
000000
000000
000000
00C000
004000
084200
07FF00
040200
040200
040200
040400
000400
000800
001000
002000
00C000
000000
000000
ENDCHAR

STARTCHAR Ca5a6
ENCODING 42406
SWIDTH 1000 0
DWIDTH 20 0
BBX 20 20 0 -4
BITMAP
000000
000000
00C000
004000
004100
187F80
0F8100
080100
080100
080100
080200
080200
000400
000400
000800
001000
006000
018000
000000
000000
ENDCHAR

STARTCHAR Ca5a7
ENCODING 42407
SWIDTH 1000 0
DWIDTH 20 0
BBX 20 20 0 -4
BITMAP
000000
000000
000000
000000
000000
000000
000000
000000
040400
03FE00
002000
002000
002000
002000
102100
0FFF80
000000
000000
000000
000000
ENDCHAR

STARTCHAR Ca5a8
ENCODING 42408
SWIDTH 1000 0
DWIDTH 20 0
BBX 20 20 0 -4
BITMAP
000000
000000
000000
000000
000200
083F00
07C000
004000
004000
004000
004000
004000
004000
004080
207FC0
1F8000
000000
000000
000000
000000
ENDCHAR

STARTCHAR Ca5a9
ENCODING 42409
SWIDTH 1000 0
DWIDTH 20 0
BBX 20 20 0 -4
BITMAP
000000
000000
000000
000000
000000
003000
001000
001200
081F00
07F000
005000
009000
009000
011000
021000
045000
083000
002000
000000
000000
ENDCHAR

STARTCHAR Ca5aa
ENCODING 42410
SWIDTH 1000 0
DWIDTH 20 0
BBX 20 20 0 -4
BITMAP
000000
001800
000800
000800
000880
100FC0
0FF800
002800
002800
004800
008800
008800
010800
020800
044800
182800
201800
001000
000000
000000
ENDCHAR

STARTCHAR Ca5ab
ENCODING 42411
SWIDTH 1000 0
DWIDTH 20 0
BBX 20 20 0 -4
BITMAP
000000
000000
00C000
004000
004000
004100
107F80
0FC100
008100
008100
008100
010100
010100
022100
041200
080A00
100600
200400
000000
000000
ENDCHAR

STARTCHAR Ca5ac
ENCODING 42412
SWIDTH 1000 0
DWIDTH 20 0
BBX 20 20 0 -4
BITMAP
000000
000000
00C080
004240
004140
004100
107F80
0FC100
008100
008100
008100
010100
010100
022100
041200
080A00
100600
200400
000000
000000
ENDCHAR

STARTCHAR Ca5ad
ENCODING 42413
SWIDTH 1000 0
DWIDTH 20 0
BBX 20 20 0 -4
BITMAP
000000
000000
018000
008000
008200
004F00
10F000
0F4000
004000
002080
0027C0
10F800
0F1000
001000
001000
000800
000800
000800
000800
000000
ENDCHAR

STARTCHAR Ca5ae
ENCODING 42414
SWIDTH 1000 0
DWIDTH 20 0
BBX 20 20 0 -4
BITMAP
000000
000040
018120
0080A0
008280
004F00
10F000
0F4000
004000
002080
0027C0
10F800
0F1000
001000
001000
000800
000800
000800
000800
000000
ENDCHAR

STARTCHAR Ca5af
ENCODING 42415
SWIDTH 1000 0
DWIDTH 20 0
BBX 20 20 0 -4
BITMAP
000000
000000
00C000
004200
00FF00
008200
010200
010200
020400
040400
080800
100800
001000
002000
004000
008000
030000
0C0000
000000
000000
ENDCHAR

STARTCHAR Ca5b0
ENCODING 42416
SWIDTH 1000 0
DWIDTH 20 0
BBX 20 20 0 -4
BITMAP
000000
000480
00C240
004240
00FF00
008200
010200
010200
020400
040400
080800
100800
001000
002000
004000
008000
030000
0C0000
000000
000000
ENDCHAR

STARTCHAR Ca5b1
ENCODING 42417
SWIDTH 1000 0
DWIDTH 20 0
BBX 20 20 0 -4
BITMAP
000000
000000
030000
010000
010080
0207C0
03F800
040800
040800
080800
100800
201000
001000
002000
002000
004000
008000
030000
000000
000000
ENDCHAR

STARTCHAR Ca5b2
ENCODING 42418
SWIDTH 1000 0
DWIDTH 20 0
BBX 20 20 0 -4
BITMAP
000000
000040
030120
0100A0
010080
0207C0
03F800
040800
040800
080800
100800
201000
001000
002000
002000
004000
008000
030000
000000
000000
ENDCHAR

STARTCHAR Ca5b3
ENCODING 42419
SWIDTH 1000 0
DWIDTH 20 0
BBX 20 20 0 -4
BITMAP
000000
000000
000000
000000
000200
103F00
0FC200
000200
000200
000200
000200
000200
000200
000200
100200
0FFF00
000000
000000
000000
000000
ENDCHAR

STARTCHAR Ca5b4
ENCODING 42420
SWIDTH 1000 0
DWIDTH 20 0
BBX 20 20 0 -4
BITMAP
000000
000040
000120
0000A0
000280
103F00
0FC200
000200
000200
000200
000200
000200
000200
000200
100200
0FFF00
000000
000000
000000
000000
ENDCHAR

STARTCHAR Ca5b5
ENCODING 42421
SWIDTH 1000 0
DWIDTH 20 0
BBX 20 20 0 -4
BITMAP
000000
000000
000C00
030400
010400
010400
010440
413FE0
3FC400
010400
010400
010400
010400
000800
000800
001000
002000
004000
018000
000000
ENDCHAR

STARTCHAR Ca5b6
ENCODING 42422
SWIDTH 1000 0
DWIDTH 20 0
BBX 20 20 0 -4
BITMAP
000000
000040
000D20
0304A0
010480
010400
010440
413FE0
3FC400
010400
010400
010400
010400
000800
000800
001000
002000
004000
018000
000000
ENDCHAR

STARTCHAR Ca5b7
ENCODING 42423
SWIDTH 1000 0
DWIDTH 20 0
BBX 20 20 0 -4
BITMAP
000000
000000
000000
020000
018000
004000
000040
100040
0C0080
020080
000100
000200
000400
000800
001000
006000
098000
060000
000000
000000
ENDCHAR

STARTCHAR Ca5b8
ENCODING 42424
SWIDTH 1000 0
DWIDTH 20 0
BBX 20 20 0 -4
BITMAP
000000
000040
000120
0200A0
018080
004000
000040
100040
0C0080
020080
000100
000200
000400
000800
001000
006000
098000
060000
000000
000000
ENDCHAR

STARTCHAR Ca5b9
ENCODING 42425
SWIDTH 1000 0
DWIDTH 20 0
BBX 20 20 0 -4
BITMAP
000000
000000
000000
000400
087E00
078400
000400
000800
000800
001000
002000
005000
008800
010400
020200
040100
180080
200000
000000
000000
ENDCHAR

STARTCHAR Ca5ba
ENCODING 42426
SWIDTH 1000 0
DWIDTH 20 0
BBX 20 20 0 -4
BITMAP
000000
000040
000120
0004A0
087E80
078400
000400
000800
000800
001000
002000
005000
008800
010400
020200
040100
180080
200000
000000
000000
ENDCHAR

STARTCHAR Ca5bb
ENCODING 42427
SWIDTH 1000 0
DWIDTH 20 0
BBX 20 20 0 -4
BITMAP
000000
000000
060000
020000
020000
020100
020F80
23F100
1E0200
020400
020800
021000
020000
020000
020000
020200
01FF00
000000
000000
000000
ENDCHAR

STARTCHAR Ca5bc
ENCODING 42428
SWIDTH 1000 0
DWIDTH 20 0
BBX 20 20 0 -4
BITMAP
000000
000040
060120
0200A0
020080
020100
020F80
23F100
1E0200
020400
020800
021000
020000
020000
020000
020200
01FF00
000000
000000
000000
ENDCHAR

STARTCHAR Ca5bd
ENCODING 42429
SWIDTH 1000 0
DWIDTH 20 0
BBX 20 20 0 -4
BITMAP
000000
000000
000180
000080
080080
040100
040100
020100
020200
000200
000400
000400
000800
001000
002000
004000
018000
020000
000000
000000
ENDCHAR

STARTCHAR Ca5be
ENCODING 42430
SWIDTH 1000 0
DWIDTH 20 0
BBX 20 20 0 -4
BITMAP
000000
000040
000120
0006A0
100280
080200
080200
040400
040400
000400
000800
000800
001000
002000
004000
008000
030000
040000
000000
000000
ENDCHAR

STARTCHAR Ca5bf
ENCODING 42431
SWIDTH 1000 0
DWIDTH 20 0
BBX 20 20 0 -4
BITMAP
000000
000000
00C000
004100
00FF80
008100
010100
010200
028200
046200
081400
000C00
000A00
001000
002000
004000
018000
0E0000
000000
000000
ENDCHAR

STARTCHAR Ca5c0
ENCODING 42432
SWIDTH 1000 0
DWIDTH 20 0
BBX 20 20 0 -4
BITMAP
000000
000140
0180A0
0082A0
01FF00
010200
020200
020400
050400
08C400
102800
001800
001400
002000
004000
008000
030000
1C0000
000000
000000
ENDCHAR

STARTCHAR Ca5c1
ENCODING 42433
SWIDTH 1000 0
DWIDTH 20 0
BBX 20 20 0 -4
BITMAP
000000
000400
000200
001C00
0FE000
002000
002000
002080
203FC0
1FE000
002000
002000
002000
004000
004000
008000
010000
060000
000000
000000
ENDCHAR

STARTCHAR Ca5c2
ENCODING 42434
SWIDTH 1000 0
DWIDTH 20 0
BBX 20 20 0 -4
BITMAP
000000
000480
000240
001D40
0FE100
002000
002000
002080
203FC0
1FE000
002000
002000
002000
004000
004000
008000
010000
060000
000000
000000
ENDCHAR

STARTCHAR Ca5c3
ENCODING 42435
SWIDTH 1000 0
DWIDTH 20 0
BBX 20 20 0 -4
BITMAP
000000
000000
000000
000000
000000
000600
008200
088200
084200
044400
040400
000400
000800
000800
001000
002000
00C000
030000
000000
000000
ENDCHAR

STARTCHAR Ca5c4
ENCODING 42436
SWIDTH 1000 0
DWIDTH 20 0
BBX 20 20 0 -4
BITMAP
000000
000000
000000
000100
010080
208080
108100
104100
084200
080200
000400
000400
000800
001000
002000
004000
018000
060000
000000
000000
ENDCHAR

STARTCHAR Ca5c5
ENCODING 42437
SWIDTH 1000 0
DWIDTH 20 0
BBX 20 20 0 -4
BITMAP
000000
000080
000240
000140
010100
208200
108100
104100
084200
080200
000400
000400
000800
001000
002000
004000
018000
060000
000000
000000
ENDCHAR

STARTCHAR Ca5c6
ENCODING 42438
SWIDTH 1000 0
DWIDTH 20 0
BBX 20 20 0 -4
BITMAP
000000
000000
000400
083E00
07C000
000000
000000
000080
201FC0
1FE000
002000
002000
002000
004000
004000
008000
010000
060000
000000
000000
ENDCHAR

STARTCHAR Ca5c7
ENCODING 42439
SWIDTH 1000 0
DWIDTH 20 0
BBX 20 20 0 -4
BITMAP
000000
000040
000520
083EA0
07C080
000000
000000
000080
201FC0
1FE000
002000
002000
002000
004000
004000
008000
010000
060000
000000
000000
ENDCHAR

STARTCHAR Ca5c8
ENCODING 42440
SWIDTH 1000 0
DWIDTH 20 0
BBX 20 20 0 -4
BITMAP
000000
000000
018000
00C000
008000
008000
008000
008000
00C000
00B000
008C00
008200
008100
008000
008000
008000
008000
008000
000000
000000
ENDCHAR

STARTCHAR Ca5c9
ENCODING 42441
SWIDTH 1000 0
DWIDTH 20 0
BBX 20 20 0 -4
BITMAP
000000
000000
018100
00C080
008480
008200
008200
008000
00C000
00B000
008C00
008200
008100
008000
008000
008000
008000
008000
000000
000000
ENDCHAR

STARTCHAR Ca5ca
ENCODING 42442
SWIDTH 1000 0
DWIDTH 20 0
BBX 20 20 0 -4
BITMAP
000000
000000
006000
002000
002000
002000
002080
203FC0
1FE000
002000
002000
002000
002000
004000
004000
008000
010000
060000
000000
000000
ENDCHAR

STARTCHAR Ca5cb
ENCODING 42443
SWIDTH 1000 0
DWIDTH 20 0
BBX 20 20 0 -4
BITMAP
000000
000000
000000
000000
000000
000400
083E00
07C000
000000
000000
000000
000000
000000
200080
1FFFC0
000000
000000
000000
000000
000000
ENDCHAR

STARTCHAR Ca5cc
ENCODING 42444
SWIDTH 1000 0
DWIDTH 20 0
BBX 20 20 0 -4
BITMAP
000000
000000
000200
081F00
07E200
000200
000200
000400
030400
00C800
002800
001000
002800
004400
008200
010100
060000
180000
000000
000000
ENDCHAR

STARTCHAR Ca5cd
ENCODING 42445
SWIDTH 1000 0
DWIDTH 20 0
BBX 20 20 0 -4
BITMAP
000000
010000
00C000
002000
000000
000800
087C00
078800
001000
002000
004000
00C800
014600
024100
0C4080
304000
004000
004000
004000
000000
ENDCHAR

STARTCHAR Ca5ce
ENCODING 42446
SWIDTH 1000 0
DWIDTH 20 0
BBX 20 20 0 -4
BITMAP
000000
000000
000600
000200
000200
000400
000400
000400
000800
000800
001000
001000
002000
004000
008000
030000
0C0000
000000
000000
000000
ENDCHAR

STARTCHAR Ca5cf
ENCODING 42447
SWIDTH 1000 0
DWIDTH 20 0
BBX 20 20 0 -4
BITMAP
000000
000000
000000
000000
020800
010400
010200
010100
020100
020080
040080
040040
080040
100040
200000
400000
000000
000000
000000
000000
ENDCHAR

STARTCHAR Ca5d0
ENCODING 42448
SWIDTH 1000 0
DWIDTH 20 0
BBX 20 20 0 -4
BITMAP
000000
000040
000120
0000A0
020880
010400
010200
010100
020100
020080
040080
040040
080040
100040
200000
400000
000000
000000
000000
000000
ENDCHAR

STARTCHAR Ca5d1
ENCODING 42449
SWIDTH 1000 0
DWIDTH 20 0
BBX 20 20 0 -4
BITMAP
000000
000180
000240
000240
020980
010400
010200
010100
020100
020080
040080
040040
080040
100040
200000
400000
000000
000000
000000
000000
ENDCHAR

STARTCHAR Ca5d2
ENCODING 42450
SWIDTH 1000 0
DWIDTH 20 0
BBX 20 20 0 -4
BITMAP
000000
000000
0C0000
040000
040200
040100
040600
041800
04E000
070000
040000
040000
040000
040000
040000
040100
03FF80
000000
000000
000000
ENDCHAR

STARTCHAR Ca5d3
ENCODING 42451
SWIDTH 1000 0
DWIDTH 20 0
BBX 20 20 0 -4
BITMAP
000000
000040
0C0120
0400A0
040280
040100
040600
041800
04E000
070000
040000
040000
040000
040000
040000
040100
03FF80
000000
000000
000000
ENDCHAR

STARTCHAR Ca5d4
ENCODING 42452
SWIDTH 1000 0
DWIDTH 20 0
BBX 20 20 0 -4
BITMAP
000000
0000C0
0C0120
040120
0404C0
040200
040400
041800
04E000
070000
040000
040000
040000
040000
040000
040100
03FF80
000000
000000
000000
ENDCHAR

STARTCHAR Ca5d5
ENCODING 42453
SWIDTH 1000 0
DWIDTH 20 0
BBX 20 20 0 -4
BITMAP
000000
000000
000000
000100
103F80
0FC100
000100
000100
000200
000200
000400
000400
000800
001000
002000
004000
018000
020000
000000
000000
ENDCHAR

STARTCHAR Ca5d6
ENCODING 42454
SWIDTH 1000 0
DWIDTH 20 0
BBX 20 20 0 -4
BITMAP
000000
000140
0000A0
0002A0
207F00
1F8200
000200
000200
000400
000400
000800
000800
001000
002000
004000
008000
030000
040000
000000
000000
ENDCHAR

STARTCHAR Ca5d7
ENCODING 42455
SWIDTH 1000 0
DWIDTH 20 0
BBX 20 20 0 -4
BITMAP
000000
0000C0
000120
000120
103FC0
0FC100
000100
000100
000200
000200
000400
000400
000800
001000
002000
004000
018000
020000
000000
000000
ENDCHAR

STARTCHAR Ca5d8
ENCODING 42456
SWIDTH 1000 0
DWIDTH 20 0
BBX 20 20 0 -4
BITMAP
000000
000000
000000
000000
000000
008000
014000
022000
021000
040800
080400
500200
200100
000080
000040
000000
000000
000000
000000
000000
ENDCHAR

STARTCHAR Ca5d9
ENCODING 42457
SWIDTH 1000 0
DWIDTH 20 0
BBX 20 20 0 -4
BITMAP
000000
000000
000000
000200
000900
008500
014400
022000
021000
040800
080400
500200
200100
000080
000040
000000
000000
000000
000000
000000
ENDCHAR

STARTCHAR Ca5da
ENCODING 42458
SWIDTH 1000 0
DWIDTH 20 0
BBX 20 20 0 -4
BITMAP
000000
000000
000000
000600
000900
008900
014600
022000
021000
040800
080400
500200
200100
000080
000040
000000
000000
000000
000000
000000
ENDCHAR

STARTCHAR Ca5db
ENCODING 42459
SWIDTH 1000 0
DWIDTH 20 0
BBX 20 20 0 -4
BITMAP
000000
006000
002000
002000
002000
002080
203FC0
1FE000
002000
002200
042100
042080
082080
082040
112040
20A000
006000
004000
000000
000000
ENDCHAR

STARTCHAR Ca5dc
ENCODING 42460
SWIDTH 1000 0
DWIDTH 20 0
BBX 20 20 0 -4
BITMAP
000000
006140
0020A0
0020A0
002000
002080
203FC0
1FE000
002000
002200
042100
042080
082080
082040
112040
20A000
006000
004000
000000
000000
ENDCHAR

STARTCHAR Ca5dd
ENCODING 42461
SWIDTH 1000 0
DWIDTH 20 0
BBX 20 20 0 -4
BITMAP
000000
0060C0
002120
002120
0020C0
002080
203FC0
1FE000
002000
002200
042100
042080
082080
082040
112040
20A000
006000
004000
000000
000000
ENDCHAR

STARTCHAR Ca5de
ENCODING 42462
SWIDTH 1000 0
DWIDTH 20 0
BBX 20 20 0 -4
BITMAP
000000
000000
000000
000000
000100
207F80
1F8100
000200
000200
000400
040800
031000
00A000
004000
002000
001000
001000
000000
000000
000000
ENDCHAR

STARTCHAR Ca5df
ENCODING 42463
SWIDTH 1000 0
DWIDTH 20 0
BBX 20 20 0 -4
BITMAP
000000
000000
000000
078000
007000
000C00
000000
000000
070000
00E000
001800
000400
000000
0E0000
01C000
003000
000C00
000200
000000
000000
ENDCHAR

STARTCHAR Ca5e0
ENCODING 42464
SWIDTH 1000 0
DWIDTH 20 0
BBX 20 20 0 -4
BITMAP
000000
000000
00C000
004000
004000
008000
008000
008000
010000
010000
010400
020200
020100
040080
040F80
28F040
3F0040
100000
000000
000000
ENDCHAR

STARTCHAR Ca5e1
ENCODING 42465
SWIDTH 1000 0
DWIDTH 20 0
BBX 20 20 0 -4
BITMAP
000000
000000
000600
000100
000200
000200
000400
030400
00C800
003000
001800
002400
004200
008100
010000
020000
0C0000
100000
000000
000000
ENDCHAR

STARTCHAR Ca5e2
ENCODING 42466
SWIDTH 1000 0
DWIDTH 20 0
BBX 20 20 0 -4
BITMAP
000000
000000
000000
000800
20FC00
1F0000
010000
010000
010000
010100
41FF80
3F0000
010000
010000
010000
010200
00FF00
000000
000000
000000
ENDCHAR

STARTCHAR Ca5e3
ENCODING 42467
SWIDTH 1000 0
DWIDTH 20 0
BBX 20 20 0 -4
BITMAP
000000
000000
000000
000000
000000
030000
010000
008200
009F00
11E200
0E8400
004800
004000
004000
004000
002000
002000
002000
000000
000000
ENDCHAR

STARTCHAR Ca5e4
ENCODING 42468
SWIDTH 1000 0
DWIDTH 20 0
BBX 20 20 0 -4
BITMAP
000000
000000
060000
020000
020100
010F80
017100
238200
1C8400
008800
009000
004000
004000
004000
004000
002000
002000
002000
000000
000000
ENDCHAR

STARTCHAR Ca5e5
ENCODING 42469
SWIDTH 1000 0
DWIDTH 20 0
BBX 20 20 0 -4
BITMAP
000000
000000
000000
000000
000000
000000
000000
040800
03FC00
000800
000800
000800
001000
001000
101100
0FFF80
000000
000000
000000
000000
ENDCHAR

STARTCHAR Ca5e6
ENCODING 42470
SWIDTH 1000 0
DWIDTH 20 0
BBX 20 20 0 -4
BITMAP
000000
000000
000000
000000
000400
087E00
078400
000400
000400
000400
000800
000800
000800
200880
1FFFC0
000000
000000
000000
000000
000000
ENDCHAR

STARTCHAR Ca5e7
ENCODING 42471
SWIDTH 1000 0
DWIDTH 20 0
BBX 20 20 0 -4
BITMAP
000000
000000
000000
000000
000000
000000
040400
03FE00
000400
000400
020400
01FC00
000400
000400
040400
03FC00
000400
000000
000000
000000
ENDCHAR

STARTCHAR Ca5e8
ENCODING 42472
SWIDTH 1000 0
DWIDTH 20 0
BBX 20 20 0 -4
BITMAP
000000
000000
000000
000200
083F00
07C200
000200
000200
000200
043E00
03C200
000200
000200
000200
080200
07FF00
000000
000000
000000
000000
ENDCHAR

STARTCHAR Ca5e9
ENCODING 42473
SWIDTH 1000 0
DWIDTH 20 0
BBX 20 20 0 -4
BITMAP
000000
000000
040400
03FE00
000000
000000
000100
103F80
0FC100
000200
000200
000400
000400
000800
001000
002000
00C000
030000
000000
000000
ENDCHAR

STARTCHAR Ca5ea
ENCODING 42474
SWIDTH 1000 0
DWIDTH 20 0
BBX 20 20 0 -4
BITMAP
000000
000000
000C00
060400
020400
020400
020400
020400
020400
020400
020400
020400
000800
000800
001000
002000
004000
018000
000000
000000
ENDCHAR

STARTCHAR Ca5eb
ENCODING 42475
SWIDTH 1000 0
DWIDTH 20 0
BBX 20 20 0 -4
BITMAP
000000
000000
003000
001000
061000
021000
021000
021000
021020
021040
021040
021080
041100
041200
081400
103800
201000
000000
000000
000000
ENDCHAR

STARTCHAR Ca5ec
ENCODING 42476
SWIDTH 1000 0
DWIDTH 20 0
BBX 20 20 0 -4
BITMAP
000000
000000
0C0000
040000
040000
040000
040000
040000
040080
040100
040200
040400
040800
043000
044000
058000
0E0000
040000
000000
000000
ENDCHAR

STARTCHAR Ca5ed
ENCODING 42477
SWIDTH 1000 0
DWIDTH 20 0
BBX 20 20 0 -4
BITMAP
000000
000000
000000
180100
0FFF80
080100
080100
080100
080100
080100
080200
080200
080200
080200
080200
0FFF00
080000
000000
000000
000000
ENDCHAR

STARTCHAR Ca5ee
ENCODING 42478
SWIDTH 1000 0
DWIDTH 20 0
BBX 20 20 0 -4
BITMAP
000000
000000
000000
000000
000000
000000
080200
07FF00
040200
040200
040200
040200
000400
000400
000800
001000
006000
008000
000000
000000
ENDCHAR

STARTCHAR Ca5ef
ENCODING 42479
SWIDTH 1000 0
DWIDTH 20 0
BBX 20 20 0 -4
BITMAP
000000
000000
000000
000100
183F80
0FC100
080100
080100
080200
080200
080200
000400
000400
000800
001000
002000
00C000
010000
000000
000000
ENDCHAR

STARTCHAR Ca5f0
ENCODING 42480
SWIDTH 1000 0
DWIDTH 20 0
BBX 20 20 0 -4
BITMAP
000000
000000
006000
002000
002000
102400
0FFE00
022000
022000
022000
022000
022100
223F80
1FE000
002000
002000
002000
002000
000000
000000
ENDCHAR

STARTCHAR Ca5f1
ENCODING 42481
SWIDTH 1000 0
DWIDTH 20 0
BBX 20 20 0 -4
BITMAP
000000
000000
000000
000000
100200
0FFF00
000400
001800
00A000
004000
004000
004000
004000
004000
204080
1FFFC0
000000
000000
000000
000000
ENDCHAR

STARTCHAR Ca5f2
ENCODING 42482
SWIDTH 1000 0
DWIDTH 20 0
BBX 20 20 0 -4
BITMAP
000000
000000
000000
100100
0FFF80
000100
000100
000100
083E00
07C200
000200
000400
000400
000800
001000
002000
00C000
030000
000000
000000
ENDCHAR

STARTCHAR Ca5f3
ENCODING 42483
SWIDTH 1000 0
DWIDTH 20 0
BBX 20 20 0 -4
BITMAP
000000
000000
000000
000000
100000
080000
040080
020100
000100
000200
000400
000800
001000
002000
00C000
130000
0C0000
000000
000000
000000
ENDCHAR

STARTCHAR Ca5f4
ENCODING 42484
SWIDTH 1000 0
DWIDTH 20 0
BBX 20 20 0 -4
BITMAP
000000
000140
00C0A0
0040A0
004100
187F80
0F8100
080100
080100
080100
080200
080200
000400
000400
000800
001000
006000
018000
000000
000000
ENDCHAR

STARTCHAR Ca5f5
ENCODING 42485
SWIDTH 1000 0
DWIDTH 20 0
BBX 20 20 0 -4
BITMAP
000000
000000
000000
000000
00C000
004000
004000
004200
087F00
07C200
004200
008200
008200
010200
012400
021400
040C00
080800
000000
000000
ENDCHAR

STARTCHAR Ca5f6
ENCODING 42486
SWIDTH 1000 0
DWIDTH 20 0
BBX 20 20 0 -4
BITMAP
000000
000000
000000
000000
030000
010000
010000
020200
03FF00
041000
041000
081000
101000
002000
002000
004000
008000
030000
000000
000000
ENDCHAR

STARTCHAR Ca6a1
ENCODING 42657
SWIDTH 1000 0
DWIDTH 20 0
BBX 20 20 0 -4
BITMAP
000000
000000
004000
004000
00A000
00A000
00A000
011000
011000
020800
020800
07FC00
040400
040400
080200
3E0F80
000000
000000
000000
000000
ENDCHAR

STARTCHAR Ca6a2
ENCODING 42658
SWIDTH 1000 0
DWIDTH 20 0
BBX 20 20 0 -4
BITMAP
000000
000000
0FF000
020800
020400
020400
020400
020800
03F800
020400
020200
020200
020200
020200
020400
0FF800
000000
000000
000000
000000
ENDCHAR

STARTCHAR Ca6a3
ENCODING 42659
SWIDTH 1000 0
DWIDTH 20 0
BBX 20 20 0 -4
BITMAP
000000
000000
07FE00
010200
010200
010000
010000
010000
010000
010000
010000
010000
010000
010000
010000
07E000
000000
000000
000000
000000
ENDCHAR

STARTCHAR Ca6a4
ENCODING 42660
SWIDTH 1000 0
DWIDTH 20 0
BBX 20 20 0 -4
BITMAP
000000
000000
004000
004000
00A000
00A000
011000
011000
020800
020800
040400
040400
080200
080200
100100
1FFF00
000000
000000
000000
000000
ENDCHAR

STARTCHAR Ca6a5
ENCODING 42661
SWIDTH 1000 0
DWIDTH 20 0
BBX 20 20 0 -4
BITMAP
000000
000000
0FFE00
020200
020200
020000
020800
020800
03F800
020800
020800
020000
020000
020200
020200
0FFE00
000000
000000
000000
000000
ENDCHAR

STARTCHAR Ca6a6
ENCODING 42662
SWIDTH 1000 0
DWIDTH 20 0
BBX 20 20 0 -4
BITMAP
000000
000000
0FFE00
080400
080800
001000
002000
002000
004000
008000
010000
010000
020000
040200
080200
1FFE00
000000
000000
000000
000000
ENDCHAR

STARTCHAR Ca6a7
ENCODING 42663
SWIDTH 1000 0
DWIDTH 20 0
BBX 20 20 0 -4
BITMAP
000000
000000
1F0F80
040200
040200
040200
040200
040200
07FE00
040200
040200
040200
040200
040200
040200
1F0F80
000000
000000
000000
000000
ENDCHAR

STARTCHAR Ca6a8
ENCODING 42664
SWIDTH 1000 0
DWIDTH 20 0
BBX 20 20 0 -4
BITMAP
000000
000000
01F000
060C00
080200
080200
100100
120900
13F900
120900
100100
100100
080200
080200
060C00
01F000
000000
000000
000000
000000
ENDCHAR

STARTCHAR Ca6a9
ENCODING 42665
SWIDTH 1000 0
DWIDTH 20 0
BBX 20 20 0 -4
BITMAP
000000
000000
03F800
004000
004000
004000
004000
004000
004000
004000
004000
004000
004000
004000
004000
03F800
000000
000000
000000
000000
ENDCHAR

STARTCHAR Ca6aa
ENCODING 42666
SWIDTH 1000 0
DWIDTH 20 0
BBX 20 20 0 -4
BITMAP
000000
000000
1F1F00
040400
040800
041000
042000
044000
04A000
051000
061000
040800
040400
040400
040200
1F0F80
000000
000000
000000
000000
ENDCHAR

STARTCHAR Ca6ab
ENCODING 42667
SWIDTH 1000 0
DWIDTH 20 0
BBX 20 20 0 -4
BITMAP
000000
000000
004000
004000
00A000
00A000
011000
011000
020800
020800
020800
040400
040400
080200
080200
3E0F80
000000
000000
000000
000000
ENDCHAR

STARTCHAR Ca6ac
ENCODING 42668
SWIDTH 1000 0
DWIDTH 20 0
BBX 20 20 0 -4
BITMAP
000000
000000
7001C0
100100
180300
140500
140500
120900
120900
111100
111100
10A100
10A100
104100
104100
7C07C0
000000
000000
000000
000000
ENDCHAR

STARTCHAR Ca6ad
ENCODING 42669
SWIDTH 1000 0
DWIDTH 20 0
BBX 20 20 0 -4
BITMAP
000000
000000
380F80
0C0200
0A0200
090200
090200
088200
084200
084200
082200
081200
081200
080A00
080600
3E0200
000000
000000
000000
000000
ENDCHAR

STARTCHAR Ca6ae
ENCODING 42670
SWIDTH 1000 0
DWIDTH 20 0
BBX 20 20 0 -4
BITMAP
000000
000000
0FFE00
080200
080200
000000
000000
020800
03F800
020800
000000
000000
000000
080200
080200
0FFE00
000000
000000
000000
000000
ENDCHAR

STARTCHAR Ca6af
ENCODING 42671
SWIDTH 1000 0
DWIDTH 20 0
BBX 20 20 0 -4
BITMAP
000000
000000
01F000
060C00
080200
080200
100100
100100
100100
100100
100100
100100
080200
080200
060C00
01F000
000000
000000
000000
000000
ENDCHAR

STARTCHAR Ca6b0
ENCODING 42672
SWIDTH 1000 0
DWIDTH 20 0
BBX 20 20 0 -4
BITMAP
000000
000000
1FFF00
040400
040400
040400
040400
040400
040400
040400
040400
040400
040400
040400
040400
1F1F00
000000
000000
000000
000000
ENDCHAR

STARTCHAR Ca6b1
ENCODING 42673
SWIDTH 1000 0
DWIDTH 20 0
BBX 20 20 0 -4
BITMAP
000000
000000
0FF800
020400
020200
020200
020200
020200
020400
03F800
020000
020000
020000
020000
020000
0FC000
000000
000000
000000
000000
ENDCHAR

STARTCHAR Ca6b2
ENCODING 42674
SWIDTH 1000 0
DWIDTH 20 0
BBX 20 20 0 -4
BITMAP
000000
000000
1FFE00
080200
040200
020000
010000
008000
004000
004000
008000
010000
020000
040200
080200
1FFE00
000000
000000
000000
000000
ENDCHAR

STARTCHAR Ca6b3
ENCODING 42675
SWIDTH 1000 0
DWIDTH 20 0
BBX 20 20 0 -4
BITMAP
000000
000000
1FFF00
104100
104100
004000
004000
004000
004000
004000
004000
004000
004000
004000
004000
01F000
000000
000000
000000
000000
ENDCHAR

STARTCHAR Ca6b4
ENCODING 42676
SWIDTH 1000 0
DWIDTH 20 0
BBX 20 20 0 -4
BITMAP
000000
000000
060C00
091200
10A100
104100
004000
004000
004000
004000
004000
004000
004000
004000
004000
01F000
000000
000000
000000
000000
ENDCHAR

STARTCHAR Ca6b5
ENCODING 42677
SWIDTH 1000 0
DWIDTH 20 0
BBX 20 20 0 -4
BITMAP
000000
000000
01F000
004000
004000
03F800
0C4600
084200
104100
104100
084200
0C4600
03F800
004000
004000
01F000
000000
000000
000000
000000
ENDCHAR

STARTCHAR Ca6b6
ENCODING 42678
SWIDTH 1000 0
DWIDTH 20 0
BBX 20 20 0 -4
BITMAP
000000
000000
1F1F00
040400
020800
011000
011000
00A000
004000
00A000
011000
011000
020800
040400
080200
3E0F80
000000
000000
000000
000000
ENDCHAR

STARTCHAR Ca6b7
ENCODING 42679
SWIDTH 1000 0
DWIDTH 20 0
BBX 20 20 0 -4
BITMAP
000000
000000
18E300
244480
044400
044400
044400
044400
044400
044400
024800
01F000
004000
004000
004000
01F000
000000
000000
000000
000000
ENDCHAR

STARTCHAR Ca6b8
ENCODING 42680
SWIDTH 1000 0
DWIDTH 20 0
BBX 20 20 0 -4
BITMAP
000000
000000
00E000
031800
040400
080200
080200
100100
100100
100100
080200
080200
040400
120900
111100
1F1F00
000000
000000
000000
000000
ENDCHAR

STARTCHAR Ca6b9
ENCODING 42681
SWIDTH 1000 0
DWIDTH 20 0
BBX 20 20 0 -4
BITMAP
000000
000000
000000
000000
000000
000000
000000
000000
000000
000000
000000
000000
000000
000000
000000
000000
000000
000000
000000
000000
ENDCHAR

STARTCHAR Ca6ba
ENCODING 42682
SWIDTH 1000 0
DWIDTH 20 0
BBX 20 20 0 -4
BITMAP
000000
000000
000000
000000
000000
000000
000000
000000
000000
000000
000000
000000
000000
000000
000000
000000
000000
000000
000000
000000
ENDCHAR

STARTCHAR Ca6bb
ENCODING 42683
SWIDTH 1000 0
DWIDTH 20 0
BBX 20 20 0 -4
BITMAP
000000
000000
000000
000000
000000
000000
000000
000000
000000
000000
000000
000000
000000
000000
000000
000000
000000
000000
000000
000000
ENDCHAR

STARTCHAR Ca6bc
ENCODING 42684
SWIDTH 1000 0
DWIDTH 20 0
BBX 20 20 0 -4
BITMAP
000000
000000
000000
000000
000000
000000
000000
000000
000000
000000
000000
000000
000000
000000
000000
000000
000000
000000
000000
000000
ENDCHAR

STARTCHAR Ca6bd
ENCODING 42685
SWIDTH 1000 0
DWIDTH 20 0
BBX 20 20 0 -4
BITMAP
000000
000000
000000
000000
000000
000000
000000
000000
000000
000000
000000
000000
000000
000000
000000
000000
000000
000000
000000
000000
ENDCHAR

STARTCHAR Ca6be
ENCODING 42686
SWIDTH 1000 0
DWIDTH 20 0
BBX 20 20 0 -4
BITMAP
000000
000000
000000
000000
000000
000000
000000
000000
000000
000000
000000
000000
000000
000000
000000
000000
000000
000000
000000
000000
ENDCHAR

STARTCHAR Ca6bf
ENCODING 42687
SWIDTH 1000 0
DWIDTH 20 0
BBX 20 20 0 -4
BITMAP
000000
000000
000000
000000
000000
000000
000000
000000
000000
000000
000000
000000
000000
000000
000000
000000
000000
000000
000000
000000
ENDCHAR

STARTCHAR Ca6c0
ENCODING 42688
SWIDTH 1000 0
DWIDTH 20 0
BBX 20 20 0 -4
BITMAP
000000
000000
000000
000000
000000
000000
000000
000000
000000
000000
000000
000000
000000
000000
000000
000000
000000
000000
000000
000000
ENDCHAR

STARTCHAR Ca6c1
ENCODING 42689
SWIDTH 1000 0
DWIDTH 20 0
BBX 20 20 0 -4
BITMAP
000000
000000
000000
000000
000000
000000
000000
00E200
011200
021400
021400
041800
041000
043000
045200
038C00
000000
000000
000000
000000
ENDCHAR

STARTCHAR Ca6c2
ENCODING 42690
SWIDTH 1000 0
DWIDTH 20 0
BBX 20 20 0 -4
BITMAP
000000
000000
003800
004400
008200
008200
010200
010400
013800
020800
020400
020400
020400
020400
050800
04F000
040000
040000
040000
000000
ENDCHAR

STARTCHAR Ca6c3
ENCODING 42691
SWIDTH 1000 0
DWIDTH 20 0
BBX 20 20 0 -4
BITMAP
000000
000000
000000
000000
000000
000000
000000
018200
024400
044800
005000
006000
004000
004000
008000
008000
008000
010000
010000
000000
ENDCHAR

STARTCHAR Ca6c4
ENCODING 42692
SWIDTH 1000 0
DWIDTH 20 0
BBX 20 20 0 -4
BITMAP
000000
000000
00E000
011800
010400
008000
004000
00E000
011000
020800
020800
040800
041000
041000
022000
01C000
000000
000000
000000
000000
ENDCHAR

STARTCHAR Ca6c5
ENCODING 42693
SWIDTH 1000 0
DWIDTH 20 0
BBX 20 20 0 -4
BITMAP
000000
000000
000000
000000
000000
000000
000000
00F000
010800
010000
008000
01E000
020000
020000
020800
01F000
000000
000000
000000
000000
ENDCHAR

STARTCHAR Ca6c6
ENCODING 42694
SWIDTH 1000 0
DWIDTH 20 0
BBX 20 20 0 -4
BITMAP
000000
000000
004300
008600
008C00
007000
002000
004000
004000
008000
010000
010000
020000
020000
01C000
003800
000400
010400
00F800
000000
ENDCHAR

STARTCHAR Ca6c7
ENCODING 42695
SWIDTH 1000 0
DWIDTH 20 0
BBX 20 20 0 -4
BITMAP
000000
000000
000000
000000
000000
000000
000000
063800
094400
018400
010400
010800
020800
020800
041000
041000
001000
002000
002000
000000
ENDCHAR

STARTCHAR Ca6c8
ENCODING 42696
SWIDTH 1000 0
DWIDTH 20 0
BBX 20 20 0 -4
BITMAP
000000
000000
007000
008800
010400
010400
020400
020400
03FC00
040800
040800
040800
041000
041000
022000
01C000
000000
000000
000000
000000
ENDCHAR

STARTCHAR Ca6c9
ENCODING 42697
SWIDTH 1000 0
DWIDTH 20 0
BBX 20 20 0 -4
BITMAP
000000
000000
000000
000000
000000
000000
000000
006000
004000
008000
008000
008000
010000
010800
011000
00E000
000000
000000
000000
000000
ENDCHAR

STARTCHAR Ca6ca
ENCODING 42698
SWIDTH 1000 0
DWIDTH 20 0
BBX 20 20 0 -4
BITMAP
000000
000000
000000
000000
000000
000000
000000
010C00
013000
014000
028000
038000
024000
042000
042400
041800
000000
000000
000000
000000
ENDCHAR

STARTCHAR Ca6cb
ENCODING 42699
SWIDTH 1000 0
DWIDTH 20 0
BBX 20 20 0 -4
BITMAP
000000
000000
01C000
022000
042000
002000
002000
002000
005000
009000
009000
011000
021000
020800
040900
080600
000000
000000
000000
000000
ENDCHAR

STARTCHAR Ca6cc
ENCODING 42700
SWIDTH 1000 0
DWIDTH 20 0
BBX 20 20 0 -4
BITMAP
000000
000000
000000
000000
000000
000000
000000
010400
010400
010400
020800
020800
020800
041000
062900
05C600
080000
080000
080000
000000
ENDCHAR

STARTCHAR Ca6cd
ENCODING 42701
SWIDTH 1000 0
DWIDTH 20 0
BBX 20 20 0 -4
BITMAP
000000
000000
000000
000000
000000
000000
000000
060C00
090400
010400
010800
010800
011000
012000
01C000
030000
000000
000000
000000
000000
ENDCHAR

STARTCHAR Ca6ce
ENCODING 42702
SWIDTH 1000 0
DWIDTH 20 0
BBX 20 20 0 -4
BITMAP
000000
000000
003000
004000
002000
00D800
010000
010000
008000
007000
018000
020000
020000
020000
018000
007000
000800
010800
00F000
000000
ENDCHAR

STARTCHAR Ca6cf
ENCODING 42703
SWIDTH 1000 0
DWIDTH 20 0
BBX 20 20 0 -4
BITMAP
000000
000000
000000
000000
000000
000000
000000
007000
008800
010400
010400
020400
020800
020800
011000
00E000
000000
000000
000000
000000
ENDCHAR

STARTCHAR Ca6d0
ENCODING 42704
SWIDTH 1000 0
DWIDTH 20 0
BBX 20 20 0 -4
BITMAP
000000
000000
000000
000000
000000
000000
000200
03FC00
049000
009000
011000
012000
012000
022200
022400
041800
000000
000000
000000
000000
ENDCHAR

STARTCHAR Ca6d1
ENCODING 42705
SWIDTH 1000 0
DWIDTH 20 0
BBX 20 20 0 -4
BITMAP
000000
000000
000000
000000
000000
000000
000000
007000
008800
010400
010400
020400
020800
020800
051000
04E000
040000
040000
040000
000000
ENDCHAR

STARTCHAR Ca6d2
ENCODING 42706
SWIDTH 1000 0
DWIDTH 20 0
BBX 20 20 0 -4
BITMAP
000000
000000
000000
000000
000000
000000
000000
00FC00
011000
020800
020800
040800
041000
041000
022000
01C000
000000
000000
000000
000000
ENDCHAR

STARTCHAR Ca6d3
ENCODING 42707
SWIDTH 1000 0
DWIDTH 20 0
BBX 20 20 0 -4
BITMAP
000000
000000
000000
000000
000000
000000
000000
03FC00
044000
004000
008000
008000
010000
010800
011000
00E000
000000
000000
000000
000000
ENDCHAR

STARTCHAR Ca6d4
ENCODING 42708
SWIDTH 1000 0
DWIDTH 20 0
BBX 20 20 0 -4
BITMAP
000000
000000
000000
000000
000000
000000
000000
030800
048400
008400
010400
010400
020800
020800
021000
01E000
000000
000000
000000
000000
ENDCHAR

STARTCHAR Ca6d5
ENCODING 42709
SWIDTH 1000 0
DWIDTH 20 0
BBX 20 20 0 -4
BITMAP
000000
000000
000000
000800
000800
001000
001000
00F800
012400
022200
042200
044200
044400
024800
01F000
008000
008000
010000
010000
000000
ENDCHAR

STARTCHAR Ca6d6
ENCODING 42710
SWIDTH 1000 0
DWIDTH 20 0
BBX 20 20 0 -4
BITMAP
000000
000000
000000
000000
000000
000000
000000
018200
024400
044800
005000
006000
004000
004000
00A000
012000
022200
042400
081800
000000
ENDCHAR

STARTCHAR Ca6d7
ENCODING 42711
SWIDTH 1000 0
DWIDTH 20 0
BBX 20 20 0 -4
BITMAP
000000
000000
000000
000800
000800
001000
001000
011400
022200
022200
042200
044200
044400
024800
01F000
008000
008000
010000
010000
000000
ENDCHAR

STARTCHAR Ca6d8
ENCODING 42712
SWIDTH 1000 0
DWIDTH 20 0
BBX 20 20 0 -4
BITMAP
000000
000000
000000
000000
000000
000000
000000
010400
020200
040200
042100
082100
084100
084200
04A400
031800
000000
000000
000000
000000
ENDCHAR

STARTCHAR Ca7a1
ENCODING 42913
SWIDTH 1000 0
DWIDTH 20 0
BBX 20 20 0 -4
BITMAP
000000
000000
004000
004000
00A000
00A000
00A000
011000
011000
020800
020800
07FC00
040400
040400
080200
3E0F80
000000
000000
000000
000000
ENDCHAR

STARTCHAR Ca7a2
ENCODING 42914
SWIDTH 1000 0
DWIDTH 20 0
BBX 20 20 0 -4
BITMAP
000000
000000
0FFC00
020400
020400
020000
020000
020000
03F800
020400
020200
020200
020200
020200
020400
0FF800
000000
000000
000000
000000
ENDCHAR

STARTCHAR Ca7a3
ENCODING 42915
SWIDTH 1000 0
DWIDTH 20 0
BBX 20 20 0 -4
BITMAP
000000
000000
0FF000
020800
020400
020400
020400
020800
03F800
020400
020200
020200
020200
020200
020400
0FF800
000000
000000
000000
000000
ENDCHAR

STARTCHAR Ca7a4
ENCODING 42916
SWIDTH 1000 0
DWIDTH 20 0
BBX 20 20 0 -4
BITMAP
000000
000000
07FE00
010200
010200
010000
010000
010000
010000
010000
010000
010000
010000
010000
010000
07E000
000000
000000
000000
000000
ENDCHAR

STARTCHAR Ca7a5
ENCODING 42917
SWIDTH 1000 0
DWIDTH 20 0
BBX 20 20 0 -4
BITMAP
000000
000000
07FF00
010400
010400
010400
010400
010400
010400
020400
020400
020400
040400
040400
080400
3FFF00
200100
200100
000000
000000
ENDCHAR

STARTCHAR Ca7a6
ENCODING 42918
SWIDTH 1000 0
DWIDTH 20 0
BBX 20 20 0 -4
BITMAP
000000
000000
0FFE00
020200
020200
020000
020800
020800
03F800
020800
020800
020000
020000
020200
020200
0FFE00
000000
000000
000000
000000
ENDCHAR

STARTCHAR Ca7a7
ENCODING 42919
SWIDTH 1000 0
DWIDTH 20 0
BBX 20 20 0 -4
BITMAP
000000
011000
0FFE00
020200
020200
020000
020800
020800
03F800
020800
020800
020000
020000
020200
020200
0FFE00
000000
000000
000000
000000
ENDCHAR

STARTCHAR Ca7a8
ENCODING 42920
SWIDTH 1000 0
DWIDTH 20 0
BBX 20 20 0 -4
BITMAP
000000
000000
31F180
484240
084200
044400
044400
024800
01F000
024800
024800
044400
084200
084200
104100
79F3C0
000000
000000
000000
000000
ENDCHAR

STARTCHAR Ca7a9
ENCODING 42921
SWIDTH 1000 0
DWIDTH 20 0
BBX 20 20 0 -4
BITMAP
000000
000000
03E000
041000
080800
0C0800
000800
001000
01F000
000800
000400
000400
0C0400
080400
040800
03F000
000000
000000
000000
000000
ENDCHAR

STARTCHAR Ca7aa
ENCODING 42922
SWIDTH 1000 0
DWIDTH 20 0
BBX 20 20 0 -4
BITMAP
000000
000000
3E0F80
080200
080600
080A00
081200
082200
084200
084200
088200
090200
0A0200
0C0200
080200
3E0F80
000000
000000
000000
000000
ENDCHAR

STARTCHAR Ca7ab
ENCODING 42923
SWIDTH 1000 0
DWIDTH 20 0
BBX 20 20 0 -4
BITMAP
000000
01B000
3D1780
08E200
080600
080A00
081200
082200
084200
084200
088200
090200
0A0200
0C0200
080200
3E0F80
000000
000000
000000
000000
ENDCHAR

STARTCHAR Ca7ac
ENCODING 42924
SWIDTH 1000 0
DWIDTH 20 0
BBX 20 20 0 -4
BITMAP
000000
000000
1F0600
040900
040B00
041000
041000
042000
07C000
042000
041000
041000
040800
040400
040200
1F0F80
000000
000000
000000
000000
ENDCHAR

STARTCHAR Ca7ad
ENCODING 42925
SWIDTH 1000 0
DWIDTH 20 0
BBX 20 20 0 -4
BITMAP
000000
000000
07FF00
008400
008400
008400
008400
008400
008400
010400
010400
010400
010400
320400
220400
1C1F00
000000
000000
000000
000000
ENDCHAR

STARTCHAR Ca7ae
ENCODING 42926
SWIDTH 1000 0
DWIDTH 20 0
BBX 20 20 0 -4
BITMAP
000000
000000
380380
0C0600
0C0600
0A0A00
0A0A00
0A0A00
091200
091200
10A100
10A100
10A100
104100
104100
7C07C0
000000
000000
000000
000000
ENDCHAR

STARTCHAR Ca7af
ENCODING 42927
SWIDTH 1000 0
DWIDTH 20 0
BBX 20 20 0 -4
BITMAP
000000
000000
1F0F80
040200
040200
040200
040200
040200
07FE00
040200
040200
040200
040200
040200
040200
1F0F80
000000
000000
000000
000000
ENDCHAR

STARTCHAR Ca7b0
ENCODING 42928
SWIDTH 1000 0
DWIDTH 20 0
BBX 20 20 0 -4
BITMAP
000000
000000
01F000
060C00
080200
080200
100100
100100
100100
100100
100100
100100
080200
080200
060C00
01F000
000000
000000
000000
000000
ENDCHAR

STARTCHAR Ca7b1
ENCODING 42929
SWIDTH 1000 0
DWIDTH 20 0
BBX 20 20 0 -4
BITMAP
000000
000000
1FFF00
040400
040400
040400
040400
040400
040400
040400
040400
040400
040400
040400
040400
1F1F00
000000
000000
000000
000000
ENDCHAR

STARTCHAR Ca7b2
ENCODING 42930
SWIDTH 1000 0
DWIDTH 20 0
BBX 20 20 0 -4
BITMAP
000000
000000
0FF800
020400
020200
020200
020200
020200
020400
03F800
020000
020000
020000
020000
020000
0FC000
000000
000000
000000
000000
ENDCHAR

STARTCHAR Ca7b3
ENCODING 42931
SWIDTH 1000 0
DWIDTH 20 0
BBX 20 20 0 -4
BITMAP
000000
000000
00F800
030400
040300
040100
080100
080000
080000
080000
080000
080100
040100
040300
030400
00F800
000000
000000
000000
000000
ENDCHAR

STARTCHAR Ca7b4
ENCODING 42932
SWIDTH 1000 0
DWIDTH 20 0
BBX 20 20 0 -4
BITMAP
000000
000000
1FFF00
104100
104100
004000
004000
004000
004000
004000
004000
004000
004000
004000
004000
01F000
000000
000000
000000
000000
ENDCHAR

STARTCHAR Ca7b5
ENCODING 42933
SWIDTH 1000 0
DWIDTH 20 0
BBX 20 20 0 -4
BITMAP
000000
000000
1F07C0
040100
020200
020200
010400
010400
008800
008800
005000
002000
002000
064000
044000
038000
000000
000000
000000
000000
ENDCHAR

STARTCHAR Ca7b6
ENCODING 42934
SWIDTH 1000 0
DWIDTH 20 0
BBX 20 20 0 -4
BITMAP
000000
000000
01F000
004000
004000
03F800
0C4600
084200
104100
104100
084200
0C4600
03F800
004000
004000
01F000
000000
000000
000000
000000
ENDCHAR

STARTCHAR Ca7b7
ENCODING 42935
SWIDTH 1000 0
DWIDTH 20 0
BBX 20 20 0 -4
BITMAP
000000
000000
1F1F00
040400
020800
011000
011000
00A000
004000
00A000
011000
011000
020800
040400
080200
3E0F80
000000
000000
000000
000000
ENDCHAR

STARTCHAR Ca7b8
ENCODING 42936
SWIDTH 1000 0
DWIDTH 20 0
BBX 20 20 0 -4
BITMAP
000000
000000
1F1F00
040400
040400
040400
040400
040400
040400
040400
040400
040400
040400
040400
040400
1FFF00
000100
000100
000000
000000
ENDCHAR

STARTCHAR Ca7b9
ENCODING 42937
SWIDTH 1000 0
DWIDTH 20 0
BBX 20 20 0 -4
BITMAP
000000
000000
1F1F00
040400
040400
040400
040400
040400
040400
040400
020C00
01F400
000400
000400
000400
001F00
000000
000000
000000
000000
ENDCHAR

STARTCHAR Ca7ba
ENCODING 42938
SWIDTH 1000 0
DWIDTH 20 0
BBX 20 20 0 -4
BITMAP
000000
000000
3CE780
084200
084200
084200
084200
084200
084200
084200
084200
084200
084200
084200
084200
3FFF80
000000
000000
000000
000000
ENDCHAR

STARTCHAR Ca7bb
ENCODING 42939
SWIDTH 1000 0
DWIDTH 20 0
BBX 20 20 0 -4
BITMAP
000000
000000
3CE780
084200
084200
084200
084200
084200
084200
084200
084200
084200
084200
084200
084200
3FFF80
000080
000080
000000
000000
ENDCHAR

STARTCHAR Ca7bc
ENCODING 42940
SWIDTH 1000 0
DWIDTH 20 0
BBX 20 20 0 -4
BITMAP
000000
000000
1FC000
110000
110000
010000
010000
010000
01FC00
010200
010100
010100
010100
010100
010200
07FC00
000000
000000
000000
000000
ENDCHAR

STARTCHAR Ca7bd
ENCODING 42941
SWIDTH 1000 0
DWIDTH 20 0
BBX 20 20 0 -4
BITMAP
000000
000000
3E0F80
080200
080200
080200
080200
080200
0FC200
082200
081200
081200
081200
081200
082200
3FCF80
000000
000000
000000
000000
ENDCHAR

STARTCHAR Ca7be
ENCODING 42942
SWIDTH 1000 0
DWIDTH 20 0
BBX 20 20 0 -4
BITMAP
000000
000000
0F8000
020000
020000
020000
020000
020000
03F800
020400
020200
020200
020200
020200
020400
0FF800
000000
000000
000000
000000
ENDCHAR

STARTCHAR Ca7bf
ENCODING 42943
SWIDTH 1000 0
DWIDTH 20 0
BBX 20 20 0 -4
BITMAP
000000
000000
00F000
030C00
0C0200
080200
080100
01C100
022300
001D00
000100
080100
080200
0C0200
030C00
00F000
000000
000000
000000
000000
ENDCHAR

STARTCHAR Ca7c0
ENCODING 42944
SWIDTH 1000 0
DWIDTH 20 0
BBX 20 20 0 -4
BITMAP
000000
000000
3E1C00
082200
084100
084100
088080
088080
0F8080
088080
088080
088080
084100
084100
082200
3E1C00
000000
000000
000000
000000
ENDCHAR

STARTCHAR Ca7c1
ENCODING 42945
SWIDTH 1000 0
DWIDTH 20 0
BBX 20 20 0 -4
BITMAP
000000
000000
01FF00
020400
040400
040400
040400
040400
020400
01FC00
008400
010400
010400
020400
040400
081F00
000000
000000
000000
000000
ENDCHAR

STARTCHAR Ca7c2
ENCODING 42946
SWIDTH 1000 0
DWIDTH 20 0
BBX 20 20 0 -4
BITMAP
000000
000000
000000
000000
000000
000000
000000
000000
000000
000000
000000
000000
000000
000000
000000
000000
000000
000000
000000
000000
ENDCHAR

STARTCHAR Ca7c3
ENCODING 42947
SWIDTH 1000 0
DWIDTH 20 0
BBX 20 20 0 -4
BITMAP
000000
000000
000000
000000
000000
000000
000000
000000
000000
000000
000000
000000
000000
000000
000000
000000
000000
000000
000000
000000
ENDCHAR

STARTCHAR Ca7c4
ENCODING 42948
SWIDTH 1000 0
DWIDTH 20 0
BBX 20 20 0 -4
BITMAP
000000
000000
000000
000000
000000
000000
000000
000000
000000
000000
000000
000000
000000
000000
000000
000000
000000
000000
000000
000000
ENDCHAR

STARTCHAR Ca7c5
ENCODING 42949
SWIDTH 1000 0
DWIDTH 20 0
BBX 20 20 0 -4
BITMAP
000000
000000
000000
000000
000000
000000
000000
000000
000000
000000
000000
000000
000000
000000
000000
000000
000000
000000
000000
000000
ENDCHAR

STARTCHAR Ca7c6
ENCODING 42950
SWIDTH 1000 0
DWIDTH 20 0
BBX 20 20 0 -4
BITMAP
000000
000000
000000
000000
000000
000000
000000
000000
000000
000000
000000
000000
000000
000000
000000
000000
000000
000000
000000
000000
ENDCHAR

STARTCHAR Ca7c7
ENCODING 42951
SWIDTH 1000 0
DWIDTH 20 0
BBX 20 20 0 -4
BITMAP
000000
000000
000000
000000
000000
000000
000000
000000
000000
000000
000000
000000
000000
000000
000000
000000
000000
000000
000000
000000
ENDCHAR

STARTCHAR Ca7c8
ENCODING 42952
SWIDTH 1000 0
DWIDTH 20 0
BBX 20 20 0 -4
BITMAP
000000
000000
000000
000000
000000
000000
000000
000000
000000
000000
000000
000000
000000
000000
000000
000000
000000
000000
000000
000000
ENDCHAR

STARTCHAR Ca7c9
ENCODING 42953
SWIDTH 1000 0
DWIDTH 20 0
BBX 20 20 0 -4
BITMAP
000000
000000
000000
000000
000000
000000
000000
000000
000000
000000
000000
000000
000000
000000
000000
000000
000000
000000
000000
000000
ENDCHAR

STARTCHAR Ca7ca
ENCODING 42954
SWIDTH 1000 0
DWIDTH 20 0
BBX 20 20 0 -4
BITMAP
000000
000000
000000
000000
000000
000000
000000
000000
000000
000000
000000
000000
000000
000000
000000
000000
000000
000000
000000
000000
ENDCHAR

STARTCHAR Ca7cb
ENCODING 42955
SWIDTH 1000 0
DWIDTH 20 0
BBX 20 20 0 -4
BITMAP
000000
000000
000000
000000
000000
000000
000000
000000
000000
000000
000000
000000
000000
000000
000000
000000
000000
000000
000000
000000
ENDCHAR

STARTCHAR Ca7cc
ENCODING 42956
SWIDTH 1000 0
DWIDTH 20 0
BBX 20 20 0 -4
BITMAP
000000
000000
000000
000000
000000
000000
000000
000000
000000
000000
000000
000000
000000
000000
000000
000000
000000
000000
000000
000000
ENDCHAR

STARTCHAR Ca7cd
ENCODING 42957
SWIDTH 1000 0
DWIDTH 20 0
BBX 20 20 0 -4
BITMAP
000000
000000
000000
000000
000000
000000
000000
000000
000000
000000
000000
000000
000000
000000
000000
000000
000000
000000
000000
000000
ENDCHAR

STARTCHAR Ca7ce
ENCODING 42958
SWIDTH 1000 0
DWIDTH 20 0
BBX 20 20 0 -4
BITMAP
000000
000000
000000
000000
000000
000000
000000
000000
000000
000000
000000
000000
000000
000000
000000
000000
000000
000000
000000
000000
ENDCHAR

STARTCHAR Ca7cf
ENCODING 42959
SWIDTH 1000 0
DWIDTH 20 0
BBX 20 20 0 -4
BITMAP
000000
000000
000000
000000
000000
000000
000000
000000
000000
000000
000000
000000
000000
000000
000000
000000
000000
000000
000000
000000
ENDCHAR

STARTCHAR Ca7d0
ENCODING 42960
SWIDTH 1000 0
DWIDTH 20 0
BBX 20 20 0 -4
BITMAP
000000
000000
000000
000000
000000
000000
000000
000000
000000
000000
000000
000000
000000
000000
000000
000000
000000
000000
000000
000000
ENDCHAR

STARTCHAR Ca7d1
ENCODING 42961
SWIDTH 1000 0
DWIDTH 20 0
BBX 20 20 0 -4
BITMAP
000000
000000
000000
000000
000000
000000
000000
01E000
021000
030800
000800
01F800
020800
040800
041800
03EC00
000000
000000
000000
000000
ENDCHAR

STARTCHAR Ca7d2
ENCODING 42962
SWIDTH 1000 0
DWIDTH 20 0
BBX 20 20 0 -4
BITMAP
000000
000000
001000
002000
01C000
020000
040000
04E000
051000
060800
040800
040800
040800
040800
021000
01E000
000000
000000
000000
000000
ENDCHAR

STARTCHAR Ca7d3
ENCODING 42963
SWIDTH 1000 0
DWIDTH 20 0
BBX 20 20 0 -4
BITMAP
000000
000000
000000
000000
000000
000000
000000
07E000
021000
021000
022000
03F000
020800
020800
020800
07F000
000000
000000
000000
000000
ENDCHAR

STARTCHAR Ca7d4
ENCODING 42964
SWIDTH 1000 0
DWIDTH 20 0
BBX 20 20 0 -4
BITMAP
000000
000000
000000
000000
000000
000000
000000
03F800
010800
010000
010000
010000
010000
010000
010000
03C000
000000
000000
000000
000000
ENDCHAR

STARTCHAR Ca7d5
ENCODING 42965
SWIDTH 1000 0
DWIDTH 20 0
BBX 20 20 0 -4
BITMAP
000000
000000
000000
000000
000000
000000
000000
01FC00
008800
008800
008800
008800
010800
010800
020800
0FFC00
080400
080400
000000
000000
ENDCHAR

STARTCHAR Ca7d6
ENCODING 42966
SWIDTH 1000 0
DWIDTH 20 0
BBX 20 20 0 -4
BITMAP
000000
000000
000000
000000
000000
000000
000000
01F000
020800
040400
040400
07FC00
040000
040400
020800
01F000
000000
000000
000000
000000
ENDCHAR

STARTCHAR Ca7d7
ENCODING 42967
SWIDTH 1000 0
DWIDTH 20 0
BBX 20 20 0 -4
BITMAP
000000
000000
000000
000000
000000
011000
000000
01F000
020800
040400
040400
07FC00
040000
040400
020800
01F000
000000
000000
000000
000000
ENDCHAR

STARTCHAR Ca7d8
ENCODING 42968
SWIDTH 1000 0
DWIDTH 20 0
BBX 20 20 0 -4
BITMAP
000000
000000
000000
000000
000000
000000
000000
04E400
0A4A00
024800
024800
01F000
024800
024800
044400
0EEE00
000000
000000
000000
000000
ENDCHAR

STARTCHAR Ca7d9
ENCODING 42969
SWIDTH 1000 0
DWIDTH 20 0
BBX 20 20 0 -4
BITMAP
000000
000000
000000
000000
000000
000000
000000
01F000
020800
030800
000800
007000
000800
030800
020800
01F000
000000
000000
000000
000000
ENDCHAR

STARTCHAR Ca7da
ENCODING 42970
SWIDTH 1000 0
DWIDTH 20 0
BBX 20 20 0 -4
BITMAP
000000
000000
000000
000000
000000
000000
000000
070E00
020400
020C00
021400
026400
028400
030400
020400
070E00
000000
000000
000000
000000
ENDCHAR

STARTCHAR Ca7db
ENCODING 42971
SWIDTH 1000 0
DWIDTH 20 0
BBX 20 20 0 -4
BITMAP
000000
000000
000000
000000
000000
009000
006000
070E00
020400
020C00
021400
026400
028400
030400
020400
070E00
000000
000000
000000
000000
ENDCHAR

STARTCHAR Ca7dc
ENCODING 42972
SWIDTH 1000 0
DWIDTH 20 0
BBX 20 20 0 -4
BITMAP
000000
000000
000000
000000
000000
000000
000000
070C00
021400
021000
022000
03C000
022000
021000
020800
071C00
000000
000000
000000
000000
ENDCHAR

STARTCHAR Ca7dd
ENCODING 42973
SWIDTH 1000 0
DWIDTH 20 0
BBX 20 20 0 -4
BITMAP
000000
000000
000000
000000
000000
000000
000000
01FC00
008800
008800
008800
008800
008800
0D0800
090800
061C00
000000
000000
000000
000000
ENDCHAR

STARTCHAR Ca7de
ENCODING 42974
SWIDTH 1000 0
DWIDTH 20 0
BBX 20 20 0 -4
BITMAP
000000
000000
000000
000000
000000
000000
000000
0C0600
040400
060C00
051400
051400
04A400
04A400
044400
0E4E00
000000
000000
000000
000000
ENDCHAR

STARTCHAR Ca7df
ENCODING 42975
SWIDTH 1000 0
DWIDTH 20 0
BBX 20 20 0 -4
BITMAP
000000
000000
000000
000000
000000
000000
000000
070E00
020400
020400
020400
03FC00
020400
020400
020400
070E00
000000
000000
000000
000000
ENDCHAR

STARTCHAR Ca7e0
ENCODING 42976
SWIDTH 1000 0
DWIDTH 20 0
BBX 20 20 0 -4
BITMAP
000000
000000
000000
000000
000000
000000
000000
00F000
010800
020400
020400
020400
020400
020400
010800
00F000
000000
000000
000000
000000
ENDCHAR

STARTCHAR Ca7e1
ENCODING 42977
SWIDTH 1000 0
DWIDTH 20 0
BBX 20 20 0 -4
BITMAP
000000
000000
000000
000000
000000
000000
000000
07FC00
020800
020800
020800
020800
020800
020800
020800
071C00
000000
000000
000000
000000
ENDCHAR

STARTCHAR Ca7e2
ENCODING 42978
SWIDTH 1000 0
DWIDTH 20 0
BBX 20 20 0 -4
BITMAP
000000
000000
000000
000000
000000
000000
000000
06F000
030800
020400
020400
020400
020400
020400
030800
02F000
020000
020000
078000
000000
ENDCHAR

STARTCHAR Ca7e3
ENCODING 42979
SWIDTH 1000 0
DWIDTH 20 0
BBX 20 20 0 -4
BITMAP
000000
000000
000000
000000
000000
000000
000000
01F000
020800
040400
040C00
040000
040000
040400
020800
01F000
000000
000000
000000
000000
ENDCHAR

STARTCHAR Ca7e4
ENCODING 42980
SWIDTH 1000 0
DWIDTH 20 0
BBX 20 20 0 -4
BITMAP
000000
000000
000000
000000
000000
000000
000000
07FC00
044400
004000
004000
004000
004000
004000
004000
00E000
000000
000000
000000
000000
ENDCHAR

STARTCHAR Ca7e5
ENCODING 42981
SWIDTH 1000 0
DWIDTH 20 0
BBX 20 20 0 -4
BITMAP
000000
000000
000000
000000
000000
000000
000000
070E00
020400
010400
010800
008800
005000
005000
002000
002000
034000
024000
018000
000000
ENDCHAR

STARTCHAR Ca7e6
ENCODING 42982
SWIDTH 1000 0
DWIDTH 20 0
BBX 20 20 0 -4
BITMAP
000000
000000
000000
000000
004000
00C000
004000
035800
04E400
084200
084200
084200
084200
04E400
035800
004000
004000
00E000
000000
000000
ENDCHAR

STARTCHAR Ca7e7
ENCODING 42983
SWIDTH 1000 0
DWIDTH 20 0
BBX 20 20 0 -4
BITMAP
000000
000000
000000
000000
000000
000000
000000
071C00
020800
011000
00A000
004000
00A000
011000
020800
071C00
000000
000000
000000
000000
ENDCHAR

STARTCHAR Ca7e8
ENCODING 42984
SWIDTH 1000 0
DWIDTH 20 0
BBX 20 20 0 -4
BITMAP
000000
000000
000000
000000
000000
000000
000000
071C00
020800
020800
020800
020800
020800
020800
020800
07FE00
000200
000200
000000
000000
ENDCHAR

STARTCHAR Ca7e9
ENCODING 42985
SWIDTH 1000 0
DWIDTH 20 0
BBX 20 20 0 -4
BITMAP
000000
000000
000000
000000
000000
000000
000000
071C00
020800
020800
020800
020800
01F800
000800
000800
003C00
000000
000000
000000
000000
ENDCHAR

STARTCHAR Ca7ea
ENCODING 42986
SWIDTH 1000 0
DWIDTH 20 0
BBX 20 20 0 -4
BITMAP
000000
000000
000000
000000
000000
000000
000000
1CE700
084200
084200
084200
084200
084200
084200
084200
1FFF00
000000
000000
000000
000000
ENDCHAR

STARTCHAR Ca7eb
ENCODING 42987
SWIDTH 1000 0
DWIDTH 20 0
BBX 20 20 0 -4
BITMAP
000000
000000
000000
000000
000000
000000
000000
1CE700
084200
084200
084200
084200
084200
084200
084200
1FFF80
000080
000080
000000
000000
ENDCHAR

STARTCHAR Ca7ec
ENCODING 42988
SWIDTH 1000 0
DWIDTH 20 0
BBX 20 20 0 -4
BITMAP
000000
000000
000000
000000
000000
000000
000000
0F8000
090000
010000
01F000
010800
010400
010400
010800
03F000
000000
000000
000000
000000
ENDCHAR

STARTCHAR Ca7ed
ENCODING 42989
SWIDTH 1000 0
DWIDTH 20 0
BBX 20 20 0 -4
BITMAP
000000
000000
000000
000000
000000
000000
000000
0E0E00
040400
040400
07C400
042400
041400
041400
042400
0FCE00
000000
000000
000000
000000
ENDCHAR

STARTCHAR Ca7ee
ENCODING 42990
SWIDTH 1000 0
DWIDTH 20 0
BBX 20 20 0 -4
BITMAP
000000
000000
000000
000000
000000
000000
000000
038000
010000
010000
01F000
010800
010400
010400
010800
03F000
000000
000000
000000
000000
ENDCHAR

STARTCHAR Ca7ef
ENCODING 42991
SWIDTH 1000 0
DWIDTH 20 0
BBX 20 20 0 -4
BITMAP
000000
000000
000000
000000
000000
000000
000000
00F000
030800
020400
00CC00
013400
000400
020400
010800
00F000
000000
000000
000000
000000
ENDCHAR

STARTCHAR Ca7f0
ENCODING 42992
SWIDTH 1000 0
DWIDTH 20 0
BBX 20 20 0 -4
BITMAP
000000
000000
000000
000000
000000
000000
000000
1C7800
088400
090200
090200
0F0200
090200
090200
088400
1C7800
000000
000000
000000
000000
ENDCHAR

STARTCHAR Ca7f1
ENCODING 42993
SWIDTH 1000 0
DWIDTH 20 0
BBX 20 20 0 -4
BITMAP
000000
000000
000000
000000
000000
000000
000000
01FC00
020800
020800
020800
01F800
008800
010800
020800
061C00
000000
000000
000000
000000
ENDCHAR

STARTCHAR Ca8a1
ENCODING 43169
SWIDTH 1000 0
DWIDTH 20 0
BBX 20 20 0 -4
BITMAP
000000
000000
000000
000000
000000
000000
000000
000000
000000
FFFFF0
000000
000000
000000
000000
000000
000000
000000
000000
000000
000000
ENDCHAR

STARTCHAR Ca8a2
ENCODING 43170
SWIDTH 1000 0
DWIDTH 20 0
BBX 20 20 0 -4
BITMAP
004000
004000
004000
004000
004000
004000
004000
004000
004000
004000
004000
004000
004000
004000
004000
004000
004000
004000
004000
004000
ENDCHAR

STARTCHAR Ca8a3
ENCODING 43171
SWIDTH 1000 0
DWIDTH 20 0
BBX 20 20 0 -4
BITMAP
000000
000000
000000
000000
000000
000000
000000
000000
000000
007FF0
004000
004000
004000
004000
004000
004000
004000
004000
004000
004000
ENDCHAR

STARTCHAR Ca8a4
ENCODING 43172
SWIDTH 1000 0
DWIDTH 20 0
BBX 20 20 0 -4
BITMAP
000000
000000
000000
000000
000000
000000
000000
000000
000000
FFC000
004000
004000
004000
004000
004000
004000
004000
004000
004000
004000
ENDCHAR

STARTCHAR Ca8a5
ENCODING 43173
SWIDTH 1000 0
DWIDTH 20 0
BBX 20 20 0 -4
BITMAP
004000
004000
004000
004000
004000
004000
004000
004000
004000
FFC000
000000
000000
000000
000000
000000
000000
000000
000000
000000
000000
ENDCHAR

STARTCHAR Ca8a6
ENCODING 43174
SWIDTH 1000 0
DWIDTH 20 0
BBX 20 20 0 -4
BITMAP
004000
004000
004000
004000
004000
004000
004000
004000
004000
007FF0
000000
000000
000000
000000
000000
000000
000000
000000
000000
000000
ENDCHAR

STARTCHAR Ca8a7
ENCODING 43175
SWIDTH 1000 0
DWIDTH 20 0
BBX 20 20 0 -4
BITMAP
004000
004000
004000
004000
004000
004000
004000
004000
004000
007FF0
004000
004000
004000
004000
004000
004000
004000
004000
004000
004000
ENDCHAR

STARTCHAR Ca8a8
ENCODING 43176
SWIDTH 1000 0
DWIDTH 20 0
BBX 20 20 0 -4
BITMAP
000000
000000
000000
000000
000000
000000
000000
000000
000000
FFFFF0
004000
004000
004000
004000
004000
004000
004000
004000
004000
004000
ENDCHAR

STARTCHAR Ca8a9
ENCODING 43177
SWIDTH 1000 0
DWIDTH 20 0
BBX 20 20 0 -4
BITMAP
004000
004000
004000
004000
004000
004000
004000
004000
004000
FFC000
004000
004000
004000
004000
004000
004000
004000
004000
004000
004000
ENDCHAR

STARTCHAR Ca8aa
ENCODING 43178
SWIDTH 1000 0
DWIDTH 20 0
BBX 20 20 0 -4
BITMAP
004000
004000
004000
004000
004000
004000
004000
004000
004000
FFFFF0
000000
000000
000000
000000
000000
000000
000000
000000
000000
000000
ENDCHAR

STARTCHAR Ca8ab
ENCODING 43179
SWIDTH 1000 0
DWIDTH 20 0
BBX 20 20 0 -4
BITMAP
004000
004000
004000
004000
004000
004000
004000
004000
004000
FFFFF0
004000
004000
004000
004000
004000
004000
004000
004000
004000
004000
ENDCHAR

STARTCHAR Ca8ac
ENCODING 43180
SWIDTH 1000 0
DWIDTH 20 0
BBX 20 20 0 -4
BITMAP
000000
000000
000000
000000
000000
000000
000000
000000
000000
FFFFF0
FFFFF0
000000
000000
000000
000000
000000
000000
000000
000000
000000
ENDCHAR

STARTCHAR Ca8ad
ENCODING 43181
SWIDTH 1000 0
DWIDTH 20 0
BBX 20 20 0 -4
BITMAP
006000
006000
006000
006000
006000
006000
006000
006000
006000
006000
006000
006000
006000
006000
006000
006000
006000
006000
006000
006000
ENDCHAR

STARTCHAR Ca8ae
ENCODING 43182
SWIDTH 1000 0
DWIDTH 20 0
BBX 20 20 0 -4
BITMAP
000000
000000
000000
000000
000000
000000
000000
000000
000000
007FF0
007FF0
006000
006000
006000
006000
006000
006000
006000
006000
006000
ENDCHAR

STARTCHAR Ca8af
ENCODING 43183
SWIDTH 1000 0
DWIDTH 20 0
BBX 20 20 0 -4
BITMAP
000000
000000
000000
000000
000000
000000
000000
000000
000000
FFE000
FFE000
006000
006000
006000
006000
006000
006000
006000
006000
006000
ENDCHAR

STARTCHAR Ca8b0
ENCODING 43184
SWIDTH 1000 0
DWIDTH 20 0
BBX 20 20 0 -4
BITMAP
006000
006000
006000
006000
006000
006000
006000
006000
006000
FFE000
FFE000
000000
000000
000000
000000
000000
000000
000000
000000
000000
ENDCHAR

STARTCHAR Ca8b1
ENCODING 43185
SWIDTH 1000 0
DWIDTH 20 0
BBX 20 20 0 -4
BITMAP
006000
006000
006000
006000
006000
006000
006000
006000
006000
007FF0
007FF0
000000
000000
000000
000000
000000
000000
000000
000000
000000
ENDCHAR

STARTCHAR Ca8b2
ENCODING 43186
SWIDTH 1000 0
DWIDTH 20 0
BBX 20 20 0 -4
BITMAP
006000
006000
006000
006000
006000
006000
006000
006000
006000
007FF0
007FF0
006000
006000
006000
006000
006000
006000
006000
006000
006000
ENDCHAR

STARTCHAR Ca8b3
ENCODING 43187
SWIDTH 1000 0
DWIDTH 20 0
BBX 20 20 0 -4
BITMAP
000000
000000
000000
000000
000000
000000
000000
000000
000000
FFFFF0
FFFFF0
006000
006000
006000
006000
006000
006000
006000
006000
006000
ENDCHAR

STARTCHAR Ca8b4
ENCODING 43188
SWIDTH 1000 0
DWIDTH 20 0
BBX 20 20 0 -4
BITMAP
006000
006000
006000
006000
006000
006000
006000
006000
006000
FFE000
FFE000
006000
006000
006000
006000
006000
006000
006000
006000
006000
ENDCHAR

STARTCHAR Ca8b5
ENCODING 43189
SWIDTH 1000 0
DWIDTH 20 0
BBX 20 20 0 -4
BITMAP
006000
006000
006000
006000
006000
006000
006000
006000
006000
FFFFF0
FFFFF0
000000
000000
000000
000000
000000
000000
000000
000000
000000
ENDCHAR

STARTCHAR Ca8b6
ENCODING 43190
SWIDTH 1000 0
DWIDTH 20 0
BBX 20 20 0 -4
BITMAP
006000
006000
006000
006000
006000
006000
006000
006000
006000
FFFFF0
FFFFF0
006000
006000
006000
006000
006000
006000
006000
006000
006000
ENDCHAR

STARTCHAR Ca8b7
ENCODING 43191
SWIDTH 1000 0
DWIDTH 20 0
BBX 20 20 0 -4
BITMAP
006000
006000
006000
006000
006000
006000
006000
006000
006000
007FF0
006000
006000
006000
006000
006000
006000
006000
006000
006000
006000
ENDCHAR

STARTCHAR Ca8b8
ENCODING 43192
SWIDTH 1000 0
DWIDTH 20 0
BBX 20 20 0 -4
BITMAP
000000
000000
000000
000000
000000
000000
000000
000000
000000
FFFFF0
FFFFF0
004000
004000
004000
004000
004000
004000
004000
004000
004000
ENDCHAR

STARTCHAR Ca8b9
ENCODING 43193
SWIDTH 1000 0
DWIDTH 20 0
BBX 20 20 0 -4
BITMAP
006000
006000
006000
006000
006000
006000
006000
006000
006000
FFE000
006000
006000
006000
006000
006000
006000
006000
006000
006000
006000
ENDCHAR

STARTCHAR Ca8ba
ENCODING 43194
SWIDTH 1000 0
DWIDTH 20 0
BBX 20 20 0 -4
BITMAP
004000
004000
004000
004000
004000
004000
004000
004000
004000
FFFFF0
FFFFF0
000000
000000
000000
000000
000000
000000
000000
000000
000000
ENDCHAR

STARTCHAR Ca8bb
ENCODING 43195
SWIDTH 1000 0
DWIDTH 20 0
BBX 20 20 0 -4
BITMAP
004000
004000
004000
004000
004000
004000
004000
004000
004000
FFFFF0
FFFFF0
004000
004000
004000
004000
004000
004000
004000
004000
004000
ENDCHAR

STARTCHAR Ca8bc
ENCODING 43196
SWIDTH 1000 0
DWIDTH 20 0
BBX 20 20 0 -4
BITMAP
004000
004000
004000
004000
004000
004000
004000
004000
004000
007FF0
007FF0
004000
004000
004000
004000
004000
004000
004000
004000
004000
ENDCHAR

STARTCHAR Ca8bd
ENCODING 43197
SWIDTH 1000 0
DWIDTH 20 0
BBX 20 20 0 -4
BITMAP
000000
000000
000000
000000
000000
000000
000000
000000
000000
FFFFF0
006000
006000
006000
006000
006000
006000
006000
006000
006000
006000
ENDCHAR

STARTCHAR Ca8be
ENCODING 43198
SWIDTH 1000 0
DWIDTH 20 0
BBX 20 20 0 -4
BITMAP
004000
004000
004000
004000
004000
004000
004000
004000
004000
FFC000
FFC000
004000
004000
004000
004000
004000
004000
004000
004000
004000
ENDCHAR

STARTCHAR Ca8bf
ENCODING 43199
SWIDTH 1000 0
DWIDTH 20 0
BBX 20 20 0 -4
BITMAP
006000
006000
006000
006000
006000
006000
006000
006000
006000
FFFFF0
000000
000000
000000
000000
000000
000000
000000
000000
000000
000000
ENDCHAR

STARTCHAR Ca8c0
ENCODING 43200
SWIDTH 1000 0
DWIDTH 20 0
BBX 20 20 0 -4
BITMAP
006000
006000
006000
006000
006000
006000
006000
006000
006000
FFFFF0
006000
006000
006000
006000
006000
006000
006000
006000
006000
006000
ENDCHAR

STARTCHAR Cb0a1
ENCODING 45217
SWIDTH 1000 0
DWIDTH 20 0
BBX 20 20 0 -4
BITMAP
000000
000080
3FFFC0
011000
011000
011080
1FFFC0
111080
111080
111080
111080
1FFF80
111080
011000
011000
011000
011040
7FFFE0
000000
000000
ENDCHAR

STARTCHAR Cb0a2
ENCODING 45218
SWIDTH 1000 0
DWIDTH 20 0
BBX 20 20 0 -4
BITMAP
000000
000040
03FFE0
002400
7C2400
442400
45FFC0
452440
452440
452440
452440
45FFC0
452440
7C2400
442400
002400
002440
07FFE0
000000
000000
ENDCHAR

STARTCHAR Cb0a3
ENCODING 45219
SWIDTH 1000 0
DWIDTH 20 0
BBX 20 20 0 -4
BITMAP
000000
100800
100800
100880
127F80
7F0800
120800
120840
12FFC0
220000
240800
240880
547F80
0C0800
0A0800
110800
100820
21FFE0
400000
000000
ENDCHAR

STARTCHAR Cb0a4
ENCODING 45220
SWIDTH 1000 0
DWIDTH 20 0
BBX 20 20 0 -4
BITMAP
000000
020000
3F0040
22FFE0
220080
240080
247C80
284480
244480
244480
224480
224480
227C80
224480
3E0080
240080
200080
200780
200100
000000
ENDCHAR

STARTCHAR Cb0a5
ENCODING 45221
SWIDTH 1000 0
DWIDTH 20 0
BBX 20 20 0 -4
BITMAP
000000
004000
004040
7FFFE0
000000
000100
0FFF80
080100
080100
080100
0FFF00
08A100
031040
0C1180
740A00
040400
04C200
070180
380060
000000
ENDCHAR

STARTCHAR Cb0a6
ENCODING 45222
SWIDTH 1000 0
DWIDTH 20 0
BBX 20 20 0 -4
BITMAP
000000
000F80
1FF200
044200
022440
1FFFE0
104040
212280
091100
090480
11FC80
208000
010200
03FF00
0D0200
30CC00
003000
03CE00
7C01E0
000000
ENDCHAR

STARTCHAR Cb0a7
ENCODING 45223
SWIDTH 1000 0
DWIDTH 20 0
BBX 20 20 0 -4
BITMAP
000000
101000
102200
102100
104080
7DFF40
104040
104080
107F80
148800
190800
700820
13FFE0
100800
101400
101200
102100
10C080
730060
000000
ENDCHAR

STARTCHAR Cb0a8
ENCODING 45224
SWIDTH 1000 0
DWIDTH 20 0
BBX 20 20 0 -4
BITMAP
000000
100800
101400
101200
122200
7F2100
124080
12BF40
130020
220000
240080
247FC0
544080
084080
084080
144080
124080
207F80
404080
000000
ENDCHAR

STARTCHAR Cb0a9
ENCODING 45225
SWIDTH 1000 0
DWIDTH 20 0
BBX 20 20 0 -4
BITMAP
000000
002100
203F80
104100
08A200
0B1400
000800
003600
00C980
0B0860
7CFF80
080800
087F00
080800
080840
09FFC0
140800
230800
40FFE0
000000
ENDCHAR

STARTCHAR Cb0aa
ENCODING 45226
SWIDTH 1000 0
DWIDTH 20 0
BBX 20 20 0 -4
BITMAP
000000
020800
020880
3FFFC0
020800
004200
0FF400
20A840
111080
0A0D00
0DFB00
7040E0
004100
1FFF00
004000
00A000
011800
060600
3801C0
000000
ENDCHAR

STARTCHAR Cb0ab
ENCODING 45227
SWIDTH 1000 0
DWIDTH 20 0
BBX 20 20 0 -4
BITMAP
000000
010800
010880
3FFFC0
010800
010800
000040
3FFFC0
011000
011080
1FFFC0
111080
121080
121280
141E80
180080
100080
1FFF80
100080
000000
ENDCHAR

STARTCHAR Cb0ac
ENCODING 45228
SWIDTH 1000 0
DWIDTH 20 0
BBX 20 20 0 -4
BITMAP
000000
024400
0C7E00
784400
088880
09FFC0
0A8880
7EFF80
088880
08FF80
180800
1DFFC0
2B0840
29FFC0
490840
49FFC0
090820
080820
0807E0
000000
ENDCHAR

STARTCHAR Cb0ad
ENCODING 45229
SWIDTH 1000 0
DWIDTH 20 0
BBX 20 20 0 -4
BITMAP
000000
000080
3FFFC0
011000
011000
1FFF80
111080
111080
111080
1FFF80
111000
011040
7FFFE0
004000
122080
121040
120220
220220
41FE00
000000
ENDCHAR

STARTCHAR Cb0ae
ENCODING 45230
SWIDTH 1000 0
DWIDTH 20 0
BBX 20 20 0 -4
BITMAP
000000
100040
11FFE0
110040
110040
7DFFC0
110000
110000
11FFC0
111000
151100
192080
71FF40
110840
120880
127F80
120800
140820
75FFE0
000000
ENDCHAR

STARTCHAR Cb0af
ENCODING 45231
SWIDTH 1000 0
DWIDTH 20 0
BBX 20 20 0 -4
BITMAP
000000
200040
11FFE0
090040
010040
41FFC0
210000
110000
05FFC0
051000
091100
092080
11FF40
110840
620880
227F80
220800
240820
25FFE0
000000
ENDCHAR

STARTCHAR Cb0b0
ENCODING 45232
SWIDTH 1000 0
DWIDTH 20 0
BBX 20 20 0 -4
BITMAP
000000
080000
080100
083F80
092100
7FA100
092100
092100
093F00
092100
092100
092100
092100
112100
113F00
112040
210040
210060
40FFC0
000000
ENDCHAR

STARTCHAR Cb0b1
ENCODING 45233
SWIDTH 1000 0
DWIDTH 20 0
BBX 20 20 0 -4
BITMAP
000000
020840
7FFFE0
020800
004000
0FFE00
008240
7FFFE0
000000
07FF00
040100
07FF00
001000
0FFF80
081000
081040
7FFFE0
001000
001000
000000
ENDCHAR

STARTCHAR Cb0b2
ENCODING 45234
SWIDTH 1000 0
DWIDTH 20 0
BBX 20 20 0 -4
BITMAP
000000
020800
020840
7FFFE0
020800
020800
000080
3FFFC0
000000
000000
0FFF00
080100
080100
080100
0FFF00
100100
100000
200000
400000
000000
ENDCHAR

STARTCHAR Cb0b3
ENCODING 45235
SWIDTH 1000 0
DWIDTH 20 0
BBX 20 20 0 -4
BITMAP
000000
100800
121000
1F1100
122080
24FF40
240800
7F1000
29FFE0
292200
3F4980
299060
296200
3F0400
001880
2AE100
2A8200
4A0C00
407000
000000
ENDCHAR

STARTCHAR Cb0b4
ENCODING 45236
SWIDTH 1000 0
DWIDTH 20 0
BBX 20 20 0 -4
BITMAP
000000
080800
080800
080840
08FFC0
7F0100
084100
082200
082220
1DFFE0
1A0800
290800
280840
48FFC0
480800
080800
080800
080800
080800
000000
ENDCHAR

STARTCHAR Cb0b5
ENCODING 45237
SWIDTH 1000 0
DWIDTH 20 0
BBX 20 20 0 -4
BITMAP
000000
000000
000080
1FFFC0
100000
101000
101000
101000
101000
101080
13FF80
101000
101000
101000
201000
201000
201040
4FFFE0
400000
000000
ENDCHAR

STARTCHAR Cb0b6
ENCODING 45238
SWIDTH 1000 0
DWIDTH 20 0
BBX 20 20 0 -4
BITMAP
000000
080400
088A00
7F8A00
081100
082080
3F5140
218920
210500
3F0100
212100
211100
3F0900
080120
0801E0
7F8F00
087100
080100
080100
000000
ENDCHAR

STARTCHAR Cb0b7
ENCODING 45239
SWIDTH 1000 0
DWIDTH 20 0
BBX 20 20 0 -4
BITMAP
000000
100200
11FF00
104200
124200
7E4400
104480
1047C0
104880
12A080
1CA100
709100
109200
110A00
110400
120A00
121100
146080
718060
000000
ENDCHAR

STARTCHAR Cb0b8
ENCODING 45240
SWIDTH 1000 0
DWIDTH 20 0
BBX 20 20 0 -4
BITMAP
000000
004000
104040
1FFFE0
100080
200100
288000
0FDF80
089080
109080
109080
291080
451380
021000
021040
041040
081060
100FC0
200000
000000
ENDCHAR

STARTCHAR Cb0b9
ENCODING 45241
SWIDTH 1000 0
DWIDTH 20 0
BBX 20 20 0 -4
BITMAP
000000
080000
080080
083FC0
092080
7FA080
112080
113F80
112080
212080
222080
222080
5A3F80
042080
0A2080
092080
1020A0
21FFE0
400000
000000
ENDCHAR

STARTCHAR Cb0ba
ENCODING 45242
SWIDTH 1000 0
DWIDTH 20 0
BBX 20 20 0 -4
BITMAP
000000
040400
040400
040400
040440
3FBFE0
24A000
24A000
24A000
24A000
3FA000
242000
042000
052000
052000
06A000
18A000
609FC0
000000
000000
ENDCHAR

STARTCHAR Cb0bb
ENCODING 45243
SWIDTH 1000 0
DWIDTH 20 0
BBX 20 20 0 -4
BITMAP
000000
040800
0A0800
091000
149100
241080
5F2080
112040
11FFA0
1F0020
110080
113FC0
1F2080
102080
122080
112080
132080
1CBF80
602080
000000
ENDCHAR

STARTCHAR Cb0bc
ENCODING 45244
SWIDTH 1000 0
DWIDTH 20 0
BBX 20 20 0 -4
BITMAP
000000
042000
082000
092040
523FE0
224040
144040
08BE40
092240
112240
7EBE40
08A240
2A2240
2A2240
293E40
492240
480080
080080
080780
000000
ENDCHAR

STARTCHAR Cb0bd
ENCODING 45245
SWIDTH 1000 0
DWIDTH 20 0
BBX 20 20 0 -4
BITMAP
000000
040400
080440
097FC0
520400
220420
14FFE0
081200
091220
112220
7EC9E0
089000
2A1F80
292080
295100
488A00
480C00
083300
09C0E0
000000
ENDCHAR

STARTCHAR Cb0be
ENCODING 45246
SWIDTH 1000 0
DWIDTH 20 0
BBX 20 20 0 -4
BITMAP
000000
100400
110400
1F8400
110420
2207E0
220400
5F8400
148400
148400
1F9FC0
149040
149040
1F9040
009040
2A5040
295040
491FC0
401040
000000
ENDCHAR

STARTCHAR Cb0bf
ENCODING 45247
SWIDTH 1000 0
DWIDTH 20 0
BBX 20 20 0 -4
BITMAP
000000
002200
002100
002140
7FFFE0
001000
001000
1F9080
109080
109100
108900
1F8A00
108A00
000400
07CC20
781220
002120
00C0C0
030020
000000
ENDCHAR

STARTCHAR Cb0c0
ENCODING 45248
SWIDTH 1000 0
DWIDTH 20 0
BBX 20 20 0 -4
BITMAP
000000
000040
3FFFC0
011000
011000
1FFF80
111080
111080
111080
1FFF80
004000
044200
024440
7FFFE0
015000
024800
044600
184180
604060
000000
ENDCHAR

STARTCHAR Cb0c1
ENCODING 45249
SWIDTH 1000 0
DWIDTH 20 0
BBX 20 20 0 -4
BITMAP
000000
080800
081400
081200
0A2200
7F2100
024080
048040
057FA0
080000
0A0000
1C0080
2A7FC0
494080
084080
084080
084080
087F80
084080
000000
ENDCHAR

STARTCHAR Cb0c2
ENCODING 45250
SWIDTH 1000 0
DWIDTH 20 0
BBX 20 20 0 -4
BITMAP
000000
004000
104040
1FFFE0
100040
204080
204080
008000
008040
7FFFE0
010400
020400
020400
040800
0B8800
007000
004C00
018300
3E00C0
000000
ENDCHAR

STARTCHAR Cb0c3
ENCODING 45251
SWIDTH 1000 0
DWIDTH 20 0
BBX 20 20 0 -4
BITMAP
000000
002000
002040
1FFFE0
102000
104000
1FFFC0
108400
112200
13FF00
162180
1A2160
13FF00
122100
222100
23FF40
222040
402060
401FC0
000000
ENDCHAR

STARTCHAR Cb0c4
ENCODING 45252
SWIDTH 1000 0
DWIDTH 20 0
BBX 20 20 0 -4
BITMAP
000000
100800
108840
10FFE0
148040
7D1080
101000
101020
13FFE0
102100
1C2100
704100
104200
10B200
100C00
100A00
101100
106080
738040
000000
ENDCHAR

STARTCHAR Cb0c5
ENCODING 45253
SWIDTH 1000 0
DWIDTH 20 0
BBX 20 20 0 -4
BITMAP
000000
000800
000840
7EFFC0
424100
422100
422220
43FFE0
7E0000
420000
427F80
424080
424080
427F80
7E4080
424080
004080
007F80
004080
000000
ENDCHAR

STARTCHAR Cb0c6
ENCODING 45254
SWIDTH 1000 0
DWIDTH 20 0
BBX 20 20 0 -4
BITMAP
000000
004000
204040
3FFFE0
204040
408080
5FFF80
020200
0F8C00
007000
038E00
3C4180
004000
7FFFE0
014800
024600
0C4180
704060
004000
000000
ENDCHAR

STARTCHAR Cb0c7
ENCODING 45255
SWIDTH 1000 0
DWIDTH 20 0
BBX 20 20 0 -4
BITMAP
000000
000040
3F9FE0
209040
3F9FC0
209040
3F9FC0
204040
27FE40
220840
211040
2FFF40
200040
23FC40
220440
23FC40
220440
23FC40
2203C0
000000
ENDCHAR

STARTCHAR Cb0c8
ENCODING 45256
SWIDTH 1000 0
DWIDTH 20 0
BBX 20 20 0 -4
BITMAP
000000
110400
112440
7FBFE0
114040
114880
1F0800
040820
3FFFE0
249100
249100
3F9100
042100
043A00
7FC600
040500
040880
043040
04C020
000000
ENDCHAR

STARTCHAR Cb0c9
ENCODING 45257
SWIDTH 1000 0
DWIDTH 20 0
BBX 20 20 0 -4
BITMAP
000000
004000
004000
004040
7FFFE0
00D000
014800
024400
044200
184180
604060
000000
0FFF00
080100
080100
080100
080100
0FFF00
080100
000000
ENDCHAR

STARTCHAR Cb0ca
ENCODING 45258
SWIDTH 1000 0
DWIDTH 20 0
BBX 20 20 0 -4
BITMAP
000000
000000
000180
090100
088100
084100
084100
082100
082100
080100
080100
080100
080200
098200
0E0600
180900
601080
006040
038020
000000
ENDCHAR

STARTCHAR Cb0cb
ENCODING 45259
SWIDTH 1000 0
DWIDTH 20 0
BBX 20 20 0 -4
BITMAP
000000
040000
040080
05FFC0
041080
081080
0810A0
0BFFE0
181080
181080
281080
481080
09FF80
081080
081000
082000
082000
084000
098000
000000
ENDCHAR

STARTCHAR Cb0cc
ENCODING 45260
SWIDTH 1000 0
DWIDTH 20 0
BBX 20 20 0 -4
BITMAP
000000
041000
041000
041000
041040
0BFFC0
080000
080100
188100
188100
288100
488200
084200
084200
084200
084400
080420
0FFFE0
080000
000000
ENDCHAR

STARTCHAR Cb0cd
ENCODING 45261
SWIDTH 1000 0
DWIDTH 20 0
BBX 20 20 0 -4
BITMAP
000000
041000
041000
041020
07FFE0
082800
082800
084840
104880
108900
308600
518400
128400
148200
108200
108900
10B080
10C040
130020
000000
ENDCHAR

STARTCHAR Cb0ce
ENCODING 45262
SWIDTH 1000 0
DWIDTH 20 0
BBX 20 20 0 -4
BITMAP
000000
041000
04FF00
042100
042140
0BFFC0
080000
08FF00
108100
108100
30FF00
500400
11FF80
104400
104420
13FFE0
100400
100400
100400
000000
ENDCHAR

STARTCHAR Cb0cf
ENCODING 45263
SWIDTH 1000 0
DWIDTH 20 0
BBX 20 20 0 -4
BITMAP
000000
000040
3FFFE0
200040
210840
210840
210840
27FE40
210840
210840
210840
2FFF40
210840
220840
220840
240840
200040
3FFFC0
200040
000000
ENDCHAR

STARTCHAR Cb0d0
ENCODING 45264
SWIDTH 1000 0
DWIDTH 20 0
BBX 20 20 0 -4
BITMAP
000000
004000
004040
7FFFE0
004000
004000
3FFF80
004080
004080
1FFF80
104000
104040
1FFFE0
204040
00A040
011380
020C00
0C0300
7000E0
000000
ENDCHAR

STARTCHAR Cb0d1
ENCODING 45265
SWIDTH 1000 0
DWIDTH 20 0
BBX 20 20 0 -4
BITMAP
000000
000F00
1FF000
004000
004040
7FFFE0
015000
064C00
184300
6080E0
008000
7FFFE0
020400
040400
0B8800
007000
00CE00
070180
780060
000000
ENDCHAR

STARTCHAR Cb0d2
ENCODING 45266
SWIDTH 1000 0
DWIDTH 20 0
BBX 20 20 0 -4
BITMAP
000000
000A00
000900
000940
1FFFC0
100800
100800
1FE880
110880
110880
1FF480
124500
124500
164200
258220
28C520
2128A0
421040
4C2020
000000
ENDCHAR

STARTCHAR Cb0d3
ENCODING 45267
SWIDTH 1000 0
DWIDTH 20 0
BBX 20 20 0 -4
BITMAP
000000
0020C0
1FF080
102080
102080
1FE0A0
101FE0
100080
17C080
101080
100880
1FE480
110480
254080
252080
291080
491080
510780
070100
000000
ENDCHAR

STARTCHAR Cb0d4
ENCODING 45268
SWIDTH 1000 0
DWIDTH 20 0
BBX 20 20 0 -4
BITMAP
000000
082200
082200
082400
084420
0C7FE0
2A4400
2AC400
294440
2A7FC0
484400
484400
084440
087FC0
084400
084400
084420
087FE0
084000
000000
ENDCHAR

STARTCHAR Cb0d5
ENCODING 45269
SWIDTH 1000 0
DWIDTH 20 0
BBX 20 20 0 -4
BITMAP
000000
004000
004080
1FFF80
020400
010840
7FFFE0
000000
07FE00
040200
07FE00
040200
07FE00
004000
122100
121080
120240
220240
41FE00
000000
ENDCHAR

STARTCHAR Cb0d6
ENCODING 45270
SWIDTH 1000 0
DWIDTH 20 0
BBX 20 20 0 -4
BITMAP
000000
002080
1FF080
1020A0
1FEFE0
100080
17C080
100880
1FE480
210480
254080
252080
4B2380
000000
124100
122080
121240
220220
41FE20
000000
ENDCHAR

STARTCHAR Cb0d7
ENCODING 45271
SWIDTH 1000 0
DWIDTH 20 0
BBX 20 20 0 -4
BITMAP
000000
000200
0FFF00
080200
080200
0FFE00
080200
080200
080200
0FFE00
090000
020080
07FFC0
088880
111080
621080
042100
084F00
008200
000000
ENDCHAR

STARTCHAR Cb0d8
ENCODING 45272
SWIDTH 1000 0
DWIDTH 20 0
BBX 20 20 0 -4
BITMAP
000000
080800
080840
08FFC0
080800
7F1600
082100
084080
09FFE0
1C0080
1A0080
297C80
284480
484480
487C80
084080
080080
080780
080100
000000
ENDCHAR

STARTCHAR Cb0d9
ENCODING 45273
SWIDTH 1000 0
DWIDTH 20 0
BBX 20 20 0 -4
BITMAP
000000
044000
024200
3FFF00
008200
008400
010400
01FF00
010100
020200
020240
07FFE0
040440
081240
125240
224840
444840
044080
080780
000000
ENDCHAR

STARTCHAR Cb0da
ENCODING 45274
SWIDTH 1000 0
DWIDTH 20 0
BBX 20 20 0 -4
BITMAP
000000
000100
1FFF80
104100
104100
1FFF00
104100
104100
1FFF00
000000
000040
7FFFE0
082080
081300
081400
080800
08E400
0F0300
7000E0
000000
ENDCHAR

STARTCHAR Cb0db
ENCODING 45275
SWIDTH 1000 0
DWIDTH 20 0
BBX 20 20 0 -4
BITMAP
000000
000100
1FFF80
104100
104100
1FFF00
104100
104100
1FFF00
020800
020880
3FFF80
020800
020840
7FFFE0
000000
060C00
180300
6000C0
000000
ENDCHAR

STARTCHAR Cb0dc
ENCODING 45276
SWIDTH 1000 0
DWIDTH 20 0
BBX 20 20 0 -4
BITMAP
000000
010880
060FC0
781080
082100
08D100
080A00
7F0400
080800
083440
1CC7E0
1A0840
291080
286880
498500
480200
080C00
083000
09C000
000000
ENDCHAR

STARTCHAR Cb0dd
ENCODING 45277
SWIDTH 1000 0
DWIDTH 20 0
BBX 20 20 0 -4
BITMAP
000000
041100
081100
091200
522220
223FE0
142200
086200
09A240
113FC0
7EA200
08A200
2A2240
2A3FC0
292200
492200
482220
083FE0
082000
000000
ENDCHAR

STARTCHAR Cb0de
ENCODING 45278
SWIDTH 1000 0
DWIDTH 20 0
BBX 20 20 0 -4
BITMAP
000000
040800
087F80
091080
5210A0
22FFE0
140000
083F80
092080
112080
7EBF80
088200
2A7FC0
2A1200
291220
49FFE0
480200
080200
080200
000000
ENDCHAR

STARTCHAR Cb0df
ENCODING 45279
SWIDTH 1000 0
DWIDTH 20 0
BBX 20 20 0 -4
BITMAP
000000
000080
3FFFC0
204080
204080
3FFF80
204080
204080
3FFF80
000000
0FFE00
080200
0FFE00
080200
080200
0FFE00
080200
080200
081E00
000000
ENDCHAR

STARTCHAR Cb0e0
ENCODING 45280
SWIDTH 1000 0
DWIDTH 20 0
BBX 20 20 0 -4
BITMAP
000000
010840
3FFFC0
010800
003F00
1FC000
004040
7FFFE0
015000
064E00
7841E0
008000
7FFFE0
020400
040400
1F0800
00F000
030E00
7C01C0
000000
ENDCHAR

STARTCHAR Cb0e1
ENCODING 45281
SWIDTH 1000 0
DWIDTH 20 0
BBX 20 20 0 -4
BITMAP
000000
004000
004000
004080
7FFFC0
00A000
012000
012000
022080
041100
041200
0C1400
140800
240800
440400
040200
046100
078080
380060
000000
ENDCHAR

STARTCHAR Cb0e2
ENCODING 45282
SWIDTH 1000 0
DWIDTH 20 0
BBX 20 20 0 -4
BITMAP
000000
020040
3EFFE0
008840
008840
7FFFC0
008840
008840
3EFFC0
000000
007F80
3E4080
007F80
004080
3E4080
227F80
224080
3E4080
224780
000000
ENDCHAR

STARTCHAR Cb0e3
ENCODING 45283
SWIDTH 1000 0
DWIDTH 20 0
BBX 20 20 0 -4
BITMAP
000000
001000
207F00
102100
082140
09FFC0
000000
007F00
084100
7C4100
087F00
080400
08FF80
084400
084440
09FFC0
140400
230400
40FFE0
000000
ENDCHAR

STARTCHAR Cb0e4
ENCODING 45284
SWIDTH 1000 0
DWIDTH 20 0
BBX 20 20 0 -4
BITMAP
000000
001000
20FF00
109100
08FF00
081040
03FFC0
000000
08FF00
7C8100
08FF00
088100
08FF00
088100
08FF00
084200
148100
230080
40FFE0
000000
ENDCHAR

STARTCHAR Cb0e5
ENCODING 45285
SWIDTH 1000 0
DWIDTH 20 0
BBX 20 20 0 -4
BITMAP
000000
000100
3FFF80
210000
210000
210100
23FF00
222000
242000
282080
27FF80
202000
205800
208600
230100
2C0080
200000
3FFFC0
200000
000000
ENDCHAR

STARTCHAR Cb0e6
ENCODING 45286
SWIDTH 1000 0
DWIDTH 20 0
BBX 20 20 0 -4
BITMAP
000000
020800
020800
020800
020880
3FFFC0
020800
020800
020800
020800
020800
020840
7FFFE0
020800
040800
040800
080800
100800
200800
000000
ENDCHAR

STARTCHAR Cb0e7
ENCODING 45287
SWIDTH 1000 0
DWIDTH 20 0
BBX 20 20 0 -4
BITMAP
000000
004000
004000
004080
7FFFC0
008000
010000
120800
0C1000
022000
014200
008400
030800
0C1000
702800
004400
018200
0E0100
700080
000000
ENDCHAR

STARTCHAR Cb0e8
ENCODING 45288
SWIDTH 1000 0
DWIDTH 20 0
BBX 20 20 0 -4
BITMAP
000000
000200
080300
080280
080220
09FFE0
7E0200
080200
08FA40
088A40
088A40
088A80
08FA80
0E8900
700120
003AA0
03C4A0
001840
006020
000000
ENDCHAR

STARTCHAR Cb0e9
ENCODING 45289
SWIDTH 1000 0
DWIDTH 20 0
BBX 20 20 0 -4
BITMAP
000000
004000
004040
7FFFE0
010400
020200
043F00
3FC080
000080
0FFE00
080200
080200
0FFE00
080200
080200
0FFE00
080200
080200
081E00
000000
ENDCHAR

STARTCHAR Cb0ea
ENCODING 45290
SWIDTH 1000 0
DWIDTH 20 0
BBX 20 20 0 -4
BITMAP
000000
020000
022040
7FEFE0
040840
040840
080880
0FC880
084900
184880
2FC840
484840
084820
0FC820
084820
084BE0
084840
084800
09C800
000000
ENDCHAR

STARTCHAR Cb0eb
ENCODING 45291
SWIDTH 1000 0
DWIDTH 20 0
BBX 20 20 0 -4
BITMAP
000000
024900
7E4900
108A40
112C40
10AA80
104900
109A40
3FEFA0
240900
240880
65FFE0
244440
244280
244280
3C6120
2492A0
208440
011820
000000
ENDCHAR

STARTCHAR Cb0ec
ENCODING 45292
SWIDTH 1000 0
DWIDTH 20 0
BBX 20 20 0 -4
BITMAP
000000
000000
000000
000000
000000
000000
000000
000000
000080
3FFFC0
000000
000000
000000
000000
000000
000000
000000
000000
000000
000000
ENDCHAR

STARTCHAR Cb0ed
ENCODING 45293
SWIDTH 1000 0
DWIDTH 20 0
BBX 20 20 0 -4
BITMAP
000000
004000
004080
7FFFC0
004000
004100
1FFF00
000000
200040
3FFFE0
200080
440D00
447000
078000
040100
040100
040180
03FF00
000000
000000
ENDCHAR

STARTCHAR Cb0ee
ENCODING 45294
SWIDTH 1000 0
DWIDTH 20 0
BBX 20 20 0 -4
BITMAP
000000
208100
104100
084200
002420
01FFE0
422400
222200
144200
044100
088080
090040
13FFA0
112480
612480
212480
212480
2124A0
27FFE0
000000
ENDCHAR

STARTCHAR Cb0ef
ENCODING 45295
SWIDTH 1000 0
DWIDTH 20 0
BBX 20 20 0 -4
BITMAP
000000
004400
207E00
104400
088400
088800
01FF80
028880
088880
7C8880
08FF80
08A480
082400
082400
084440
088440
1507C0
230000
40FFE0
000000
ENDCHAR

STARTCHAR Cb0f0
ENCODING 45296
SWIDTH 1000 0
DWIDTH 20 0
BBX 20 20 0 -4
BITMAP
000000
0100C0
060700
78F840
080840
088480
084480
7F2500
082040
089FE0
1C9040
1A9040
2A9040
289FC0
489040
489040
089040
089FC0
089040
000000
ENDCHAR

STARTCHAR Cb0f1
ENCODING 45297
SWIDTH 1000 0
DWIDTH 20 0
BBX 20 20 0 -4
BITMAP
000000
020840
7FFFE0
020800
020800
004000
404040
207FE0
104840
048880
048880
090900
080800
101400
101400
602200
204100
218080
260060
000000
ENDCHAR

STARTCHAR Cb0f2
ENCODING 45298
SWIDTH 1000 0
DWIDTH 20 0
BBX 20 20 0 -4
BITMAP
000000
020840
7FFFE0
020800
020800
000080
1FFF80
002000
002000
002000
002040
7FFFE0
002000
002000
002000
002000
002000
03E000
004000
000000
ENDCHAR

STARTCHAR Cb0f3
ENCODING 45299
SWIDTH 1000 0
DWIDTH 20 0
BBX 20 20 0 -4
BITMAP
000000
100040
11F7E0
1E1040
241040
241040
48F3C0
3E9240
2A8200
2A8400
3FF7C0
2B1440
2A9240
3EB2C0
005140
2A9240
2B1440
282080
40E380
000000
ENDCHAR

STARTCHAR Cb0f4
ENCODING 45300
SWIDTH 1000 0
DWIDTH 20 0
BBX 20 20 0 -4
BITMAP
000000
004000
004000
008000
010400
010200
020100
043E80
3FC080
000040
001000
011000
011000
011000
021040
021040
041040
181060
600FC0
000000
ENDCHAR

STARTCHAR Cb0f5
ENCODING 45301
SWIDTH 1000 0
DWIDTH 20 0
BBX 20 20 0 -4
BITMAP
000000
00C000
030080
3C3FC0
202080
202080
202080
20A080
3FA080
202080
202080
202080
202080
20A080
3FAF80
202100
202000
002000
002000
000000
ENDCHAR

STARTCHAR Cb0f6
ENCODING 45302
SWIDTH 1000 0
DWIDTH 20 0
BBX 20 20 0 -4
BITMAP
000000
000040
00FFE0
3E8040
228840
228840
228940
22FF40
228840
228840
228840
229440
229240
3EA240
22A140
20C040
008040
00FFC0
008040
000000
ENDCHAR

STARTCHAR Cb0f7
ENCODING 45303
SWIDTH 1000 0
DWIDTH 20 0
BBX 20 20 0 -4
BITMAP
000000
000200
0FFF00
080200
080200
0FFE00
000000
1FFF00
100100
100100
1FFF00
100100
1FFF00
100100
100100
1FFF00
020800
0C0600
300180
000000
ENDCHAR

STARTCHAR Cb0f8
ENCODING 45304
SWIDTH 1000 0
DWIDTH 20 0
BBX 20 20 0 -4
BITMAP
000000
000040
3FFFE0
200040
204040
204040
204240
2FFE40
204040
204040
20A040
20A040
211040
220840
240440
380340
200040
3FFFC0
200040
000000
ENDCHAR

STARTCHAR Cb0f9
ENCODING 45305
SWIDTH 1000 0
DWIDTH 20 0
BBX 20 20 0 -4
BITMAP
000000
080040
087FE0
084040
094440
7FC440
114440
117FC0
114440
214440
224A40
224A40
5A5140
045140
0A6040
094040
10C040
207FC0
404040
000000
ENDCHAR

STARTCHAR Cb0fa
ENCODING 45306
SWIDTH 1000 0
DWIDTH 20 0
BBX 20 20 0 -4
BITMAP
000000
004180
3FE100
004100
004100
004100
1FC100
104100
100100
100100
3FC100
204100
004100
004100
004100
008100
008100
1F8100
010100
000000
ENDCHAR

STARTCHAR Cb0fb
ENCODING 45307
SWIDTH 1000 0
DWIDTH 20 0
BBX 20 20 0 -4
BITMAP
000000
041000
0A1000
091040
149FE0
241440
5F1480
112480
112500
1F4400
110400
110400
1F0A00
120A00
111100
131100
1CA080
604040
008020
000000
ENDCHAR

STARTCHAR Cb0fc
ENCODING 45308
SWIDTH 1000 0
DWIDTH 20 0
BBX 20 20 0 -4
BITMAP
000000
200000
1001C0
09FE00
000080
001080
410900
248900
148200
0407C0
09F800
080800
100820
13FFE0
600800
200800
200800
200840
21FFC0
000000
ENDCHAR

STARTCHAR Cb0fd
ENCODING 45309
SWIDTH 1000 0
DWIDTH 20 0
BBX 20 20 0 -4
BITMAP
000000
000000
104180
104900
168900
111100
10A500
17FB00
100100
13F900
120900
120900
13F900
120900
220900
23F900
220920
420920
4238E0
000000
ENDCHAR

STARTCHAR Cb0fe
ENCODING 45310
SWIDTH 1000 0
DWIDTH 20 0
BBX 20 20 0 -4
BITMAP
000000
020840
7FFFE0
020800
020800
3E1400
222200
24DD80
270060
287F00
240200
240400
22FF80
220020
23FFE0
3E2100
202080
204F40
21F020
000000
ENDCHAR

STARTCHAR Cb1a1
ENCODING 45473
SWIDTH 1000 0
DWIDTH 20 0
BBX 20 20 0 -4
BITMAP
000000
020400
3F4440
227FE0
244040
248080
280000
287F80
240000
240000
220020
23FFE0
221200
221200
3E1200
242200
202220
204220
2181E0
000000
ENDCHAR

STARTCHAR Cb1a2
ENCODING 45474
SWIDTH 1000 0
DWIDTH 20 0
BBX 20 20 0 -4
BITMAP
000000
020800
3F1400
222200
24C180
273E60
280000
28FF80
240100
240200
22FFC0
220000
220020
23FFE0
3E2100
242080
204F40
23F040
200020
000000
ENDCHAR

STARTCHAR Cb1a3
ENCODING 45475
SWIDTH 1000 0
DWIDTH 20 0
BBX 20 20 0 -4
BITMAP
000000
0201C0
3FFE00
229080
244880
244900
28FF80
280080
240080
247F80
220080
220080
22FF80
220800
3E2480
24A440
20A120
212120
221F00
000000
ENDCHAR

STARTCHAR Cb1a4
ENCODING 45476
SWIDTH 1000 0
DWIDTH 20 0
BBX 20 20 0 -4
BITMAP
000000
080080
089FC0
7F9080
001080
211F80
110000
123FC0
7FE040
003FC0
3F2040
212040
213FC0
3F2040
212040
213FC0
3F0900
2130C0
00C020
000000
ENDCHAR

STARTCHAR Cb1a5
ENCODING 45477
SWIDTH 1000 0
DWIDTH 20 0
BBX 20 20 0 -4
BITMAP
000000
000180
000100
020100
3F0100
220120
22FFE0
220100
220100
224100
222100
221100
220900
220900
3E0100
220100
200100
000F00
000200
000000
ENDCHAR

STARTCHAR Cb1a6
ENCODING 45478
SWIDTH 1000 0
DWIDTH 20 0
BBX 20 20 0 -4
BITMAP
000000
00C000
008000
008040
7FFFE0
010000
010000
020000
020000
040080
07FFC0
0A0080
120080
220080
420080
020080
020080
03FF80
020080
000000
ENDCHAR

STARTCHAR Cb1a7
ENCODING 45479
SWIDTH 1000 0
DWIDTH 20 0
BBX 20 20 0 -4
BITMAP
000000
004000
104040
1FFFE0
100080
200100
200000
0FFF00
002000
002000
002000
002040
7FFFE0
002000
002000
002000
002000
03E000
004000
000000
ENDCHAR

STARTCHAR Cb1a8
ENCODING 45480
SWIDTH 1000 0
DWIDTH 20 0
BBX 20 20 0 -4
BITMAP
000000
004000
008200
0FFF00
080200
080200
080200
0FFE00
080000
080040
0FFFE0
080000
080000
0FFFC0
022440
121240
111040
210080
400780
000000
ENDCHAR

STARTCHAR Cb1a9
ENCODING 45481
SWIDTH 1000 0
DWIDTH 20 0
BBX 20 20 0 -4
BITMAP
000000
000000
008040
3FDFE0
008040
008040
108840
088440
048240
048240
008040
008040
028140
048240
188C40
209040
008040
0783C0
010080
000000
ENDCHAR

STARTCHAR Cb1aa
ENCODING 45482
SWIDTH 1000 0
DWIDTH 20 0
BBX 20 20 0 -4
BITMAP
000000
000080
20FF80
100800
080800
080800
000800
000820
0BFFE0
7C0800
080800
080800
080800
080800
080800
087800
140000
230000
40FFE0
000000
ENDCHAR

STARTCHAR Cb1ab
ENCODING 45483
SWIDTH 1000 0
DWIDTH 20 0
BBX 20 20 0 -4
BITMAP
000000
000040
7FFFE0
004000
004000
004080
3FFFC0
204080
204080
285080
264C80
214280
204080
285080
264C80
214280
204080
204080
200780
000000
ENDCHAR

STARTCHAR Cb1ac
ENCODING 45484
SWIDTH 1000 0
DWIDTH 20 0
BBX 20 20 0 -4
BITMAP
000000
00C000
030040
1C1FE0
109040
109040
109040
109040
109040
109040
109040
109040
171040
791040
0217C0
021080
041000
081000
101000
000000
ENDCHAR

STARTCHAR Cb1ad
ENCODING 45485
SWIDTH 1000 0
DWIDTH 20 0
BBX 20 20 0 -4
BITMAP
000000
220400
120800
143F80
7F2080
093F80
092080
3F2080
293F80
282020
283FE0
3FA000
48A000
08BFC0
188540
2B52C0
284A40
488880
088380
000000
ENDCHAR

STARTCHAR Cb1ae
ENCODING 45486
SWIDTH 1000 0
DWIDTH 20 0
BBX 20 20 0 -4
BITMAP
000000
004000
104040
1FFFE0
101080
211040
061FC0
380000
043F80
042080
3FBF80
042080
04BF80
7FA080
043F80
0A1200
091220
102220
60C3E0
000000
ENDCHAR

STARTCHAR Cb1af
ENCODING 45487
SWIDTH 1000 0
DWIDTH 20 0
BBX 20 20 0 -4
BITMAP
000000
000200
1FFF00
010200
010200
010200
010200
020200
020240
7FFFE0
020400
020400
020400
040400
040400
040400
040440
7FFFE0
000000
000000
ENDCHAR

STARTCHAR Cb1b0
ENCODING 45488
SWIDTH 1000 0
DWIDTH 20 0
BBX 20 20 0 -4
BITMAP
000000
011100
7F9100
081200
082220
083FE0
102200
106200
1F6240
31BFC0
312200
512200
112240
113FC0
112200
1F2200
112220
103FE0
002000
000000
ENDCHAR

STARTCHAR Cb1b1
ENCODING 45489
SWIDTH 1000 0
DWIDTH 20 0
BBX 20 20 0 -4
BITMAP
000000
000000
00C000
030080
1C1FC0
100080
100080
100080
100080
108080
1F9F80
100080
100080
100080
100080
100080
100080
1FFF80
100080
000000
ENDCHAR

STARTCHAR Cb1b2
ENCODING 45490
SWIDTH 1000 0
DWIDTH 20 0
BBX 20 20 0 -4
BITMAP
000000
100100
087F80
044100
004100
404F00
224900
124900
05FFC0
050040
090040
093E40
112240
112240
612240
213E40
212040
210040
2103C0
000000
ENDCHAR

STARTCHAR Cb1b3
ENCODING 45491
SWIDTH 1000 0
DWIDTH 20 0
BBX 20 20 0 -4
BITMAP
000000
000880
080F80
7C0800
480800
49FFE0
491020
491F40
49F000
491080
490F80
490000
490A00
7A4A40
4A4A40
422A80
042A80
040A20
09FFE0
000000
ENDCHAR

STARTCHAR Cb1b4
ENCODING 45492
SWIDTH 1000 0
DWIDTH 20 0
BBX 20 20 0 -4
BITMAP
000000
000080
04FFC0
7E8080
448080
448080
44FF80
448080
448080
448080
44FF80
448080
448080
7C8080
44FF80
400000
002300
00C0C0
070020
000000
ENDCHAR

STARTCHAR Cb1b5
ENCODING 45493
SWIDTH 1000 0
DWIDTH 20 0
BBX 20 20 0 -4
BITMAP
000000
089100
086100
7D97E0
080100
1C9180
2A6340
499520
1FFF80
110880
110880
1FFF80
108120
1FBFE0
108100
1F9100
110900
1E8100
604700
000000
ENDCHAR

STARTCHAR Cb1b6
ENCODING 45494
SWIDTH 1000 0
DWIDTH 20 0
BBX 20 20 0 -4
BITMAP
000000
010400
010440
7FFFE0
010400
010480
1FE080
102080
1020A0
1FFFE0
100080
17C880
100480
1FE280
210280
254080
252080
492080
430380
000000
ENDCHAR

STARTCHAR Cb1b7
ENCODING 45495
SWIDTH 1000 0
DWIDTH 20 0
BBX 20 20 0 -4
BITMAP
000000
100080
123FC0
1F2080
223F80
242080
443F80
3F0000
297FC0
295240
3F5240
297FC0
290000
3F7F80
001080
2A8900
2A8600
481980
40E060
000000
ENDCHAR

STARTCHAR Cb1b8
ENCODING 45496
SWIDTH 1000 0
DWIDTH 20 0
BBX 20 20 0 -4
BITMAP
000000
101000
101000
101080
12FE80
7F1100
121100
121220
13FFE0
220800
241000
242080
54E300
093C00
0C2000
122080
112080
2020C0
401F80
000000
ENDCHAR

STARTCHAR Cb1b9
ENCODING 45497
SWIDTH 1000 0
DWIDTH 20 0
BBX 20 20 0 -4
BITMAP
000000
000040
1FFFE0
100000
100040
17DFC0
144900
144900
17C900
144900
144A20
17DFE0
140200
148200
244500
24A500
272920
4C1120
4021E0
000000
ENDCHAR

STARTCHAR Cb1ba
ENCODING 45498
SWIDTH 1000 0
DWIDTH 20 0
BBX 20 20 0 -4
BITMAP
000000
100A00
080900
040920
01FFE0
400800
220840
12FFE0
028840
048840
04FFC0
048840
088840
08FFC0
688840
108840
108840
108BC0
108080
000000
ENDCHAR

STARTCHAR Cb1bb
ENCODING 45499
SWIDTH 1000 0
DWIDTH 20 0
BBX 20 20 0 -4
BITMAP
000000
000380
003E00
0FC200
084200
084200
084200
084200
084200
084100
084100
084100
104900
104480
104480
104E80
20F240
270240
400020
000000
ENDCHAR

STARTCHAR Cb1bc
ENCODING 45500
SWIDTH 1000 0
DWIDTH 20 0
BBX 20 20 0 -4
BITMAP
000000
000040
3F9FE0
209040
209040
3F9FC0
209040
209040
3F9FC0
200040
200440
27FC40
204040
204040
23F840
204040
204440
27FC40
2003C0
000000
ENDCHAR

STARTCHAR Cb1bd
ENCODING 45501
SWIDTH 1000 0
DWIDTH 20 0
BBX 20 20 0 -4
BITMAP
000000
004100
002240
03FFE0
781400
481440
49FFE0
491440
4923C0
494040
49FFC0
490040
49FFC0
480100
7BFFE0
484100
402100
002100
000F00
000000
ENDCHAR

STARTCHAR Cb1be
ENCODING 45502
SWIDTH 1000 0
DWIDTH 20 0
BBX 20 20 0 -4
BITMAP
000000
000000
000200
1FFF00
000000
000000
000000
000000
000080
7FFFC0
010000
010000
020400
020200
040100
040080
083F80
7FC040
000040
000000
ENDCHAR

STARTCHAR Cb1bf
ENCODING 45503
SWIDTH 1000 0
DWIDTH 20 0
BBX 20 20 0 -4
BITMAP
000000
010040
21FFE0
110840
0A0880
08FF80
000800
00FF80
088880
7C8880
08FF80
088880
088880
08FF80
080820
0BFFE0
140800
230800
40FFE0
000000
ENDCHAR

STARTCHAR Cb1c0
ENCODING 45504
SWIDTH 1000 0
DWIDTH 20 0
BBX 20 20 0 -4
BITMAP
000000
000100
1FFF80
004000
104040
1FFFE0
204080
2F5F00
004000
0F5F00
004000
000000
1FFF80
000020
7FFFE0
020200
020100
043E80
3FC040
000000
ENDCHAR

STARTCHAR Cb1c1
ENCODING 45505
SWIDTH 1000 0
DWIDTH 20 0
BBX 20 20 0 -4
BITMAP
000000
010800
010840
7FFFE0
010800
010800
040000
040780
04F800
080800
080800
180820
1BFFE0
280800
480800
080800
080800
080840
09FFC0
000000
ENDCHAR

STARTCHAR Cb1c2
ENCODING 45506
SWIDTH 1000 0
DWIDTH 20 0
BBX 20 20 0 -4
BITMAP
000000
040040
0A7FE0
091080
149080
241080
5F1F80
111080
111080
1F1080
111F80
111080
1F1080
1210A0
1110E0
111F80
1EF080
608080
000080
000000
ENDCHAR

STARTCHAR Cb1c3
ENCODING 45507
SWIDTH 1000 0
DWIDTH 20 0
BBX 20 20 0 -4
BITMAP
000000
020000
03C040
221FE0
3FE840
202840
4F4840
400880
124880
252480
088500
1FC500
306200
5FC200
104500
1FC500
104880
1FD040
106020
000000
ENDCHAR

STARTCHAR Cb1c4
ENCODING 45508
SWIDTH 1000 0
DWIDTH 20 0
BBX 20 20 0 -4
BITMAP
000000
108100
084200
244440
3FFFE0
200080
400100
4FFE00
080200
080200
0FFE00
004000
008100
1FFF80
100100
100100
100100
1FFF00
100100
000000
ENDCHAR

STARTCHAR Cb1c5
ENCODING 45509
SWIDTH 1000 0
DWIDTH 20 0
BBX 20 20 0 -4
BITMAP
000000
000080
1F9FC0
109080
1F9F80
109080
1F9F80
109080
1F9F80
090900
3090C0
008000
7FFFE0
010200
020400
0DC800
003800
01C700
3E00C0
000000
ENDCHAR

STARTCHAR Cb1c6
ENCODING 45510
SWIDTH 1000 0
DWIDTH 20 0
BBX 20 20 0 -4
BITMAP
000000
004080
3FE100
204100
3FC200
204400
3FD840
040080
7FE080
000100
3FC200
204400
205820
3FC040
020040
128080
124100
224600
4E1800
000000
ENDCHAR

STARTCHAR Cb1c7
ENCODING 45511
SWIDTH 1000 0
DWIDTH 20 0
BBX 20 20 0 -4
BITMAP
000000
000800
040800
7E0880
44FFC0
448880
448880
448880
7C8880
448880
4488A0
47FFE0
440800
7C1400
441400
402200
004100
018080
060060
000000
ENDCHAR

STARTCHAR Cb1c8
ENCODING 45512
SWIDTH 1000 0
DWIDTH 20 0
BBX 20 20 0 -4
BITMAP
000000
008000
008100
1FFF80
108100
108100
108100
1FFF00
104100
104100
104100
1FFF00
104000
002200
002C40
001040
006C40
038380
7C0040
000000
ENDCHAR

STARTCHAR Cb1c9
ENCODING 45513
SWIDTH 1000 0
DWIDTH 20 0
BBX 20 20 0 -4
BITMAP
000000
008100
104200
084200
240440
3FFFE0
200080
404100
404000
004080
7FFFC0
015000
024800
024800
044400
084200
104100
6040C0
004000
000000
ENDCHAR

STARTCHAR Cb1ca
ENCODING 45514
SWIDTH 1000 0
DWIDTH 20 0
BBX 20 20 0 -4
BITMAP
000000
010000
00C000
002000
001000
0FE000
002080
002100
013200
3FB400
012800
012800
022400
022200
042100
082080
102060
61E000
004000
000000
ENDCHAR

STARTCHAR Cb1cb
ENCODING 45515
SWIDTH 1000 0
DWIDTH 20 0
BBX 20 20 0 -4
BITMAP
000000
203000
100800
080400
000000
00F840
420840
220880
144C80
07ED00
084A00
084A00
108900
108900
610880
220840
240820
207800
201000
000000
ENDCHAR

STARTCHAR Cb1cc
ENCODING 45516
SWIDTH 1000 0
DWIDTH 20 0
BBX 20 20 0 -4
BITMAP
000000
101000
081000
041040
01FFE0
411040
211040
11FFC0
051040
051040
091040
09FFC0
111080
100900
600A20
200420
201B20
2060C0
238020
000000
ENDCHAR

STARTCHAR Cb1cd
ENCODING 45517
SWIDTH 1000 0
DWIDTH 20 0
BBX 20 20 0 -4
BITMAP
000000
002200
042240
7DFFE0
102200
102A00
100880
10FFC0
7C8880
108880
108880
1088A0
13FFE0
100800
1C1400
601200
002100
00C080
030060
000000
ENDCHAR

STARTCHAR Cb1ce
ENCODING 45518
SWIDTH 1000 0
DWIDTH 20 0
BBX 20 20 0 -4
BITMAP
000000
000200
1FFF00
020200
020200
020440
07E7E0
042440
084040
0B4040
108080
214780
022000
0FFF00
091100
091100
091100
091120
7FFFE0
000000
ENDCHAR

STARTCHAR Cb1cf
ENCODING 45519
SWIDTH 1000 0
DWIDTH 20 0
BBX 20 20 0 -4
BITMAP
000000
210020
267FE0
380200
208400
20BFC0
1FA040
002040
033FC0
3C2040
042040
043FC0
7FA040
042040
0C3FC0
160000
251180
442040
04C020
000000
ENDCHAR

STARTCHAR Cb1d0
ENCODING 45520
SWIDTH 1000 0
DWIDTH 20 0
BBX 20 20 0 -4
BITMAP
000000
210020
267FE0
380200
208400
20BFC0
1FA040
002040
003FC0
3F2040
002040
003FC0
7FA040
042040
153FC0
148000
248980
441040
1C6020
000000
ENDCHAR

STARTCHAR Cb1d1
ENCODING 45521
SWIDTH 1000 0
DWIDTH 20 0
BBX 20 20 0 -4
BITMAP
000000
020800
020840
7FFFE0
020800
024800
004100
0FFF80
084100
084100
084100
084120
7FFFE0
004000
00A000
011000
020C00
0C0300
7000E0
000000
ENDCHAR

STARTCHAR Cb1d2
ENCODING 45522
SWIDTH 1000 0
DWIDTH 20 0
BBX 20 20 0 -4
BITMAP
000000
084020
0843E0
13F800
108800
208800
4FFC20
0807E0
11F880
110880
31F880
502080
13FC80
112080
112280
17FE80
102080
102080
102380
000000
ENDCHAR

STARTCHAR Cb1d3
ENCODING 45523
SWIDTH 1000 0
DWIDTH 20 0
BBX 20 20 0 -4
BITMAP
000000
043000
3C0800
000400
020000
7EF800
000840
000880
3C4C80
03ED00
004A00
3C4A00
008900
008900
3D0880
250840
260820
3C7800
241000
000000
ENDCHAR

STARTCHAR Cb1d4
ENCODING 45524
SWIDTH 1000 0
DWIDTH 20 0
BBX 20 20 0 -4
BITMAP
000000
042080
061080
090900
090900
108240
3F3FE0
442040
042040
7FA040
042040
24BFC0
24A940
150900
140900
059120
0E1120
702120
00C1E0
000000
ENDCHAR

STARTCHAR Cb1d5
ENCODING 45525
SWIDTH 1000 0
DWIDTH 20 0
BBX 20 20 0 -4
BITMAP
000000
200800
100800
080820
03FFE0
004400
424480
2247C0
148880
048C80
099A80
0AA880
10C500
108500
608200
208500
208880
209040
20E020
000000
ENDCHAR

STARTCHAR Cb1d6
ENCODING 45526
SWIDTH 1000 0
DWIDTH 20 0
BBX 20 20 0 -4
BITMAP
000000
002000
002040
0FFFE0
080000
480400
28FE00
288440
088440
0903C0
1A0000
280100
4BFF80
108100
104200
102400
201800
206600
4781E0
000000
ENDCHAR

STARTCHAR Cb1d7
ENCODING 45527
SWIDTH 1000 0
DWIDTH 20 0
BBX 20 20 0 -4
BITMAP
000000
080200
040200
020400
020880
3FFFC0
011000
020800
020800
040400
080200
1FFF00
292280
492260
092200
092200
092200
092240
7FFFE0
000000
ENDCHAR

STARTCHAR Cb1d8
ENCODING 45528
SWIDTH 1000 0
DWIDTH 20 0
BBX 20 20 0 -4
BITMAP
000000
004040
3FDFE0
241040
241040
3F9040
241040
241040
3F9040
241FC0
241240
3F9200
009200
029100
2A9100
2AA080
48A080
412040
074020
000000
ENDCHAR

STARTCHAR Cb1d9
ENCODING 45529
SWIDTH 1000 0
DWIDTH 20 0
BBX 20 20 0 -4
BITMAP
000000
088080
084100
082100
082240
08FFE0
2C8040
2A8040
2A8040
488040
48FFC0
089240
081200
081200
081200
082220
082220
084220
0981E0
000000
ENDCHAR

STARTCHAR Cb1da
ENCODING 45530
SWIDTH 1000 0
DWIDTH 20 0
BBX 20 20 0 -4
BITMAP
000000
020080
3E7FC0
004080
014080
7F7F80
004080
004080
3E7F80
002000
002040
3E7FE0
004040
00A440
3F3840
222240
223E40
3E0080
200780
000000
ENDCHAR

STARTCHAR Cb1db
ENCODING 45531
SWIDTH 1000 0
DWIDTH 20 0
BBX 20 20 0 -4
BITMAP
000000
040400
040500
050480
3F3FC0
042400
042400
04A400
7FA440
042240
042280
242280
27AD00
243120
24C2A0
340440
2C0820
430000
40FFE0
000000
ENDCHAR

STARTCHAR Cb1dc
ENCODING 45532
SWIDTH 1000 0
DWIDTH 20 0
BBX 20 20 0 -4
BITMAP
000000
000040
3F9FE0
209040
3F9FC0
209040
209040
3F9FC0
210840
209040
23FC40
220440
220440
23FC40
209040
209240
211240
261E40
2001C0
000000
ENDCHAR

STARTCHAR Cb1dd
ENCODING 45533
SWIDTH 1000 0
DWIDTH 20 0
BBX 20 20 0 -4
BITMAP
000000
080040
09FFE0
080800
091080
7F7FC0
084080
087F80
084080
1C7F80
1A4080
297F80
281000
481F80
486100
099200
080C00
083300
09C0E0
000000
ENDCHAR

STARTCHAR Cb1de
ENCODING 45534
SWIDTH 1000 0
DWIDTH 20 0
BBX 20 20 0 -4
BITMAP
000000
000040
1FFFE0
100000
17C280
144240
17C240
144200
17DFE0
100200
17C200
144200
17C500
144500
244500
27C880
244880
445040
44E020
000000
ENDCHAR

STARTCHAR Cb1df
ENCODING 45535
SWIDTH 1000 0
DWIDTH 20 0
BBX 20 20 0 -4
BITMAP
000000
000000
000080
3FFFC0
204080
204080
204080
204080
204080
204080
3FFF80
200080
200080
200080
200080
200080
200080
200780
200100
000000
ENDCHAR

STARTCHAR Cb1e0
ENCODING 45536
SWIDTH 1000 0
DWIDTH 20 0
BBX 20 20 0 -4
BITMAP
000000
000040
3FFFE0
204040
23FC40
204040
2FFF40
200040
23FC40
220440
220440
23FC40
202240
20C440
237840
2C4640
204040
3FFFC0
200040
000000
ENDCHAR

STARTCHAR Cb1e1
ENCODING 45537
SWIDTH 1000 0
DWIDTH 20 0
BBX 20 20 0 -4
BITMAP
000000
080040
08FFE0
088000
089F80
089080
7E9F80
089080
089F80
088400
08FFE0
088900
0B9100
1C9E00
608580
00B840
008020
00FFE0
008000
000000
ENDCHAR

STARTCHAR Cb1e2
ENCODING 45538
SWIDTH 1000 0
DWIDTH 20 0
BBX 20 20 0 -4
BITMAP
000000
008000
008040
7FFFE0
011000
024800
044400
0FFE00
184380
684260
0FFE00
084200
084200
0FFE00
084240
084040
004060
003FC0
000000
000000
ENDCHAR

STARTCHAR Cb1e3
ENCODING 45539
SWIDTH 1000 0
DWIDTH 20 0
BBX 20 20 0 -4
BITMAP
000000
004000
104040
1FFFE0
100040
27FE80
240200
07FE00
040200
040200
07FE00
008040
7FFFE0
010400
020400
0D8800
007800
01C700
3E00C0
000000
ENDCHAR

STARTCHAR Cb1e4
ENCODING 45540
SWIDTH 1000 0
DWIDTH 20 0
BBX 20 20 0 -4
BITMAP
000000
000000
040080
7E0700
04F800
080800
080800
124880
1F4F80
224800
024800
224800
244800
144840
09FFC0
080000
160000
21C000
403FE0
000000
ENDCHAR

STARTCHAR Cb1e5
ENCODING 45541
SWIDTH 1000 0
DWIDTH 20 0
BBX 20 20 0 -4
BITMAP
000000
040000
040080
07DFC0
085080
085080
149080
629380
011000
021040
041040
188FC0
604000
022100
122080
120040
120240
220220
41FE20
000000
ENDCHAR

STARTCHAR Cb1e6
ENCODING 45542
SWIDTH 1000 0
DWIDTH 20 0
BBX 20 20 0 -4
BITMAP
000000
081000
081040
0BFFE0
082200
7E4100
084900
088880
09FFC0
0E88A0
088880
1CFF80
688880
088880
08FF80
088800
080840
080840
3807C0
000000
ENDCHAR

STARTCHAR Cb1e7
ENCODING 45543
SWIDTH 1000 0
DWIDTH 20 0
BBX 20 20 0 -4
BITMAP
000000
1003C0
13FC00
111080
108880
7C8900
11FFC0
102000
102020
13FFE0
102000
1C4000
707F80
10A080
109100
110A00
120400
141B00
70E0E0
000000
ENDCHAR

STARTCHAR Cb1e8
ENCODING 45544
SWIDTH 1000 0
DWIDTH 20 0
BBX 20 20 0 -4
BITMAP
000000
100400
082400
042200
002200
404100
224100
128080
048080
050040
0AFFA0
088080
108080
108080
608080
208080
208080
20FF80
208080
000000
ENDCHAR

STARTCHAR Cb1e9
ENCODING 45545
SWIDTH 1000 0
DWIDTH 20 0
BBX 20 20 0 -4
BITMAP
000000
201000
111040
09FFE0
010040
420080
21FF80
101000
041000
05FF80
091080
091080
11FF80
111080
611080
21FF80
204600
218180
260040
000000
ENDCHAR

STARTCHAR Cb1ea
ENCODING 45546
SWIDTH 1000 0
DWIDTH 20 0
BBX 20 20 0 -4
BITMAP
000000
004000
004080
044100
044200
08C400
10B000
010C00
020200
0C4180
304040
044100
044200
08A400
10A800
011000
020C00
0C0300
7000E0
000000
ENDCHAR

STARTCHAR Cb1eb
ENCODING 45547
SWIDTH 1000 0
DWIDTH 20 0
BBX 20 20 0 -4
BITMAP
000000
081000
081080
081FC0
082080
0A2100
2A4100
2C8240
284FE0
484840
484840
084840
084FC0
144840
124840
124840
214840
204FC0
404840
000000
ENDCHAR

STARTCHAR Cb1ec
ENCODING 45548
SWIDTH 1000 0
DWIDTH 20 0
BBX 20 20 0 -4
BITMAP
000000
080020
09FFE0
081200
081240
0AFFE0
2A9240
2C9240
289240
489240
48FFC0
088040
080800
140880
127F80
120800
200800
200820
41FFE0
000000
ENDCHAR

STARTCHAR Cb1ed
ENCODING 45549
SWIDTH 1000 0
DWIDTH 20 0
BBX 20 20 0 -4
BITMAP
000000
010800
010840
7FFFE0
010800
010800
05FA00
040240
3CF380
049200
049240
049240
1CF240
6491C0
040000
111100
110880
208840
408420
000000
ENDCHAR

STARTCHAR Cb1ee
ENCODING 45550
SWIDTH 1000 0
DWIDTH 20 0
BBX 20 20 0 -4
BITMAP
000000
020800
420840
24FFC0
140800
080820
09FFE0
140000
247F80
444080
0C4080
147F80
141420
242240
446280
05A100
042080
383C40
09C020
000000
ENDCHAR

STARTCHAR Cb1ef
ENCODING 45551
SWIDTH 1000 0
DWIDTH 20 0
BBX 20 20 0 -4
BITMAP
000000
040100
087F80
090100
520100
223F00
140100
080120
0AFFE0
121200
7D2A40
09CA80
2A1500
2A6500
298C80
491480
486440
098420
083800
000000
ENDCHAR

STARTCHAR Cb1f0
ENCODING 45552
SWIDTH 1000 0
DWIDTH 20 0
BBX 20 20 0 -4
BITMAP
000000
0A0800
0A4880
3FEFC0
2A4880
3FD100
2A5100
2A7FC0
3FD240
001240
7FF240
001240
3FDFC0
205040
3FD000
109020
091020
09D020
7E0FE0
000000
ENDCHAR

STARTCHAR Cb1f1
ENCODING 45553
SWIDTH 1000 0
DWIDTH 20 0
BBX 20 20 0 -4
BITMAP
000000
020400
020440
7FFFE0
020400
040400
040080
07DFC0
085080
085080
109080
289080
451780
021100
021040
041040
081060
100FC0
600000
000000
ENDCHAR

STARTCHAR Cb1f2
ENCODING 45554
SWIDTH 1000 0
DWIDTH 20 0
BBX 20 20 0 -4
BITMAP
000000
020440
7FFFE0
020400
3FFFC0
204040
23FC40
204040
2FFF40
200040
23FC40
220440
23FC40
204640
21F840
2E4640
204040
3FFFC0
200040
000000
ENDCHAR

STARTCHAR Cb1f3
ENCODING 45555
SWIDTH 1000 0
DWIDTH 20 0
BBX 20 20 0 -4
BITMAP
000000
001000
201100
11FF00
081040
0BFFC0
000000
00FF00
088100
7C8100
08FF00
080800
083080
08DD00
0B1300
081080
141000
230000
40FFE0
000000
ENDCHAR

STARTCHAR Cb1f4
ENCODING 45556
SWIDTH 1000 0
DWIDTH 20 0
BBX 20 20 0 -4
BITMAP
000000
040000
061200
091200
089200
10A100
3F2100
442080
044080
7FC040
040020
24BF80
24A080
152080
142080
05A080
0E2080
703F80
002080
000000
ENDCHAR

STARTCHAR Cb1f5
ENCODING 45557
SWIDTH 1000 0
DWIDTH 20 0
BBX 20 20 0 -4
BITMAP
000000
048100
07DF80
089100
189720
651020
024FE0
048000
1FFE00
640200
07FE00
040240
07FFE0
040000
07FFC0
122440
111240
211080
400780
000000
ENDCHAR

STARTCHAR Cb1f6
ENCODING 45558
SWIDTH 1000 0
DWIDTH 20 0
BBX 20 20 0 -4
BITMAP
000000
008000
088040
08FFC0
088000
090000
7F7F00
0A4100
084100
084100
087F00
080000
080080
0EFFC0
18A480
60A480
00A480
00A4A0
03FFE0
000000
ENDCHAR

STARTCHAR Cb1f7
ENCODING 45559
SWIDTH 1000 0
DWIDTH 20 0
BBX 20 20 0 -4
BITMAP
000000
040400
040400
048A00
7FCA00
081100
081100
082080
0FC040
088820
088400
088200
088100
108000
10B000
108800
210600
2F0100
420080
000000
ENDCHAR

STARTCHAR Cb1f8
ENCODING 45560
SWIDTH 1000 0
DWIDTH 20 0
BBX 20 20 0 -4
BITMAP
000000
200040
11FFC0
081000
001000
001000
421020
23FFE0
142000
042000
084080
087FC0
104080
108080
608080
200080
200100
201F00
200200
000000
ENDCHAR

STARTCHAR Cb1f9
ENCODING 45561
SWIDTH 1000 0
DWIDTH 20 0
BBX 20 20 0 -4
BITMAP
000000
040080
247FC0
244880
254880
3F7F80
244880
444880
444880
047F80
3F0800
040840
04FFE0
040840
059040
0E1040
702080
004780
018100
000000
ENDCHAR

STARTCHAR Cb1fa
ENCODING 45562
SWIDTH 1000 0
DWIDTH 20 0
BBX 20 20 0 -4
BITMAP
000000
000000
000080
3F1FC0
211080
211080
211080
211080
211080
211080
21F080
211080
200080
200080
200080
200080
3FFF80
200080
000000
000000
ENDCHAR

STARTCHAR Cb1fb
ENCODING 45563
SWIDTH 1000 0
DWIDTH 20 0
BBX 20 20 0 -4
BITMAP
000000
004000
004000
004100
0FFF80
084100
084100
084100
084100
084100
084140
7FFFE0
00A000
011000
010800
020400
040200
180180
600060
000000
ENDCHAR

STARTCHAR Cb1fc
ENCODING 45564
SWIDTH 1000 0
DWIDTH 20 0
BBX 20 20 0 -4
BITMAP
000000
004000
008080
1FFFC0
104080
124480
114880
104080
17FE80
115080
124C80
1C4280
004020
7FFFE0
00A000
011000
020C00
0C0300
7000E0
000000
ENDCHAR

STARTCHAR Cb1fd
ENCODING 45565
SWIDTH 1000 0
DWIDTH 20 0
BBX 20 20 0 -4
BITMAP
000000
042000
081000
080800
100040
21FFC0
440800
040800
080800
080880
18FF80
280800
480800
080800
080800
080800
080820
0BFFE0
080000
000000
ENDCHAR

STARTCHAR Cb1fe
ENCODING 45566
SWIDTH 1000 0
DWIDTH 20 0
BBX 20 20 0 -4
BITMAP
000000
002000
002080
1FFFC0
100000
100000
104000
102000
101000
109000
108900
148080
148040
148040
248220
288220
288300
407E00
400000
000000
ENDCHAR

STARTCHAR Cb2a1
ENCODING 45729
SWIDTH 1000 0
DWIDTH 20 0
BBX 20 20 0 -4
BITMAP
000000
080040
08FFE0
088840
088840
7E8840
088840
08FFC0
088840
088840
0A8840
1C8840
68FFC0
088840
080800
080800
080800
080800
380800
000000
ENDCHAR

STARTCHAR Cb2a2
ENCODING 45730
SWIDTH 1000 0
DWIDTH 20 0
BBX 20 20 0 -4
BITMAP
000000
000040
02FFC0
7F0800
420800
420800
420800
420800
420880
7EFF80
420800
420800
420800
420800
420800
7E0800
420820
01FFE0
000000
000000
ENDCHAR

STARTCHAR Cb2a3
ENCODING 45731
SWIDTH 1000 0
DWIDTH 20 0
BBX 20 20 0 -4
BITMAP
000000
082200
082240
09FFC0
082200
7E2220
0BFFE0
080800
08FF80
188880
1C8880
2AFF80
298880
488880
48FF80
080000
082200
084180
098040
000000
ENDCHAR

STARTCHAR Cb2a4
ENCODING 45732
SWIDTH 1000 0
DWIDTH 20 0
BBX 20 20 0 -4
BITMAP
000000
002000
012000
7FA040
403FE0
412440
412480
524480
4A4500
448400
440400
4A0A00
490A00
510900
601100
409080
7FA080
404040
008020
000000
ENDCHAR

STARTCHAR Cb2a5
ENCODING 45733
SWIDTH 1000 0
DWIDTH 20 0
BBX 20 20 0 -4
BITMAP
000000
000200
00BF00
7FA200
402200
412240
412240
5241C0
4A8000
440000
44FF80
4A2080
491100
511100
600A00
408400
7F8A00
403180
01C060
000000
ENDCHAR

STARTCHAR Cb2a6
ENCODING 45734
SWIDTH 1000 0
DWIDTH 20 0
BBX 20 20 0 -4
BITMAP
000000
000000
000100
3FFF80
004000
004000
004000
004000
004000
004200
1FFF00
004000
004000
004000
004000
004000
004080
7FFFC0
000000
000000
ENDCHAR

STARTCHAR Cb2a7
ENCODING 45735
SWIDTH 1000 0
DWIDTH 20 0
BBX 20 20 0 -4
BITMAP
000000
000000
010800
020400
044200
188180
608860
010400
0FFA00
000140
3FBFE0
008040
189840
068640
008040
068340
188C40
60B040
0783C0
000000
ENDCHAR

STARTCHAR Cb2a8
ENCODING 45736
SWIDTH 1000 0
DWIDTH 20 0
BBX 20 20 0 -4
BITMAP
000000
080800
081040
09FFE0
7F0040
054940
052940
092A40
097F40
0B0840
1D1C40
2B2A40
294940
480800
0BFFE0
081400
082200
08C180
0B0060
000000
ENDCHAR

STARTCHAR Cb2a9
ENCODING 45737
SWIDTH 1000 0
DWIDTH 20 0
BBX 20 20 0 -4
BITMAP
000000
108100
084200
044440
1FFFE0
108040
27FE80
240200
07FE00
040200
07FE00
040040
07FFE0
040000
07FFC0
124840
122440
222080
400780
000000
ENDCHAR

STARTCHAR Cb2aa
ENCODING 45738
SWIDTH 1000 0
DWIDTH 20 0
BBX 20 20 0 -4
BITMAP
000000
000400
010800
7FBF80
402080
413F80
412080
522080
4A3F80
442020
443FE0
4A2000
492000
513FC0
600A40
415540
7F5440
409080
008380
000000
ENDCHAR

STARTCHAR Cb2ab
ENCODING 45739
SWIDTH 1000 0
DWIDTH 20 0
BBX 20 20 0 -4
BITMAP
000000
020800
020900
1FFF80
020800
020840
7FFFE0
004000
004100
0FFF80
084100
084100
0FFF00
084100
084100
0FFF00
010C00
060300
3800C0
000000
ENDCHAR

STARTCHAR Cb2ac
ENCODING 45740
SWIDTH 1000 0
DWIDTH 20 0
BBX 20 20 0 -4
BITMAP
000000
000040
3FFFE0
200440
220440
220840
210840
211240
2FFE40
204040
204040
244440
244440
244440
244440
27FC40
240440
2003C0
200080
000000
ENDCHAR

STARTCHAR Cb2ad
ENCODING 45741
SWIDTH 1000 0
DWIDTH 20 0
BBX 20 20 0 -4
BITMAP
000000
100800
080800
040800
000840
41FFE0
250840
150840
050840
090840
090840
110840
11FFC0
110840
600800
200800
200800
200800
200800
000000
ENDCHAR

STARTCHAR Cb2ae
ENCODING 45742
SWIDTH 1000 0
DWIDTH 20 0
BBX 20 20 0 -4
BITMAP
000000
020840
7FFFE0
020800
000800
020000
220800
140840
084840
144880
644880
028900
068800
0A1400
121400
622200
024100
048080
1D0060
000000
ENDCHAR

STARTCHAR Cb2af
ENCODING 45743
SWIDTH 1000 0
DWIDTH 20 0
BBX 20 20 0 -4
BITMAP
000000
040800
040840
05FFC0
084100
082220
0BFFE0
100000
10FF80
308080
50FF80
108080
108080
10FF80
101000
114880
114540
124120
143F20
000000
ENDCHAR

STARTCHAR Cb2b0
ENCODING 45744
SWIDTH 1000 0
DWIDTH 20 0
BBX 20 20 0 -4
BITMAP
000000
000080
1FFFC0
100080
100080
1FFF80
100000
100000
1FFFC0
104000
108200
110100
17FE80
102040
202100
27FF80
202000
402040
5FFFE0
000000
ENDCHAR

STARTCHAR Cb2b1
ENCODING 45745
SWIDTH 1000 0
DWIDTH 20 0
BBX 20 20 0 -4
BITMAP
000000
080800
080840
09FFC0
084100
0C2220
2BFFE0
2A0000
287F80
484080
487F80
084080
084080
087F80
080800
08A480
08A140
092120
0A1F20
000000
ENDCHAR

STARTCHAR Cb2b2
ENCODING 45746
SWIDTH 1000 0
DWIDTH 20 0
BBX 20 20 0 -4
BITMAP
000000
000800
3E0840
22FFC0
222100
221220
3FFFE0
220000
227F80
224080
227F80
3E4080
224080
227F80
220800
22A480
22A140
432120
4E1F20
000000
ENDCHAR

STARTCHAR Cb2b3
ENCODING 45747
SWIDTH 1000 0
DWIDTH 20 0
BBX 20 20 0 -4
BITMAP
000000
080100
08FF80
080100
092200
7F1440
08FFE0
088840
088840
1C8840
1AFFC0
298840
288840
488840
48FFC0
088840
088840
088840
0881C0
000000
ENDCHAR

STARTCHAR Cb2b4
ENCODING 45748
SWIDTH 1000 0
DWIDTH 20 0
BBX 20 20 0 -4
BITMAP
000000
040C00
240800
240800
248800
3F8800
240840
24FFC0
440800
440800
058800
0E0800
740800
040800
040800
040800
040820
05FFE0
040000
000000
ENDCHAR

STARTCHAR Cb2b5
ENCODING 45749
SWIDTH 1000 0
DWIDTH 20 0
BBX 20 20 0 -4
BITMAP
000000
000000
000200
1FFF00
000200
000C00
001000
002000
004000
008000
010000
020000
040040
080040
080040
100060
100040
0FFF80
000000
000000
ENDCHAR

STARTCHAR Cb2b6
ENCODING 45750
SWIDTH 1000 0
DWIDTH 20 0
BBX 20 20 0 -4
BITMAP
000000
042000
042000
042040
0BFFC0
084400
089200
109200
11FF00
331180
551140
19FF20
111100
111100
11FF00
111040
101040
101060
100FC0
000000
ENDCHAR

STARTCHAR Cb2b7
ENCODING 45751
SWIDTH 1000 0
DWIDTH 20 0
BBX 20 20 0 -4
BITMAP
000000
100000
104040
1FCFE0
220840
220840
422840
3FE840
020840
020840
124840
13C840
120840
120840
120840
120BC0
13E880
7C0800
000800
000000
ENDCHAR

STARTCHAR Cb2b8
ENCODING 45752
SWIDTH 1000 0
DWIDTH 20 0
BBX 20 20 0 -4
BITMAP
000000
000100
1FFF80
104100
104500
17FD00
104100
10A100
111900
160500
100100
1FFF00
008000
004200
122100
122080
120440
220440
41FC00
000000
ENDCHAR

STARTCHAR Cb2b9
ENCODING 45753
SWIDTH 1000 0
DWIDTH 20 0
BBX 20 20 0 -4
BITMAP
000000
100100
08FF80
048100
008100
40FF00
228100
128100
04FF00
048000
080080
09FFC0
112480
112480
612480
212480
2124A0
2FFFE0
200000
000000
ENDCHAR

STARTCHAR Cb2ba
ENCODING 45754
SWIDTH 1000 0
DWIDTH 20 0
BBX 20 20 0 -4
BITMAP
000000
0201C0
0DFE00
789080
084880
084900
0AFF80
7E0080
080080
087F80
1C0080
1A0080
2AFF80
280800
482480
48A440
08A120
092120
0A1F00
000000
ENDCHAR

STARTCHAR Cb2bb
ENCODING 45755
SWIDTH 1000 0
DWIDTH 20 0
BBX 20 20 0 -4
BITMAP
000000
004000
004200
1FFF00
040400
020400
020880
7FFFC0
000000
000200
0FFF00
080200
080200
0FFE00
080200
080200
080200
0FFE00
080200
000000
ENDCHAR

STARTCHAR Cb2bc
ENCODING 45756
SWIDTH 1000 0
DWIDTH 20 0
BBX 20 20 0 -4
BITMAP
000000
000000
000080
7FFFC0
004000
004000
004000
004000
006000
005800
004400
004200
004100
004000
004000
004000
004000
004000
004000
000000
ENDCHAR

STARTCHAR Cb2bd
ENCODING 45757
SWIDTH 1000 0
DWIDTH 20 0
BBX 20 20 0 -4
BITMAP
000000
020000
023000
022000
042000
042000
042040
082180
082600
183800
282000
482000
082000
082040
082040
082040
082060
081FC0
080000
000000
ENDCHAR

STARTCHAR Cb2be
ENCODING 45758
SWIDTH 1000 0
DWIDTH 20 0
BBX 20 20 0 -4
BITMAP
000000
040000
040040
04FFC0
088000
088000
088000
108080
10FFC0
30A080
50A080
109100
111100
110A00
110400
120A00
121100
146080
118060
000000
ENDCHAR

STARTCHAR Cb2bf
ENCODING 45759
SWIDTH 1000 0
DWIDTH 20 0
BBX 20 20 0 -4
BITMAP
000000
040000
040040
05FFE0
080080
080080
080080
18F880
188880
288880
488880
088880
08F880
088880
080080
080080
080080
080780
080100
000000
ENDCHAR

STARTCHAR Cb2c0
ENCODING 45760
SWIDTH 1000 0
DWIDTH 20 0
BBX 20 20 0 -4
BITMAP
000000
090000
090000
090040
0927E0
17F440
112440
112440
312440
312440
512440
112440
112440
122440
122440
122440
15C7C0
144440
180000
000000
ENDCHAR

STARTCHAR Cb2c1
ENCODING 45761
SWIDTH 1000 0
DWIDTH 20 0
BBX 20 20 0 -4
BITMAP
000000
040020
07FFE0
042400
082400
082400
082440
11FFE0
112440
312440
512440
112440
112440
112440
112440
112440
112440
11FFC0
110040
000000
ENDCHAR

STARTCHAR Cb2c2
ENCODING 45762
SWIDTH 1000 0
DWIDTH 20 0
BBX 20 20 0 -4
BITMAP
000000
041000
041000
041100
08FF00
081000
081000
101040
13FFC0
300000
501000
101080
11FF80
101000
101000
101000
101020
17FFE0
100000
000000
ENDCHAR

STARTCHAR Cb2c3
ENCODING 45763
SWIDTH 1000 0
DWIDTH 20 0
BBX 20 20 0 -4
BITMAP
000000
040000
040040
044FE0
3FE840
044840
044840
044840
044840
044840
084840
084840
084840
084840
104840
108840
208FC0
278840
410000
000000
ENDCHAR

STARTCHAR Cb2c4
ENCODING 45764
SWIDTH 1000 0
DWIDTH 20 0
BBX 20 20 0 -4
BITMAP
000000
000000
000040
3FFFE0
000100
000100
002100
07F100
042100
042100
042100
042100
042100
07E100
042100
000100
000100
001F00
000200
000000
ENDCHAR

STARTCHAR Cb2c5
ENCODING 45765
SWIDTH 1000 0
DWIDTH 20 0
BBX 20 20 0 -4
BITMAP
000000
004080
3FFFC0
004000
0FFF00
000000
07FE00
040200
07FE00
020400
010840
7FFFE0
020000
021F80
1FD080
025080
045080
085F80
339080
000000
ENDCHAR

STARTCHAR Cb2c6
ENCODING 45766
SWIDTH 1000 0
DWIDTH 20 0
BBX 20 20 0 -4
BITMAP
000000
000080
3FFFC0
004000
008100
0FFF80
080100
0FFF00
080100
0FFF00
080100
0FFF00
010000
03FE00
0C0400
731800
00E000
071C00
7803E0
000000
ENDCHAR

STARTCHAR Cb2c7
ENCODING 45767
SWIDTH 1000 0
DWIDTH 20 0
BBX 20 20 0 -4
BITMAP
000000
100800
110840
11FFE0
120040
7F0080
12FF80
121400
122400
225240
259A80
242900
544500
098C80
081480
146440
118420
200400
403800
000000
ENDCHAR

STARTCHAR Cb2c8
ENCODING 45768
SWIDTH 1000 0
DWIDTH 20 0
BBX 20 20 0 -4
BITMAP
000000
004000
104040
1FFFE0
100040
200280
2FFF00
009000
011000
069080
38C900
014A00
062400
386400
00A200
032100
0C2080
702040
01C000
000000
ENDCHAR

STARTCHAR Cb2c9
ENCODING 45769
SWIDTH 1000 0
DWIDTH 20 0
BBX 20 20 0 -4
BITMAP
000000
004000
104040
1FFFE0
100080
2FFF00
004000
07FE00
040200
07FE00
040240
7FFFE0
020400
040200
1BFF80
604260
008200
030200
1C3C00
000000
ENDCHAR

STARTCHAR Cb2ca
ENCODING 45770
SWIDTH 1000 0
DWIDTH 20 0
BBX 20 20 0 -4
BITMAP
000000
018180
0E0100
741100
040900
040500
048100
7FA100
041100
040900
0E0100
0D0120
1481E0
140F00
247100
240100
440100
040100
040100
000000
ENDCHAR

STARTCHAR Cb2cb
ENCODING 45771
SWIDTH 1000 0
DWIDTH 20 0
BBX 20 20 0 -4
BITMAP
000000
000040
01F7E0
7D1040
451040
451040
451040
45F7C0
451040
7D0000
450040
45EFE0
450440
450240
450280
7DF100
450280
410440
010820
000000
ENDCHAR

STARTCHAR Cb2cc
ENCODING 45772
SWIDTH 1000 0
DWIDTH 20 0
BBX 20 20 0 -4
BITMAP
000000
000100
0FFF80
084100
084100
0FFF00
084100
084100
084100
0FFF00
084100
004040
7FFFE0
015000
024800
044600
184180
604060
004000
000000
ENDCHAR

STARTCHAR Cb2cd
ENCODING 45773
SWIDTH 1000 0
DWIDTH 20 0
BBX 20 20 0 -4
BITMAP
000000
040080
049FC0
3FD080
049080
049080
089080
089080
171F80
211000
004000
004080
3FFFC0
015000
024800
044400
184300
6040C0
004000
000000
ENDCHAR

STARTCHAR Cb2ce
ENCODING 45774
SWIDTH 1000 0
DWIDTH 20 0
BBX 20 20 0 -4
BITMAP
000000
001000
3FD000
009040
1E9FE0
129440
12A480
1EA480
11C500
000400
7FE400
008400
1E8A00
128A00
128900
1E9100
109080
00A040
03C020
000000
ENDCHAR

STARTCHAR Cb2cf
ENCODING 45775
SWIDTH 1000 0
DWIDTH 20 0
BBX 20 20 0 -4
BITMAP
000000
200000
100040
0BFFE0
000080
000080
420080
22F880
148880
048880
088880
088880
108880
10F880
608880
200080
200080
200780
200100
000000
ENDCHAR

STARTCHAR Cb2d0
ENCODING 45776
SWIDTH 1000 0
DWIDTH 20 0
BBX 20 20 0 -4
BITMAP
000000
006000
004000
004000
004080
044080
044100
084100
084200
104400
20A000
00A000
009000
011000
010800
020400
040200
180180
600060
000000
ENDCHAR

STARTCHAR Cb2d1
ENCODING 45777
SWIDTH 1000 0
DWIDTH 20 0
BBX 20 20 0 -4
BITMAP
000000
000000
020040
7EFFE0
080080
080080
087C80
084480
084480
3E4480
084480
084480
087C80
084480
0B0080
1C0080
600080
000780
000100
000000
ENDCHAR

STARTCHAR Cb2d2
ENCODING 45778
SWIDTH 1000 0
DWIDTH 20 0
BBX 20 20 0 -4
BITMAP
000000
080100
087F80
0A4100
7F4100
024F00
024900
044900
05FFC0
090040
090040
1D3E40
2B2240
492240
092240
093E40
092040
090040
0903C0
000000
ENDCHAR

STARTCHAR Cb2d3
ENCODING 45779
SWIDTH 1000 0
DWIDTH 20 0
BBX 20 20 0 -4
BITMAP
000000
000300
003C00
1FC000
004000
004000
004000
004080
7FFFC0
015000
014800
024800
024400
044200
084100
104080
604040
004000
004000
000000
ENDCHAR

STARTCHAR Cb2d4
ENCODING 45780
SWIDTH 1000 0
DWIDTH 20 0
BBX 20 20 0 -4
BITMAP
000000
020800
0C8840
78FFE0
088040
090080
08FF80
7E1400
082400
085240
199A80
1C2900
2A4500
298C80
481480
486440
098420
080400
083800
000000
ENDCHAR

STARTCHAR Cb2d5
ENCODING 45781
SWIDTH 1000 0
DWIDTH 20 0
BBX 20 20 0 -4
BITMAP
000000
081000
089040
1FDFE0
122400
214240
5FFFE0
102040
102040
17FF40
102040
102040
11FC40
110440
110440
11FC40
100040
1FFFC0
100040
000000
ENDCHAR

STARTCHAR Cb2d6
ENCODING 45782
SWIDTH 1000 0
DWIDTH 20 0
BBX 20 20 0 -4
BITMAP
000000
020800
020880
3FFFC0
020800
020800
000000
022000
022080
042100
042600
0C3800
142000
242040
042040
042040
042060
041FC0
040000
000000
ENDCHAR

STARTCHAR Cb2d7
ENCODING 45783
SWIDTH 1000 0
DWIDTH 20 0
BBX 20 20 0 -4
BITMAP
000000
020800
020840
7FFFE0
020800
020800
000040
7FFFE0
000100
000100
0FE100
082100
082100
082100
0FE100
082100
000100
001F00
000200
000000
ENDCHAR

STARTCHAR Cb2d8
ENCODING 45784
SWIDTH 1000 0
DWIDTH 20 0
BBX 20 20 0 -4
BITMAP
000000
020800
020840
7FFFE0
020800
020800
040040
040FE0
3FC840
044840
044840
044840
044840
084840
084840
104840
108840
278FC0
410840
000000
ENDCHAR

STARTCHAR Cb2d9
ENCODING 45785
SWIDTH 1000 0
DWIDTH 20 0
BBX 20 20 0 -4
BITMAP
000000
020800
020840
7FFFE0
020800
020800
080040
0BFFC0
080100
100100
11F100
311100
511100
111100
11F100
111100
100100
100F00
100200
000000
ENDCHAR

STARTCHAR Cb2da
ENCODING 45786
SWIDTH 1000 0
DWIDTH 20 0
BBX 20 20 0 -4
BITMAP
000000
020800
020840
3FFFC0
020800
020800
1FFF80
044200
044240
7FFFE0
044200
044200
1FFF80
004000
004040
3FFFC0
004000
004000
004000
000000
ENDCHAR

STARTCHAR Cb2db
ENCODING 45787
SWIDTH 1000 0
DWIDTH 20 0
BBX 20 20 0 -4
BITMAP
000000
020880
3FFFC0
020800
020800
0FFF00
084100
084100
0FFF00
084100
084100
0FFF00
004040
7FFFE0
014800
024400
0C4300
7040E0
004000
000000
ENDCHAR

STARTCHAR Cb2dc
ENCODING 45788
SWIDTH 1000 0
DWIDTH 20 0
BBX 20 20 0 -4
BITMAP
000000
080040
08FBE0
088840
3E8840
2A8840
2AFBC0
2A8840
2A8000
2A8040
3EEFE0
288440
088440
0A8280
0AF280
0D8100
708280
008440
008820
000000
ENDCHAR

STARTCHAR Cb2dd
ENCODING 45789
SWIDTH 1000 0
DWIDTH 20 0
BBX 20 20 0 -4
BITMAP
000000
020080
3E7FC0
004880
014880
7F7F80
004880
004880
3E7F80
000800
000820
3EFFE0
002A00
002900
3E4900
224880
228840
3F0820
200800
000000
ENDCHAR

STARTCHAR Cb2de
ENCODING 45790
SWIDTH 1000 0
DWIDTH 20 0
BBX 20 20 0 -4
BITMAP
000000
004200
004240
07FFE0
784200
484200
4BFFC0
489100
489120
4FFFE0
489100
489100
4BFFC0
781000
481040
47FFE0
001000
001000
001000
000000
ENDCHAR

STARTCHAR Cb2df
ENCODING 45791
SWIDTH 1000 0
DWIDTH 20 0
BBX 20 20 0 -4
BITMAP
000000
012000
022180
042600
0C3800
142040
642040
041FC0
040000
0FFF00
080100
0FFF00
080100
0FFF00
080100
0FFF00
020C00
0C0300
7000C0
000000
ENDCHAR

STARTCHAR Cb2e0
ENCODING 45792
SWIDTH 1000 0
DWIDTH 20 0
BBX 20 20 0 -4
BITMAP
000000
008000
208040
1087E0
0BF440
089440
009440
009440
089440
7D1440
091440
091440
0A1440
0A1440
0C27C0
08E440
140000
230000
40FFE0
000000
ENDCHAR

STARTCHAR Cb2e1
ENCODING 45793
SWIDTH 1000 0
DWIDTH 20 0
BBX 20 20 0 -4
BITMAP
000000
000100
207F80
104100
084100
084F00
004900
004900
09FFC0
7D0040
090040
093E40
092240
092240
093E40
092040
1501C0
230000
40FFE0
000000
ENDCHAR

STARTCHAR Cb2e2
ENCODING 45794
SWIDTH 1000 0
DWIDTH 20 0
BBX 20 20 0 -4
BITMAP
000000
000000
1FFF80
004040
3FFFE0
204040
4F5E80
004000
1F5F00
000000
3FBF80
208080
3FBF80
200000
3FBF80
201080
3F8900
200600
2039C0
000000
ENDCHAR

STARTCHAR Cb2e3
ENCODING 45795
SWIDTH 1000 0
DWIDTH 20 0
BBX 20 20 0 -4
BITMAP
000000
040400
040400
040400
040420
3FFFE0
24A080
24A080
24A080
249100
3F9100
240A00
040A00
050400
050A00
069100
18A080
604040
018020
000000
ENDCHAR

STARTCHAR Cb2e4
ENCODING 45796
SWIDTH 1000 0
DWIDTH 20 0
BBX 20 20 0 -4
BITMAP
000000
080800
082800
08C900
178900
108880
108880
108820
37FFE0
308400
508440
108440
10E440
178280
108280
108120
1082A0
108440
139820
000000
ENDCHAR

STARTCHAR Cb2e5
ENCODING 45797
SWIDTH 1000 0
DWIDTH 20 0
BBX 20 20 0 -4
BITMAP
000000
000400
101400
11E500
104500
524480
524480
524420
53FFE0
524400
524440
524240
527280
53C280
524100
7E4120
4242A0
004440
01D820
000000
ENDCHAR

STARTCHAR Cb2e6
ENCODING 45798
SWIDTH 1000 0
DWIDTH 20 0
BBX 20 20 0 -4
BITMAP
000000
000800
01CA00
3E0900
020880
020880
020800
020840
7FFFE0
020800
020480
02C480
070500
3A0200
020220
020520
0208A0
1E1040
046020
000000
ENDCHAR

ENDFONT
